;TYPE=PLATED
;Layer: PTH_Through
;EasyEDA Pro v3.2.148, 2026-07-02 18:00:29
;Gerber Generator version 0.3
M48
METRIC,LZ,0000.00000
;Hole size 1 = 0.30500 METRIC
T01C0.30500
;Hole size 2 = 0.60000 METRIC
T02C0.60000
;Hole size 3 = 0.90002 METRIC
T03C0.90002
;Hole size 4 = 1.20000 METRIC
T04C1.20000
;Hole size 5 = 1.40005 METRIC
T05C1.40005
;Hole size 6 = 2.00000 METRIC
T06C2.00000
%
G05
G90
T01
X29.21Y-80.01
X28.575Y-78.486
X51.816Y-92.837
X49.98705Y-94.66595
X45.974Y-98.679
X41.529Y-82.042
X35.33111Y-87.08115
X56.05807Y-88.39046
X55.42945Y-87.94145
X14.859Y-77.343
X57.023Y-88.265
X13.894Y-91.2735
X50.292Y-93.472
X57.33288Y-93.726
X53.086Y-104.394
X49.53Y-92.837
X53.594Y-92.837
X57.91688Y-91.948
X52.45101Y-91.897
X57.91688Y-92.837
X6.096Y-35.052
X19.304Y-40.005
X50.27448Y-37.60952
X20.066Y-15.23505
X12.319Y-41.275
X19.05Y-18.41005
X13.93221Y-39.751
X41.021Y-13.97
X45.212Y-13.97
X48.006Y-21.59
X60.325Y-38.481
X60.198Y-39.624
X41.529Y-23.495
X54.737Y-38.862
X42.9227Y-25.146
X54.61Y-37.211
X36.52097Y-13.767
X66.47035Y-32.385
X63.881Y-24.638
X52.959Y-11.87298
X60.071Y-15.07388
X52.11521Y-23.876
X55.28412Y-44.958
X63.5Y-33.02
X63.60305Y-41.04495
X60.96Y-40.386
X59.817Y-35.687
X45.466Y-9.525
X14.605Y-91.894
X9.906Y-88.646
X13.335Y-83.439
X8.636Y-80.391
X13.208Y-77.343
X6.06405Y-67.21495
X8.128Y-66.17956
X18.07036Y-51.01764
X37.084Y-16.383
X19.45094Y-49.276
X20.193Y-22.85505
X20.193Y-42.926
X18.796Y-42.21797
X11.43Y-28.702
X6.477Y-31.75
X8.636Y-32.004
X7.366Y-48.641
X5.37489Y-62.611
X9.779Y-60.198
X52.705Y-41.91
X21.209Y-39.243
X50.292Y-39.243
X20.955Y-46.482
X21.06183Y-56.53517
X16.84849Y-54.88459
X16.88004Y-23.368
X16.002Y-54.864
X16.002Y-22.86
X64.77Y-81.18907
X57.404Y-70.358
X65.786Y-70.866
X58.674Y-82.296
X8.382Y-77.20889
X10.033Y-79.772
X9.017Y-86.741
X8.382Y-79.629
X6.223Y-83.36819
X10.6619Y-84.074
X12.00938Y-85.65362
X39.878Y-40.132
X11.938Y-86.741
X39.116Y-40.132
X60.325Y-85.725
X63.246Y-88.392
X61.6075Y-84.0105
X62.611Y-77.216
X64.516Y-73.533
X37.338Y-46.101
X44.323Y-20.447
X35.941Y-31.115
X52.705Y-14.351
X20.75107Y-58.11593
X19.431Y-59.817
X63.246Y-15.875
X47.879Y-90.297
X50.673Y-40.24808
X3.175Y-66.35902
X2.77455Y-58.43945
X5.969Y-108.458
X26.813Y-106.172
X31.75Y-105.283
X34.57595Y-104.74305
X40.132Y-106.07201
X39.243Y-107.442
X45.89501Y-107.188
X61.595Y-86.106
X59.741Y-87.3363
X59.944Y-82.296
X61.595Y-87.503
X62.357Y-84.709
X56.261Y-37.084
X54.991Y-85.979
X40.767Y-98.933
X3.683Y-90.119
X6.82993Y-65.56703
X8.99775Y-73.27921
X4.90447Y-89.992
X24.13Y-101.219
X5.44894Y-91.86809
X35.306Y-15.748
X4.2934Y-90.58624
X37.973Y-17.272
X11.176Y-41.529
X5.207Y-65.659
X65.608Y-92.456
X58.928Y-37.64788
X64.77Y-92.456
X62.96005Y-44.86295
X59.563Y-36.99789
X60.67445Y-37.68745
X40.894Y-104.775
X42.25077Y-103.4175
X39.37Y-102.87
X42.40663Y-102.311
X37.211Y-104.775
X32.004Y-101.473
X30.37582Y-103.52073
X27.305Y-104.521
X34.29Y-96.52
X28.956Y-94.742
X28.956Y-92.583
X63.754Y-2.96012
X65.008Y-3.81
X61.30905Y-3.39705
X65.405Y-2.11988
X67.14388Y-52.324
X56.134Y-35.687
X41.021Y-16.764
X43.561Y-19.177
X59.436Y-25.019
X67.945Y-51.816
X59.309Y-28.194
X49.784Y-24.384
X65.024Y-26.46319
X14.986Y-7.636
X67.44233Y-8.51433
X1.651Y-8.89
X32.512Y-106.172
X3.6429Y-107.93911
X1.51Y-59.182
X3.161Y-57.4044
X65.405Y-5.715
X67.945Y-69.215
X66.929Y-105.664
X68.834Y-90.551
X68.453Y-104.521
X37.084Y-105.791
X6.223Y-2.667
X4.17718Y-2.68082
X31.496Y-1.651
X66.167Y-0.762
X63.881Y-18.542
X67.056Y-38.938
X33.40584Y-1.51916
X30.861Y-0.889
X3.302Y-68.834
X14.51249Y-80.391
X55.118Y-40.894
X23.241Y-63.03493
X15.24Y-37.3681
X68.58Y-0.889
X11.303Y-90.64241
X20.574Y-93.98
X20.574Y-96.139
X19.685Y-94.107
X19.558Y-96.266
X17.907Y-98.806
X17.907Y-106.553
X10.668Y-94.742
X10.668Y-97.536
X63.373Y-16.891
X62.738Y-16.51
X23.241Y-58.928
X24.13Y-58.928
X24.95687Y-58.4185
X20.193Y-57.531
X19.55769Y-56.80614
X48.514Y-25.146
X52.832Y-30.988
T02
X6.31782Y-77.20889G85X7.21784Y-77.20889
X2.18801Y-77.20889G85X2.98801Y-77.20889
X2.18801Y-85.85911G85X2.98801Y-85.85911
X6.31782Y-85.85911G85X7.21784Y-85.85911
T03
X1.905Y-89.297
X1.905Y-91.297
T04
X7.112Y-5.715
X4.572Y-5.715
T05
X54.83606Y-97.028
X67.33794Y-97.028
X54.83606Y-102.108
X67.33794Y-102.108
T06
X59.0Y-6.0
X8.0Y-100.0
M30