G04 Layer: TopLayer*
G04 EasyEDA Pro v3.2.148, 2026-07-02 18:00:28*
G04 Gerber Generator version 0.3*
G04 Scale: 100 percent, Rotated: No, Reflected: No*
G04 Dimensions in millimeters*
G04 Leading zeros omitted, absolute positions, 4 integers and 5 decimals*
G04 Generated by one-click*
G04 Object Configs: Pad,Via,Track,Text,Image,Dimension,BoardOutline,BoardCutout,CopperFilled,SolidRegion,FPCStiffener,Line,PlaneZone,ComponentProperty,ComponentSilkscreen,TearDrop*
G04 Layer Configs: 1,15,16,2,3,4,5,6,7,8,9,10,11,13,14,56*
G04 Copper Areas: 0*
%FSLAX45Y45*%
%MOMM*%
%AMRect*21,1,$1,$2,0,0,$3*%
%ADD10C,0.1*%
%ADD11R,0.8X0.9*%
%ADD12R,0.5X0.54*%
%ADD13R,0.54X0.5*%
%ADD14R,1.0X1.1*%
%ADD15R,0.85001X0.65001*%
%ADD16R,0.65001X0.85001*%
%ADD17R,0.65001X1.0*%
%ADD18R,1.3845X1.13254*%
%ADD19R,1.37701X1.13254*%
%ADD20R,1.13254X1.37701*%
%ADD21R,0.54X0.56566*%
%ADD22R,1.58001X0.8*%
%ADD23C,2.0*%
%ADD24C,1.4*%
%ADD25O,0.343X1.73149*%
%ADD26R,0.4X0.3*%
%ADD27R,0.3X0.4*%
%ADD28O,0.8X0.28001*%
%ADD29O,0.28001X0.8*%
%ADD30R,0.8X0.8*%
%ADD31R,2.0X2.0*%
%ADD32O,1.9X1.0*%
%ADD33O,1.8X1.0*%
%ADD34R,1.0X0.65001*%
%ADD35R,1.157X0.48999*%
%ADD36R,1.175X0.48999*%
%ADD37R,1.9X1.3*%
%ADD38Rect,1.9X1.3X135.0*%
%ADD39Rect,1.9X1.3X45.0*%
%ADD40C,0.61*%
%ADD41C,0.254*%
%ADD42C,0.5*%
%ADD43C,0.3*%
G75*


G04 PolygonModel Start*
G54D10*
G01X1296750Y-9536150D02*
G01X366750Y-9536150D01*
G01X366750Y-9536150D02*
G01X366750Y-10466150D01*
G01X366750Y-10466150D02*
G01X1276750Y-10466150D01*
G01X1276750Y-10466150D02*
G01X1276750Y-9556150D01*
G01X1276750Y-9556150D02*
G01X386750Y-9556150D01*
G01X386750Y-9556150D02*
G01X386750Y-10446150D01*
G01X386750Y-10446150D02*
G01X1256750Y-10446150D01*
G01X1256750Y-10446150D02*
G01X1256750Y-9576150D01*
G01X1256750Y-9576150D02*
G01X406750Y-9576150D01*
G01X406750Y-9576150D02*
G01X406750Y-10426150D01*
G01X406750Y-10426150D02*
G01X1236750Y-10426150D01*
G01X1236750Y-10426150D02*
G01X1236750Y-9596150D01*
G01X1236750Y-9596150D02*
G01X426750Y-9596150D01*
G01X426750Y-9596150D02*
G01X426750Y-10406150D01*
G01X426750Y-10406150D02*
G01X1216750Y-10406150D01*
G01X1216750Y-10406150D02*
G01X1216750Y-9616150D01*
G01X1216750Y-9616150D02*
G01X446750Y-9616150D01*
G01X446750Y-9616150D02*
G01X446750Y-10386150D01*
G01X446750Y-10386150D02*
G01X1196750Y-10386150D01*
G01X1196750Y-10386150D02*
G01X1196750Y-9636150D01*
G01X1196750Y-9636150D02*
G01X466750Y-9636150D01*
G01X466750Y-9636150D02*
G01X466750Y-10366150D01*
G01X466750Y-10366150D02*
G01X1176750Y-10366150D01*
G01X1176750Y-10366150D02*
G01X1176750Y-9656150D01*
G01X1176750Y-9656150D02*
G01X486750Y-9656150D01*
G01X486750Y-9656150D02*
G01X486750Y-10346150D01*
G01X486750Y-10346150D02*
G01X1156750Y-10346150D01*
G01X1156750Y-10346150D02*
G01X1156750Y-9676150D01*
G01X1156750Y-9676150D02*
G01X506750Y-9676150D01*
G01X506750Y-9676150D02*
G01X506750Y-10326150D01*
G01X506750Y-10326150D02*
G01X1136750Y-10326150D01*
G01X1136750Y-10326150D02*
G01X1136750Y-9696150D01*
G01X1136750Y-9696150D02*
G01X526750Y-9696150D01*
G01X526750Y-9696150D02*
G01X526750Y-10306150D01*
G01X526750Y-10306150D02*
G01X1116750Y-10306150D01*
G01X1116750Y-10306150D02*
G01X1116750Y-9716150D01*

G04 Pad Start*
G54D11*
G01X6699402Y-3975100D03*
G01X6559398Y-3975100D03*
G54D12*
G01X6252312Y-4102100D03*
G01X6168288Y-4102100D03*
G54D13*
G01X6604000Y-296012D03*
G01X6604000Y-211988D03*
G54D12*
G01X6714388Y-5321300D03*
G01X6798412Y-5321300D03*
G01X6765188Y-10566400D03*
G01X6849212Y-10566400D03*
G54D13*
G01X3593799Y-10509594D03*
G01X3593799Y-10593617D03*
G54D12*
G01X511912Y-10845800D03*
G01X427888Y-10845800D03*
G54D13*
G01X190500Y-5757012D03*
G01X190500Y-5672988D03*
G01X177800Y-486512D03*
G01X177800Y-402488D03*
G01X3251200Y-59588D03*
G01X3251200Y-143612D03*
G01X990600Y-8974988D03*
G01X990600Y-9059012D03*
G54D11*
G01X6267602Y-9004300D03*
G01X6127598Y-9004300D03*
G54D12*
G01X6239612Y-8839200D03*
G01X6155588Y-8839200D03*
G54D14*
G01X1511300Y-7891005D03*
G01X1511300Y-8237995D03*
G01X1485900Y-8437105D03*
G01X1485900Y-8784095D03*
G01X1714500Y-8970505D03*
G01X1714500Y-9317495D03*
G54D15*
G01X6707499Y-290001D03*
G01X6707499Y-160004D03*
G01X6842500Y-160004D03*
G01X6842500Y-290001D03*
G01X6842500Y-5434999D03*
G01X6842500Y-5564996D03*
G01X6707499Y-5564996D03*
G01X6707499Y-5434999D03*
G01X6842500Y-10709999D03*
G01X6842500Y-10839996D03*
G01X6707499Y-10839996D03*
G01X6707499Y-10709999D03*
G01X3590499Y-10720404D03*
G01X3590499Y-10850401D03*
G01X3455498Y-10850401D03*
G01X3455498Y-10720404D03*
G54D16*
G01X290001Y-10842501D03*
G01X160004Y-10842501D03*
G01X160004Y-10707500D03*
G01X290001Y-10707500D03*
G54D15*
G01X195200Y-5565001D03*
G01X195200Y-5435004D03*
G01X330201Y-5435004D03*
G01X330201Y-5565001D03*
G54D16*
G01X290001Y-292501D03*
G01X160004Y-292501D03*
G01X160004Y-157500D03*
G01X290001Y-157500D03*
G01X3427499Y-46799D03*
G01X3557496Y-46799D03*
G01X3557496Y-181800D03*
G01X3427499Y-181800D03*
G54D17*
G01X348996Y-789000D03*
G01X159004Y-789000D03*
G01X254000Y-989000D03*
G01X6457043Y-3122138D03*
G01X6647035Y-3122138D03*
G01X6552039Y-2922138D03*
G54D19*
G01X6299200Y-827100D03*
G01X6299200Y-1027100D03*
G54D20*
G01X6716700Y-4165600D03*
G01X6516700Y-4165600D03*
G01X6716700Y-4470400D03*
G01X6516700Y-4470400D03*
G54D21*
G01X6615539Y-2559756D03*
G01X6615539Y-2646319D03*
G01X6234539Y-3103519D03*
G01X6234539Y-3016956D03*
G54D19*
G01X6477000Y-8790000D03*
G01X6477000Y-8990000D03*
G54D20*
G01X1157300Y-8902700D03*
G01X1357300Y-8902700D03*
G54D21*
G01X1193800Y-960018D03*
G01X1193800Y-1046582D03*
G54D19*
G01X990600Y-763600D03*
G01X990600Y-963600D03*
G01X6667500Y-509600D03*
G01X6667500Y-709600D03*
G54D22*
G01X4589501Y-10432212D03*
G01X5189499Y-10432212D03*
G01X4589501Y-10802188D03*
G01X5189499Y-10802188D03*
G54D23*
G01X5483606Y-9702800D03*
G01X6733794Y-9702800D03*
G01X5483606Y-10210800D03*
G01X6733794Y-10210800D03*
G54D24*
G01X190500Y-8929700D03*
G01X190500Y-9129700D03*
G54D25*
G01X5993308Y-8425624D03*
G01X5928309Y-8425624D03*
G01X5863311Y-8425624D03*
G01X5798287Y-8425624D03*
G01X5733288Y-8425624D03*
G01X5668289Y-8425624D03*
G01X5603291Y-8425624D03*
G01X5538292Y-8425624D03*
G01X5993308Y-8998775D03*
G01X5928309Y-8998775D03*
G01X5863311Y-8998775D03*
G01X5798287Y-8998775D03*
G01X5733288Y-8998775D03*
G01X5668289Y-8998775D03*
G01X5603291Y-8998775D03*
G01X5538292Y-8998775D03*
G54D26*
G01X1170965Y-9135763D03*
G01X1170965Y-9185750D03*
G01X1170965Y-9235763D03*
G54D27*
G01X1225956Y-9245745D03*
G54D26*
G01X1280973Y-9235763D03*
G01X1280973Y-9185750D03*
G01X1280973Y-9135763D03*
G54D27*
G01X1225956Y-9125755D03*
G54D28*
G01X6159195Y-3697287D03*
G01X6159195Y-3747300D03*
G01X6159195Y-3797287D03*
G01X6159195Y-3847300D03*
G01X6159195Y-3897287D03*
G54D29*
G01X6249213Y-3937292D03*
G01X6299200Y-3937292D03*
G01X6349213Y-3937292D03*
G54D28*
G01X6439205Y-3897287D03*
G01X6439205Y-3847300D03*
G01X6439205Y-3797287D03*
G01X6439205Y-3747300D03*
G01X6439205Y-3697287D03*
G54D29*
G01X6349213Y-3657308D03*
G01X6299200Y-3657308D03*
G01X6249213Y-3657308D03*
G54D30*
G01X6336144Y-2779639D03*
G01X6336144Y-2629626D03*
G54D31*
G01X711200Y-571500D03*
G54D23*
G01X457200Y-571500D03*
G54D32*
G01X676783Y-7720889D03*
G54D33*
G01X258801Y-7720889D03*
G01X258801Y-8585911D03*
G54D32*
G01X676783Y-8585911D03*
G54D34*
G01X6500800Y-666496D03*
G01X6500800Y-476504D03*
G01X6300800Y-571500D03*
G54D35*
G01X6719367Y-1149096D03*
G01X6719367Y-1054100D03*
G01X6719367Y-959104D03*
G54D36*
G01X6488633Y-959104D03*
G01X6488633Y-1149096D03*
G54D37*
G01X1780011Y-9555007D03*
G01X2619989Y-9555007D03*
G01X1780011Y-10004993D03*
G01X2619989Y-10004993D03*
G01X1780011Y-7745007D03*
G01X2619989Y-7745007D03*
G01X1780011Y-8194993D03*
G01X2619989Y-8194993D03*
G54D38*
G01X3362117Y-7513929D03*
G01X3956071Y-8107883D03*
G01X3043929Y-7832117D03*
G01X3637883Y-8426071D03*
G54D37*
G01X4380011Y-7745007D03*
G01X5219989Y-7745007D03*
G01X4380011Y-8194993D03*
G01X5219989Y-8194993D03*
G54D39*
G01X3043929Y-9917883D03*
G01X3637883Y-9323929D03*
G01X3362117Y-10236071D03*
G01X3956071Y-9642117D03*
G54D37*
G01X4380011Y-9555007D03*
G01X5219989Y-9555007D03*
G01X4380011Y-10004993D03*
G01X5219989Y-10004993D03*
G01X1780011Y-10328707D03*
G01X2619989Y-10328707D03*
G01X1780011Y-10778693D03*
G01X2619989Y-10778693D03*
G54D38*
G01X2062117Y-8413929D03*
G01X2656071Y-9007883D03*
G01X1743929Y-8732117D03*
G01X2337883Y-9326071D03*
G54D37*
G01X3080011Y-8645007D03*
G01X3919989Y-8645007D03*
G01X3080011Y-9094993D03*
G01X3919989Y-9094993D03*
G54D39*
G01X4343929Y-9007883D03*
G01X4937883Y-8413929D03*
G01X4662117Y-9326071D03*
G01X5256071Y-8732117D03*
G54D23*
G01X5900000Y-600000D03*
G01X800000Y-10000000D03*
G04 Pad End*

G04 Via Start*
G54D40*
G01X2921000Y-8001000D03*
G01X2857500Y-7848600D03*
G01X5181600Y-9283700D03*
G01X4998705Y-9466595D03*
G01X4597400Y-9867900D03*
G01X4152900Y-8204200D03*
G01X3533111Y-8708115D03*
G01X5605807Y-8839046D03*
G01X5542945Y-8794145D03*
G01X1485900Y-7734300D03*
G01X5702300Y-8826500D03*
G01X1389400Y-9127350D03*
G01X5029200Y-9347200D03*
G01X5733288Y-9372600D03*
G01X5308600Y-10439400D03*
G01X4953000Y-9283700D03*
G01X5359400Y-9283700D03*
G01X5791688Y-9194800D03*
G01X5245101Y-9189700D03*
G01X5791688Y-9283700D03*
G01X609600Y-3505200D03*
G01X1930400Y-4000500D03*
G01X5027448Y-3760952D03*
G01X2006600Y-1523505D03*
G01X1231900Y-4127500D03*
G01X1905000Y-1841005D03*
G01X1393221Y-3975100D03*
G01X4102100Y-1397000D03*
G01X4521200Y-1397000D03*
G01X4800600Y-2159000D03*
G01X6032500Y-3848100D03*
G01X6019800Y-3962400D03*
G01X4152900Y-2349500D03*
G01X5473700Y-3886200D03*
G01X4292270Y-2514600D03*
G01X5461000Y-3721100D03*
G01X3652097Y-1376700D03*
G01X6647035Y-3238500D03*
G01X6388100Y-2463800D03*
G01X5295900Y-1187298D03*
G01X6007100Y-1507388D03*
G01X5211521Y-2387600D03*
G01X5528412Y-4495800D03*
G01X6350000Y-3302000D03*
G01X6360305Y-4104495D03*
G01X6096000Y-4038600D03*
G01X5981700Y-3568700D03*
G01X4546600Y-952500D03*
G01X1460500Y-9189400D03*
G01X990600Y-8864600D03*
G01X1333500Y-8343900D03*
G01X863600Y-8039100D03*
G01X1320800Y-7734300D03*
G01X606405Y-6721495D03*
G01X812800Y-6617956D03*
G01X1807036Y-5101764D03*
G01X3708400Y-1638300D03*
G01X1945094Y-4927600D03*
G01X2019300Y-2285505D03*
G01X2019300Y-4292600D03*
G01X1879600Y-4221797D03*
G01X1143000Y-2870200D03*
G01X647700Y-3175000D03*
G01X863600Y-3200400D03*
G01X736600Y-4864100D03*
G01X537489Y-6261100D03*
G01X977900Y-6019800D03*
G01X5270500Y-4191000D03*
G01X2120900Y-3924300D03*
G01X5029200Y-3924300D03*
G01X2095500Y-4648200D03*
G01X2106183Y-5653517D03*
G01X1684849Y-5488459D03*
G01X1688004Y-2336800D03*
G01X1600200Y-5486400D03*
G01X1600200Y-2286000D03*
G01X6477000Y-8118907D03*
G01X5740400Y-7035800D03*
G01X6578600Y-7086600D03*
G01X5867400Y-8229600D03*
G01X838200Y-7720889D03*
G01X1003300Y-7977200D03*
G01X901700Y-8674100D03*
G01X838200Y-7962900D03*
G01X622300Y-8336819D03*
G01X1066190Y-8407400D03*
G01X1200938Y-8565362D03*
G01X3987800Y-4013200D03*
G01X1193800Y-8674100D03*
G01X3911600Y-4013200D03*
G01X6032500Y-8572500D03*
G01X6324600Y-8839200D03*
G01X6160750Y-8401050D03*
G01X6261100Y-7721600D03*
G01X6451600Y-7353300D03*
G01X3733800Y-4610100D03*
G01X4432300Y-2044700D03*
G01X3594100Y-3111500D03*
G01X5270500Y-1435100D03*
G01X2075107Y-5811593D03*
G01X1943100Y-5981700D03*
G01X6324600Y-1587500D03*
G01X4787900Y-9029700D03*
G01X5067300Y-4024808D03*
G01X317500Y-6635902D03*
G01X277455Y-5843945D03*
G01X596900Y-10845800D03*
G01X2681300Y-10617200D03*
G01X3175000Y-10528300D03*
G01X3457595Y-10474305D03*
G01X4013200Y-10607201D03*
G01X3924300Y-10744200D03*
G01X4589501Y-10718800D03*
G01X6159500Y-8610600D03*
G01X5974100Y-8733630D03*
G01X5994400Y-8229600D03*
G01X6159500Y-8750300D03*
G01X6235700Y-8470900D03*
G01X5626100Y-3708400D03*
G01X5499100Y-8597900D03*
G01X4076700Y-9893300D03*
G01X368300Y-9011900D03*
G01X682993Y-6556703D03*
G01X899775Y-7327921D03*
G01X490447Y-8999200D03*
G01X2413000Y-10121900D03*
G01X544894Y-9186809D03*
G01X3530600Y-1574800D03*
G01X429340Y-9058624D03*
G01X3797300Y-1727200D03*
G01X1117600Y-4152900D03*
G01X520700Y-6565900D03*
G01X6560800Y-9245600D03*
G01X5892800Y-3764788D03*
G01X6477000Y-9245600D03*
G01X6296005Y-4486295D03*
G01X5956300Y-3699789D03*
G01X6067445Y-3768745D03*
G01X4089400Y-10477500D03*
G01X4225077Y-10341750D03*
G01X3937000Y-10287000D03*
G01X4240663Y-10231100D03*
G01X3721100Y-10477500D03*
G01X3200400Y-10147300D03*
G01X3037582Y-10352073D03*
G01X2730500Y-10452100D03*
G01X3429000Y-9652000D03*
G01X2895600Y-9474200D03*
G01X2895600Y-9258300D03*
G01X6375400Y-296012D03*
G01X6500800Y-381000D03*
G01X6130905Y-339705D03*
G01X6540500Y-211988D03*
G01X6714388Y-5232400D03*
G01X5613400Y-3568700D03*
G01X4102100Y-1676400D03*
G01X4356100Y-1917700D03*
G01X5943600Y-2501900D03*
G01X6794500Y-5181600D03*
G01X5930900Y-2819400D03*
G01X4978400Y-2438400D03*
G01X6502400Y-2646319D03*
G01X1498600Y-763600D03*
G01X6744233Y-851433D03*
G01X165100Y-889000D03*
G01X3251200Y-10617200D03*
G01X364290Y-10793911D03*
G01X151000Y-5918200D03*
G01X316100Y-5740440D03*
G01X6540500Y-571500D03*
G01X6794500Y-6921500D03*
G01X6692900Y-10566400D03*
G01X6883400Y-9055100D03*
G01X6845300Y-10452100D03*
G01X3708400Y-10579100D03*
G01X622300Y-266700D03*
G01X417718Y-268082D03*
G01X3149600Y-165100D03*
G01X6616700Y-76200D03*
G01X6388100Y-1854200D03*
G01X6705600Y-3893800D03*
G01X3340584Y-151916D03*
G01X3086100Y-88900D03*
G01X330200Y-6883400D03*
G01X1451249Y-8039100D03*
G01X5511800Y-4089400D03*
G01X2324100Y-6303493D03*
G01X1524000Y-3736810D03*
G01X6858000Y-88900D03*
G01X1130300Y-9064241D03*
G01X2057400Y-9398000D03*
G01X2057400Y-9613900D03*
G01X1968500Y-9410700D03*
G01X1955800Y-9626600D03*
G01X1790700Y-9880600D03*
G01X1790700Y-10655300D03*
G01X1066800Y-9474200D03*
G01X1066800Y-9753600D03*
G01X6337300Y-1689100D03*
G01X6273800Y-1651000D03*
G01X2324100Y-5892800D03*
G01X2413000Y-5892800D03*
G01X2495687Y-5841850D03*
G01X2019300Y-5753100D03*
G01X1955769Y-5680614D03*
G01X4851400Y-2514600D03*
G01X5283200Y-3098800D03*
G04 Via End*

G04 Track Start*
G54D41*
G01X1780011Y-7745007D02*
G01X2619989Y-7745007D01*
G01X1780011Y-8194993D02*
G01X2619989Y-8194993D01*
G01X3362117Y-7513929D02*
G01X3956071Y-8107883D01*
G01X3043929Y-7832117D02*
G01X3637883Y-8426071D01*
G01X4380011Y-7745007D02*
G01X5219989Y-7745007D01*
G01X4380011Y-8194993D02*
G01X5219989Y-8194993D01*
G01X2062117Y-8413929D02*
G01X2656071Y-9007883D01*
G01X1743929Y-8732117D02*
G01X2337883Y-9326071D01*
G01X3080011Y-8645007D02*
G01X3919989Y-8645007D01*
G01X2656071Y-9007883D02*
G01X2717135Y-9007883D01*
G01X3080011Y-8645007D01*
G01X3080011Y-9094993D02*
G01X3919989Y-9094993D01*
G01X3919989Y-8645007D02*
G01X3981053Y-8645007D01*
G01X4343929Y-9007883D01*
G01X4937883Y-8413929D02*
G01X4343929Y-9007883D01*
G01X1780011Y-10004993D02*
G01X2619989Y-10004993D01*
G01X3043929Y-9917883D02*
G01X3637883Y-9323929D01*
G01X3362117Y-10236071D02*
G01X3956071Y-9642117D01*
G01X4380011Y-9555007D02*
G01X5219989Y-9555007D01*
G01X2619989Y-9555007D02*
G01X2982865Y-9917883D01*
G01X3043929Y-9917883D01*
G01X3956071Y-8107883D02*
G01X4318947Y-7745007D01*
G01X4380011Y-7745007D01*
G01X1777111Y-10328707D02*
G01X1799793Y-10328707D01*
G01X1917700Y-10210800D01*
G01X1799793Y-10328707D02*
G01X2617089Y-10328707D01*
G01X4589501Y-10432212D02*
G01X5189499Y-10432212D01*
G01X5470906Y-9702800D02*
G01X6721094Y-9702800D01*
G01X5470906Y-10210800D02*
G01X6721094Y-10210800D01*
G01X2619989Y-7745007D02*
G01X2922993Y-7745007D01*
G01X3154071Y-7513929D01*
G01X3362117Y-7513929D01*
G01X3637883Y-9323929D02*
G01X3862929Y-9323929D01*
G01X4094007Y-9555007D01*
G01X4380011Y-9555007D01*
G01X4589501Y-10802188D02*
G01X5189499Y-10802188D01*
G01X6234539Y-3103519D02*
G01X6438425Y-3103519D01*
G01X6457043Y-3122138D01*
G01X6552039Y-2922138D02*
G01X6409540Y-2779639D01*
G01X6336144Y-2779639D01*
G01X6336144Y-2629626D02*
G01X6408351Y-2557419D01*
G01X6577439Y-2557419D01*
G01X2921000Y-8001000D02*
G01X2921000Y-7955046D01*
G01X5283489Y-7745007D02*
G01X5798287Y-8259804D01*
G01X5798287Y-8400224D01*
G01X2619989Y-8194993D02*
G01X2341401Y-7916405D01*
G01X1485900Y-7916405D01*
G01X1485900Y-8437105D02*
G01X1743929Y-8695134D01*
G01X1743929Y-8732117D01*
G01X1485900Y-8784095D02*
G01X1714500Y-8970505D01*
G01X1843511Y-9555007D02*
G01X1911618Y-9486900D01*
G01X2501900Y-9486900D01*
G01X5652862Y-8267700D02*
G01X5664200Y-8279038D01*
G01X5664200Y-8396135D01*
G01X5668289Y-8400224D01*
G01X5676900Y-8216900D02*
G01X5733288Y-8273288D01*
G01X5733288Y-8425624D01*
G01X3043929Y-7832117D02*
G01X3027446Y-7848600D01*
G01X2857500Y-7848600D01*
G01X2921000Y-7955046D02*
G01X3027446Y-7848600D01*
G01X5181600Y-9283700D02*
G01X4998705Y-9466595D01*
G01X4597400Y-9867900D02*
G01X4460307Y-10004993D01*
G01X4380011Y-10004993D01*
G01X4460307Y-10004993D02*
G01X5219989Y-10004993D01*
G01X4380011Y-8194993D02*
G01X4370804Y-8204200D01*
G01X4152900Y-8204200D01*
G01X3919989Y-9094993D02*
G01X3533111Y-8708115D01*
G01X1485900Y-7916405D02*
G01X1485900Y-7734300D01*
G01X1843511Y-9555007D02*
G01X2619989Y-9555007D01*
G01X1843511Y-9555007D02*
G01X1780011Y-9555007D01*
G01X5605807Y-8839046D02*
G01X5605807Y-8996260D01*
G01X5603291Y-8998775D01*
G01X5542945Y-8794145D02*
G01X5542945Y-8994123D01*
G01X5538292Y-8998775D01*
G01X5702300Y-8826500D02*
G01X5668289Y-8860511D01*
G01X5668289Y-8998775D01*
G01X5001383Y-8413929D02*
G01X5200471Y-8413929D01*
G01X5397500Y-8216900D01*
G01X5676900Y-8216900D01*
G01X3819955Y-9245600D02*
G01X4445000Y-9245600D01*
G01X5422900Y-8267700D01*
G01X5652862Y-8267700D01*
G01X5603291Y-8425624D02*
G01X5603291Y-8318500D01*
G01X5588091Y-8303300D01*
G01X5437646Y-8303300D01*
G01X5419685Y-8321260D01*
G01X5419685Y-9573143D01*
G01X5419685Y-9832457D02*
G01X5419685Y-10159579D01*
G01X5419685Y-9573143D02*
G01X5343006Y-9649822D01*
G01X5343006Y-9755778D01*
G01X5419685Y-9832457D01*
G01X6127598Y-9004300D02*
G01X5998832Y-9004300D01*
G01X6127598Y-9004300D02*
G01X6155588Y-8976309D01*
G01X6155588Y-8839200D01*
G01X6239612Y-8839200D02*
G01X6239612Y-8976309D01*
G01X6267602Y-9004300D01*
G01X5928309Y-8425624D02*
G01X5928960Y-8424973D01*
G01X5928960Y-8293100D01*
G01X5863311Y-8293100D02*
G01X5928960Y-8293100D01*
G01X5863311Y-8293100D02*
G01X5863311Y-8425624D01*
G01X6127598Y-9004300D02*
G01X6127598Y-9131300D01*
G01X6145558Y-9149261D01*
G01X6459039Y-9149261D01*
G01X6489700Y-9118600D01*
G01X6489700Y-9002700D01*
G01X6477000Y-8990000D01*
G01X5308600Y-10439400D02*
G01X5196688Y-10439400D01*
G01X5189499Y-10432212D01*
G01X1170965Y-9235763D02*
G01X1107763Y-9235763D01*
G01X990600Y-9118600D01*
G01X990600Y-9059012D01*
G01X1066800Y-9131300D02*
G01X1066800Y-9005900D01*
G01X1121250Y-9185750D02*
G01X1066800Y-9131300D01*
G01X4953000Y-9283700D02*
G01X5105400Y-9131300D01*
G01X5270500Y-9131300D01*
G01X5733288Y-8998775D02*
G01X5733288Y-9372600D01*
G01X5029200Y-9347200D02*
G01X5186700Y-9189700D01*
G01X5245101Y-9189700D01*
G01X5791688Y-9194800D02*
G01X5867400Y-9119088D01*
G01X5867400Y-9002865D01*
G01X5863311Y-8998775D01*
G01X5270500Y-9131300D02*
G01X5303501Y-9164301D01*
G01X5303501Y-9227801D01*
G01X5359400Y-9283700D01*
G01X5791688Y-9283700D02*
G01X5928309Y-9147079D01*
G01X5928309Y-8998775D01*
G01X348996Y-789000D02*
G01X816000Y-789000D01*
G01X990600Y-963600D01*
G01X457200Y-571500D02*
G01X330200Y-571500D01*
G01X260350Y-641350D01*
G01X260350Y-982650D01*
G01X254000Y-989000D01*
G01X4102100Y-1397000D02*
G01X4521200Y-1397000D01*
G01X6032500Y-3848100D02*
G01X6158395Y-3848100D01*
G01X6159195Y-3847300D01*
G01X6019800Y-3962400D02*
G01X6224105Y-3962400D01*
G01X6249213Y-3937292D01*
G01X6647035Y-3122138D02*
G01X6647035Y-3238500D01*
G01X6252312Y-4102100D02*
G01X6252312Y-4019449D01*
G01X6349213Y-3937292D02*
G01X6349213Y-4010812D01*
G01X6504000Y-4165600D01*
G01X6168288Y-4102100D02*
G01X6168288Y-4187088D01*
G01X6203950Y-4222750D01*
G01X6446850Y-4222750D01*
G01X6504000Y-4165600D01*
G01X6584798Y-3949700D02*
G01X6504000Y-4030497D01*
G01X6504000Y-4165600D01*
G01X6504000Y-4483100D02*
G01X6504000Y-4165600D01*
G01X6439205Y-3897287D02*
G01X6491313Y-3897287D01*
G01X6553200Y-3835400D01*
G01X6769100Y-3835400D02*
G01X6553200Y-3835400D01*
G01X6439205Y-3797287D02*
G01X6477013Y-3797287D01*
G01X6540500Y-3733800D01*
G01X6769100Y-4470400D02*
G01X6716700Y-4470400D01*
G01X6540500Y-3733800D02*
G01X6807200Y-3733800D01*
G01X6299200Y-3937292D02*
G01X6299200Y-3898900D01*
G01X6350000Y-3848100D01*
G01X6438405Y-3848100D01*
G01X6439205Y-3847300D01*
G01X6159195Y-3897287D02*
G01X6199213Y-3897287D01*
G01X6248400Y-3848100D01*
G01X6350000Y-3848100D01*
G01X6252312Y-4019449D02*
G01X6299200Y-3972561D01*
G01X6299200Y-3937292D01*
G01X6439205Y-3747300D02*
G01X6349200Y-3747300D01*
G01X6248400Y-3848100D01*
G01X6159195Y-3697287D02*
G01X6110288Y-3697287D01*
G01X5981700Y-3568700D01*
G01X990600Y-8974988D02*
G01X990600Y-8864600D01*
G01X606405Y-6721495D02*
G01X711200Y-6616700D01*
G01X812800Y-6616700D01*
G01X863600Y-4737100D02*
G01X736600Y-4864100D01*
G01X863600Y-3200400D02*
G01X863600Y-4737100D01*
G01X2019300Y-4203700D02*
G01X2019300Y-4292600D01*
G01X5863311Y-8293100D02*
G01X5867400Y-8289011D01*
G01X5867400Y-8229600D01*
G01X1003300Y-7977200D02*
G01X922000Y-8058500D01*
G01X922000Y-8063290D01*
G01X901700Y-8083590D01*
G01X901700Y-8674100D01*
G01X838200Y-7962900D02*
G01X660400Y-7962900D01*
G01X622300Y-8001000D01*
G01X622300Y-8336819D01*
G01X1200938Y-8565362D02*
G01X1200938Y-8516138D01*
G01X1168400Y-8483600D01*
G01X1193800Y-8674100D02*
G01X1193800Y-8640815D01*
G01X1132800Y-8579815D01*
G01X6239612Y-8839200D02*
G01X6324600Y-8839200D01*
G01X6096000Y-8754885D02*
G01X5930900Y-8919986D01*
G01X5930900Y-8996185D01*
G01X5928309Y-8998775D01*
G01X5207000Y-3213100D02*
G01X6388100Y-3213100D01*
G01X6160750Y-8401050D02*
G01X6159500Y-8399800D01*
G01X1930400Y-4000500D02*
G01X2065000Y-3865900D01*
G01X4922500Y-3865900D01*
G01X5027448Y-3760952D01*
G01X2120900Y-3924300D02*
G01X2126762Y-3918438D01*
G01X5023338Y-3918438D01*
G01X5029200Y-3924300D01*
G01X4787900Y-9200288D02*
G01X4787900Y-9029700D01*
G01X5256071Y-8732117D02*
G01X4787900Y-9200288D01*
G01X4662117Y-9326071D01*
G01X1389400Y-9127350D02*
G01X1380987Y-9135763D01*
G01X1280973Y-9135763D01*
G01X1280973Y-9185750D02*
G01X1284623Y-9189400D01*
G01X1460500Y-9189400D01*
G01X6159500Y-8399800D02*
G01X6159500Y-4419600D01*
G01X5461000Y-3721100D01*
G01X4292270Y-2514600D02*
G01X4292270Y-2552370D01*
G01X5461000Y-3721100D01*
G01X4152900Y-2349500D02*
G01X4152900Y-2565400D01*
G01X5473700Y-3886200D01*
G01X6096000Y-4419600D02*
G01X6096000Y-8754885D01*
G01X5473700Y-3886200D02*
G01X5562600Y-3886200D01*
G01X6096000Y-4419600D01*
G01X5473700Y-3886200D02*
G01X5473700Y-3987800D01*
G01X5270500Y-4191000D01*
G01X290001Y-10842501D02*
G01X293301Y-10845800D01*
G01X3590499Y-10720404D02*
G01X3590499Y-10596917D01*
G01X3593799Y-10593617D01*
G01X4589501Y-10802188D02*
G01X4589501Y-10718800D01*
G01X6845300Y-10707199D02*
G01X6842500Y-10709999D01*
G01X6477000Y-8790000D02*
G01X6297600Y-8610600D01*
G01X6159500Y-8610600D01*
G01X5863311Y-8998775D02*
G01X5883259Y-8978827D01*
G01X5883259Y-8910691D01*
G01X5974100Y-8733630D02*
G01X5798287Y-8909443D01*
G01X5798287Y-8998775D01*
G01X5993308Y-8425624D02*
G01X5993308Y-8230692D01*
G01X5994400Y-8229600D01*
G01X5883259Y-8910691D02*
G01X6032500Y-8761450D01*
G01X6032500Y-8572500D01*
G01X6155588Y-8839200D02*
G01X6159500Y-8835288D01*
G01X6159500Y-8750300D01*
G01X6235700Y-8470900D02*
G01X6235700Y-7778790D01*
G01X6202700Y-7745790D01*
G01X6202700Y-7697410D01*
G01X5892800Y-3975100D02*
G01X5626100Y-3708400D01*
G01X5892800Y-4076700D02*
G01X5892800Y-3975100D01*
G01X6202700Y-7697410D02*
G01X6235700Y-7664410D01*
G01X6235700Y-4419600D01*
G01X5892800Y-4076700D01*
G01X5538292Y-8425624D02*
G01X5538292Y-8558708D01*
G01X5499100Y-8597900D01*
G01X1007790Y-8570681D02*
G01X1144600Y-8707491D01*
G01X899775Y-7327921D02*
G01X1061700Y-7489847D01*
G01X1061700Y-8018800D01*
G01X1007790Y-8072710D01*
G01X1007790Y-8570681D01*
G01X1393221Y-6391879D02*
G01X1393221Y-3975100D01*
G01X1447800Y-4003112D02*
G01X1451621Y-3999290D01*
G01X1451621Y-3950910D01*
G01X1447800Y-3947088D01*
G01X1447800Y-2291895D01*
G01X1600200Y-5486400D02*
G01X1600200Y-2286000D01*
G01X2565400Y-1638300D02*
G01X3708400Y-1638300D01*
G01X1529895Y-2209800D02*
G01X1447800Y-2291895D01*
G01X1892300Y-2209800D02*
G01X1529895Y-2209800D01*
G01X2527300Y-1574800D02*
G01X1892300Y-2209800D01*
G01X3530600Y-1574800D02*
G01X2527300Y-1574800D01*
G01X376701Y-7294099D02*
G01X1231900Y-6438900D01*
G01X2006600Y-1523505D02*
G01X1231900Y-2298205D01*
G01X1231900Y-4127500D01*
G01X1231900Y-6438900D02*
G01X1231900Y-4127500D01*
G01X1393221Y-2296128D02*
G01X1393221Y-3975100D01*
G01X1905000Y-1841005D02*
G01X1848345Y-1841005D01*
G01X1393221Y-2296128D01*
G01X1295400Y-6426200D02*
G01X1295400Y-2311400D01*
G01X3713500Y-1516400D02*
G01X3797300Y-1600200D01*
G01X3797300Y-1727200D01*
G01X1295400Y-2311400D02*
G01X1841500Y-1765300D01*
G01X2247900Y-1765300D01*
G01X2496800Y-1516400D01*
G01X3713500Y-1516400D01*
G01X2019300Y-2285505D02*
G01X1872000Y-2432805D01*
G01X1872000Y-4056400D01*
G01X2019300Y-4203700D01*
G01X1807036Y-5101764D02*
G01X1821200Y-5087600D01*
G01X1821200Y-2382500D01*
G01X2565400Y-1638300D01*
G01X537489Y-6261100D02*
G01X537489Y-6168111D01*
G01X685800Y-6019800D01*
G01X977900Y-6019800D01*
G01X6168288Y-4102100D02*
G01X6104788Y-4038600D01*
G01X6096000Y-4038600D01*
G01X5943600Y-4051300D02*
G01X5943600Y-3815588D01*
G01X5892800Y-3764788D01*
G01X5956300Y-3699789D02*
G01X5998489Y-3699789D01*
G01X6064581Y-3765881D01*
G01X6252312Y-4102100D02*
G01X6254707Y-4104495D01*
G01X6360305Y-4104495D01*
G01X6362700Y-6953290D02*
G01X6362700Y-4470400D01*
G01X5943600Y-4051300D01*
G01X6296005Y-6981805D02*
G01X6296005Y-4486295D01*
G01X5998832Y-9004300D02*
G01X5993308Y-8998775D01*
G01X3416300Y-10388600D02*
G01X3632200Y-10172700D01*
G01X5432806Y-10172700D01*
G01X5419685Y-10159579D02*
G01X5432806Y-10172700D01*
G01X5470906Y-10210800D02*
G01X5432806Y-10172700D01*
G01X3995400Y-10228600D02*
G01X3937000Y-10287000D01*
G01X4240663Y-10231100D02*
G01X4238163Y-10228600D01*
G01X3995400Y-10228600D01*
G01X1917700Y-10210800D02*
G01X2984500Y-10210800D01*
G01X3162300Y-10388600D01*
G01X3416300Y-10388600D01*
G01X3037582Y-10352073D02*
G01X3045442Y-10352073D01*
G01X3158169Y-10464800D02*
G01X3045442Y-10352073D01*
G01X3457595Y-10474305D02*
G01X3448090Y-10464800D01*
G01X3158169Y-10464800D01*
G01X3781855Y-9207500D02*
G01X3819955Y-9245600D01*
G01X2501900Y-9486900D02*
G01X2800907Y-9187893D01*
G01X3676093Y-9187893D01*
G01X3695700Y-9207500D01*
G01X3781855Y-9207500D01*
G01X3956071Y-9642117D02*
G01X3438883Y-9642117D01*
G01X3429000Y-9652000D01*
G01X2895600Y-9474200D02*
G01X2895600Y-9258300D01*
G01X6719367Y-1149096D02*
G01X6676770Y-1106500D01*
G01X6649961Y-1106500D01*
G01X6633617Y-1090156D01*
G01X6633617Y-1018044D01*
G01X6649961Y-1001700D01*
G01X6676770Y-1001700D01*
G01X6719367Y-959104D01*
G01X6500800Y-476504D02*
G01X6500800Y-381000D01*
G01X6488633Y-959104D02*
G01X6407937Y-1039800D01*
G01X6299200Y-1039800D01*
G54D42*
G01X6482537Y-1143000D02*
G01X6488633Y-1149096D01*
G54D41*
G01X6500800Y-666496D02*
G01X6597396Y-666496D01*
G01X6654800Y-723900D01*
G01X6727000Y-150904D02*
G01X6715796Y-139700D01*
G01X6413500Y-139700D01*
G01X6604000Y-211988D02*
G01X6540500Y-211988D01*
G01X6604000Y-296012D02*
G01X6519012Y-381000D01*
G01X6500800Y-381000D01*
G01X6716700Y-4165600D02*
G01X6794500Y-4087800D01*
G01X6794500Y-3860800D01*
G01X6769100Y-3835400D01*
G01X6832600Y-4406900D02*
G01X6769100Y-4470400D01*
G01X6388100Y-3213100D02*
G01X6832600Y-3657600D01*
G01X6832600Y-3759200D01*
G01X6807200Y-3733800D02*
G01X6832600Y-3759200D01*
G01X6832600Y-4406900D01*
G01X6714388Y-5321300D02*
G01X6714388Y-5232400D01*
G01X6707499Y-10709999D02*
G01X6627401Y-10629900D01*
G01X4203700Y-10629900D02*
G01X6627401Y-10629900D01*
G01X3775812Y-10845800D02*
G01X3877412Y-10744200D01*
G01X3924300Y-10744200D01*
G01X990600Y-963600D02*
G01X1190219Y-963600D01*
G01X1193800Y-960018D01*
G01X1193800Y-1046582D02*
G01X1582318Y-1435100D01*
G01X3860800Y-1435100D01*
G01X4095750Y-1670050D01*
G01X4356100Y-2051090D02*
G01X4356100Y-1917700D01*
G54D42*
G01X5943600Y-2501900D02*
G01X6488633Y-1956867D01*
G01X6488633Y-1149096D01*
G54D41*
G01X6578600Y-978065D02*
G01X6667500Y-889165D01*
G01X6578600Y-1981200D02*
G01X6578600Y-978065D01*
G01X4711700Y-2406690D02*
G01X4356100Y-2051090D01*
G01X4432300Y-2044700D02*
G01X4762500Y-2374900D01*
G01X4762500Y-2768600D01*
G01X5207000Y-3213100D01*
G01X4711700Y-2781300D02*
G01X4711700Y-2406690D01*
G01X5499100Y-3568700D02*
G01X4711700Y-2781300D01*
G01X5613400Y-3568700D02*
G01X5499100Y-3568700D01*
G01X6667500Y-889165D02*
G01X6667500Y-709600D01*
G01X6731000Y-1259269D02*
G01X6731000Y-1917700D01*
G01X6719367Y-1054100D02*
G01X6755288Y-1054100D01*
G01X6807200Y-1106013D01*
G01X6807200Y-1183069D01*
G01X6731000Y-1259269D01*
G01X4800600Y-2159000D02*
G01X4876800Y-2235200D01*
G01X4876800Y-2425700D01*
G01X5468056Y-3016956D01*
G01X6234539Y-3016956D01*
G01X5930900Y-2819400D02*
G01X5930900Y-2628900D01*
G01X6578600Y-1981200D01*
G01X6731000Y-1917700D02*
G01X5994400Y-2654300D01*
G01X5994400Y-2946400D02*
G01X5994400Y-2654300D01*
G01X5486400Y-2946400D02*
G01X5994400Y-2946400D01*
G01X4978400Y-2438400D02*
G01X5486400Y-2946400D01*
G01X6413500Y-139700D02*
G01X6197600Y-355600D01*
G01X6197600Y-635000D01*
G01X6299200Y-736600D01*
G01X6299200Y-827100D01*
G01X6615539Y-2646319D02*
G01X6502400Y-2646319D01*
G01X990600Y-763600D02*
G01X1498600Y-763600D01*
G01X6719367Y-959104D02*
G01X6719367Y-876300D01*
G01X6744233Y-851433D01*
G01X177800Y-486512D02*
G01X177800Y-770204D01*
G01X159004Y-789000D01*
G01X165100Y-795096D01*
G01X165100Y-889000D01*
G54D42*
G01X542188Y-402488D02*
G01X711200Y-571500D01*
G54D41*
G01X6500800Y-476504D02*
G01X6634404Y-476504D01*
G01X6667500Y-509600D01*
G01X6757143Y-5649897D02*
G01X6696743Y-5589496D01*
G01X6676200Y-5589496D01*
G01X6676200Y-5653608D01*
G01X4203700Y-10629900D02*
G01X3920699Y-10912901D01*
G01X6598994Y-10948501D02*
G01X6707499Y-10839996D01*
G01X3920699Y-10912901D02*
G01X3661201Y-10912901D01*
G01X3590801Y-10842501D01*
G01X3544401Y-10948501D02*
G01X6598994Y-10948501D01*
G01X3455498Y-10850401D02*
G01X3455498Y-10859598D01*
G01X3544401Y-10948501D01*
G01X99603Y-10896558D02*
G01X99603Y-10788443D01*
G01X160004Y-10728043D01*
G01X160004Y-10707500D01*
G01X151547Y-10948501D02*
G01X99603Y-10896558D01*
G01X511912Y-10845800D02*
G01X596900Y-10845800D01*
G01X3455498Y-10850401D02*
G01X3419577Y-10850401D01*
G01X3321478Y-10948501D01*
G01X151547Y-10948501D01*
G01X3455498Y-10720404D02*
G01X3455498Y-10735944D01*
G01X427888Y-10845800D02*
G01X427888Y-10824312D01*
G01X6605799Y-5484601D02*
G01X6605799Y-5633553D01*
G01X6676200Y-5434999D02*
G01X6655401Y-5434999D01*
G01X6605799Y-5484601D01*
G01X6807200Y-5455498D02*
G01X6811201Y-5451498D01*
G01X6868304Y-5564996D02*
G01X6842500Y-5564996D01*
G01X6885003Y-5649897D02*
G01X6757143Y-5649897D01*
G01X6823901Y-372300D02*
G01X6912901Y-461301D01*
G01X6912901Y-5520399D01*
G01X6868304Y-5564996D01*
G01X6862001Y-280901D02*
G01X6823901Y-319001D01*
G01X6823901Y-372300D01*
G01X6794500Y-5181600D02*
G01X6794500Y-5317388D01*
G01X6798412Y-5321300D01*
G01X6300800Y-571500D02*
G01X6540500Y-571500D01*
G01X6727000Y-280901D02*
G01X6680346Y-280901D01*
G01X6611434Y-211988D01*
G01X6604000Y-211988D01*
G01X6957328Y-5577572D02*
G01X6885003Y-5649897D01*
G01X6842500Y-160004D02*
G01X6957328Y-274831D01*
G01X6957328Y-5577572D01*
G01X6807200Y-5455498D02*
G01X6807200Y-5325212D01*
G01X6912901Y-10769595D02*
G01X6842500Y-10839996D01*
G01X6912901Y-9198901D02*
G01X6912901Y-10769595D01*
G01X6676200Y-5653608D02*
G01X6957328Y-5934737D01*
G01X6957328Y-10782426D01*
G01X6707499Y-10839996D02*
G01X6728043Y-10839996D01*
G01X6912901Y-10884053D02*
G01X6912901Y-10826853D01*
G01X6957328Y-10782426D01*
G01X6728043Y-10839996D02*
G01X6810047Y-10922000D01*
G01X6874955Y-10922000D01*
G01X6912901Y-10884053D01*
G01X6765188Y-10566400D02*
G01X6692900Y-10566400D01*
G01X6845300Y-10562488D02*
G01X6849212Y-10566400D01*
G01X6845300Y-10562488D02*
G01X6845300Y-10452100D01*
G01X6845300Y-10562488D02*
G01X6845300Y-10707199D01*
G01X3593799Y-10509594D02*
G01X3638894Y-10509594D01*
G01X3708400Y-10579100D01*
G01X160004Y-292501D02*
G01X88900Y-363605D01*
G01X88900Y-895390D01*
G01X152400Y-958890D01*
G01X417718Y-268082D02*
G01X307136Y-157500D01*
G01X290001Y-157500D01*
G01X6311819Y-76200D02*
G01X6616700Y-76200D01*
G01X6316556Y-3725208D02*
G01X6231857Y-3725208D01*
G01X6203937Y-3697287D01*
G01X6159195Y-3697287D01*
G01X6349213Y-3657308D02*
G01X6349213Y-3692551D01*
G01X6316556Y-3725208D01*
G01X6699402Y-3975100D02*
G01X6705600Y-3968902D01*
G01X6705600Y-3893800D01*
G01X3251200Y-143612D02*
G01X3258634Y-143612D01*
G01X3149600Y-165100D02*
G01X3229712Y-165100D01*
G01X3251200Y-143612D01*
G01X3331306Y-70939D02*
G01X3424639Y-70939D01*
G01X3258634Y-143612D02*
G01X3331306Y-70939D01*
G01X3115412Y-59588D02*
G01X3086100Y-88900D01*
G01X3251200Y-59588D02*
G01X3115412Y-59588D01*
G01X1498417Y-8424589D02*
G01X1485900Y-8437105D01*
G01X1485900Y-8263395D02*
G01X1498417Y-8263395D01*
G01X1498417Y-8424589D01*
G01X1451249Y-7975410D02*
G01X1451249Y-8039100D01*
G01X1320800Y-7734300D02*
G01X1320800Y-7844962D01*
G01X1451249Y-7975410D01*
G01X6842500Y-160004D02*
G01X6870700Y-131804D01*
G01X6870700Y-101600D01*
G01X6858000Y-88900D01*
G01X427888Y-10824312D02*
G01X406400Y-10845800D01*
G01X427888Y-10845800D02*
G01X406400Y-10845800D01*
G01X393700Y-10845800D01*
G01X293301Y-10845800D01*
G01X1066800Y-9005900D02*
G01X1144600Y-8928100D01*
G01X1170965Y-9185750D02*
G01X1121250Y-9185750D01*
G01X1233073Y-9118639D02*
G01X1225956Y-9125755D01*
G01X1357300Y-8609000D02*
G01X1206500Y-8458200D01*
G01X1357300Y-8942400D02*
G01X1233073Y-9066627D01*
G01X1233073Y-9118639D01*
G01X393700Y-10845800D02*
G01X350402Y-10802502D01*
G01X1447800Y-4003112D02*
G01X1447800Y-6400800D01*
G01X1714500Y-8970505D02*
G01X2057400Y-9313405D01*
G01X2057400Y-9398000D01*
G01X2057400Y-9613900D02*
G01X2057400Y-9727604D01*
G01X1780011Y-10004993D01*
G01X1714500Y-9317495D02*
G01X1875295Y-9317495D01*
G01X1968500Y-9410700D01*
G01X160004Y-10707500D02*
G01X50800Y-10598296D01*
G01X1447800Y-6400800D02*
G01X553815Y-7294785D01*
G01X290001Y-10707500D02*
G01X274462Y-10707500D01*
G01X92600Y-10525638D01*
G01X1357300Y-8942400D02*
G01X1357300Y-8902700D01*
G01X1357300Y-8609000D01*
G01X1144600Y-8707491D02*
G01X1144600Y-8928100D01*
G01X1170965Y-9142850D02*
G01X1130300Y-9102184D01*
G01X1130300Y-9064241D01*
G01X368300Y-9011900D02*
G01X376701Y-9003500D01*
G01X376701Y-7294099D01*
G01X429340Y-9058624D02*
G01X429340Y-7292260D01*
G01X1295400Y-6426200D01*
G01X350402Y-10802502D02*
G01X358993Y-10793911D01*
G01X364290Y-10793911D01*
G01X553815Y-9177888D02*
G01X544894Y-9186809D01*
G01X553815Y-9177888D02*
G01X553815Y-7294785D01*
G01X1955800Y-9626600D02*
G01X1955800Y-9715500D01*
G01X1790700Y-9880600D01*
G01X1790700Y-10655300D02*
G01X1790700Y-10768004D01*
G01X1780011Y-10778693D01*
G01X2619989Y-10778693D01*
G54D10*
G01X1066800Y-9753600D02*
G01X1104900Y-9715500D01*
G01X1117600Y-9715500D01*
G01X1225956Y-9245745D02*
G01X1225956Y-9315044D01*
G01X1066800Y-9474200D01*
G01X1280973Y-9235763D02*
G01X1295400Y-9250190D01*
G01X1295400Y-9537700D01*
G54D41*
G01X4089400Y-10477500D02*
G01X4225077Y-10341823D01*
G01X2768600Y-266700D02*
G01X622300Y-266700D01*
G01X3073400Y38100D02*
G01X2784199Y-251101D01*
G01X2783346Y-302300D02*
G01X669291Y-302300D01*
G01X646490Y-325100D01*
G01X598110Y-325100D01*
G01X3479056Y-286701D02*
G01X2798945Y-286701D01*
G01X2783346Y-302300D01*
G01X6095919Y-292100D02*
G01X6311819Y-76200D01*
G01X3549857Y-215900D02*
G01X3479056Y-286701D01*
G01X3564996Y-216301D02*
G01X3565397Y-215900D01*
G01X3549857Y-215900D01*
G01X3564996Y-216301D02*
G01X3564996Y-292100D01*
G01X6095919Y-292100D01*
G01X323810Y-50800D02*
G01X206043Y-50800D01*
G01X323810Y-50800D02*
G01X598110Y-325100D01*
G01X160004Y-96839D02*
G01X160004Y-157500D01*
G01X160004Y-96839D02*
G01X206043Y-50800D01*
G01X3326311Y-166189D02*
G01X3340584Y-151916D01*
G01X3434999Y-216301D02*
G01X3351710Y-216300D01*
G01X3326311Y-190900D01*
G01X3326311Y-166189D01*
G01X3564996Y-34396D02*
G01X3492500Y38100D01*
G01X3073400Y38100D01*
G01X152400Y-4470400D02*
G01X152400Y-958890D01*
G01X330201Y-5435004D02*
G01X279400Y-5384203D01*
G01X279400Y-5295900D01*
G01X261439Y-5277939D01*
G01X127000Y-5277939D01*
G01X50800Y-5575300D02*
G01X50800Y-10598296D01*
G01X127000Y-5277939D02*
G01X76200Y-5328739D01*
G01X76200Y-5549900D01*
G01X50800Y-5575300D01*
G01X195200Y-5435004D02*
G01X111800Y-5518403D01*
G01X111800Y-5564646D01*
G01X92600Y-5583846D01*
G01X92600Y-10525638D01*
G01X195200Y-5565001D02*
G01X195200Y-5664988D01*
G01X277455Y-5843945D02*
G01X190521Y-5757012D01*
G01X135600Y-5720455D02*
G01X135600Y-5793568D01*
G01X151000Y-5808969D01*
G01X151000Y-5918200D01*
G01X190500Y-5672988D02*
G01X183066Y-5672988D01*
G01X135600Y-5720455D01*
G01X444500Y-4762500D02*
G01X152400Y-4470400D01*
G01X330201Y-5565001D02*
G01X444500Y-5450702D01*
G01X444500Y-4762500D01*
G01X490447Y-8999200D02*
G01X490447Y-7294653D01*
G01X1393221Y-6391879D01*
G01X3594100Y-3111500D02*
G01X3594100Y-2298700D01*
G01X4432300Y-1460500D01*
G01X5245100Y-1460500D01*
G01X5270500Y-1435100D01*
G01X6500800Y-381000D02*
G01X6415811Y-296012D01*
G01X6375400Y-296012D01*
G01X3733800Y-4714392D02*
G01X3733800Y-4610100D01*
G01X1206500Y-8458200D02*
G01X1206500Y-7241692D01*
G01X3733800Y-4714392D01*
G01X1684849Y-5488459D02*
G01X1688004Y-5485304D01*
G01X1688004Y-2336800D01*
G01X2095500Y-4648200D02*
G01X2106183Y-4658883D01*
G01X2106183Y-5653517D01*
G01X1132800Y-8579815D02*
G01X1132800Y-6906300D01*
G01X3911600Y-4127500D01*
G01X3911600Y-4013200D01*
G01X1168400Y-8483600D02*
G01X1168400Y-6921500D01*
G01X3987800Y-4102100D01*
G01X3987800Y-4013200D01*
G01X2075107Y-5811593D02*
G01X1943100Y-5943600D01*
G01X1943100Y-5981700D01*
G54D42*
G01X290001Y-292501D02*
G01X290001Y-344999D01*
G01X232512Y-402488D01*
G01X180013Y-402488D02*
G01X232512Y-402488D01*
G01X542188Y-402488D01*
G01X6184900Y-1143000D02*
G01X6482537Y-1143000D01*
G01X6130905Y-339705D02*
G01X6083300Y-387309D01*
G01X6083300Y-1041400D01*
G01X6184900Y-1143000D01*
G54D41*
G01X6477000Y-9245600D02*
G01X6573751Y-9148849D01*
G01X6573751Y-7259551D01*
G01X6296005Y-6981805D01*
G01X6560800Y-9245600D02*
G01X6609351Y-9197050D01*
G01X6609351Y-7199941D01*
G01X6362700Y-6953290D01*
G01X6605799Y-5633553D02*
G01X6644950Y-5672705D01*
G01X6644950Y-8930950D01*
G01X6912901Y-9198901D01*
G54D42*
G01X6794500Y-6921500D02*
G01X6698303Y-7017697D01*
G01X6698303Y-8870003D01*
G01X6883400Y-9055100D01*
G54D41*
G01X3721100Y-10477500D02*
G01X3850801Y-10607201D01*
G01X4013200Y-10607201D01*
G54D42*
G01X6845300Y-10452100D02*
G01X6819900Y-10477500D01*
G01X6699210Y-10477500D01*
G01X6681010Y-10495700D01*
G01X6663615Y-10495700D01*
G01X6622200Y-10537115D01*
G01X6622200Y-10554510D01*
G01X6594709Y-10582000D01*
G01X4183859Y-10582000D01*
G01X4090259Y-10675600D01*
G01X4044785Y-10675600D01*
G01X3955685Y-10675600D02*
G01X3953585Y-10673500D01*
G01X3981615Y-10675600D02*
G01X3955685Y-10675600D01*
G01X3637404Y-10673500D02*
G01X3590499Y-10720404D01*
G01X3637404Y-10673500D02*
G01X3953585Y-10673500D01*
G01X4044785Y-10675600D02*
G01X4042485Y-10677901D01*
G01X3983915Y-10677901D01*
G01X3981615Y-10675600D01*
G54D41*
G01X3455498Y-10735944D02*
G01X3278541Y-10912901D01*
G01X230405Y-10912901D01*
G01X160004Y-10842501D01*
G54D43*
G01X427888Y-10798912D02*
G01X464800Y-10762000D01*
G01X627400Y-10762000D01*
G01X717301Y-10851901D01*
G01X3168899Y-10851901D02*
G01X3454400Y-10566400D01*
G01X3591982Y-10566400D01*
G01X3593799Y-10568217D01*
G01X427888Y-10824312D02*
G01X427888Y-10798912D01*
G01X3593799Y-10568217D02*
G01X3593799Y-10593617D01*
G01X717301Y-10851901D02*
G01X1654811Y-10851901D01*
G01X1654811Y-10856202D01*
G01X1672502Y-10873893D01*
G01X1887520Y-10873893D01*
G01X1905211Y-10856202D01*
G01X1905211Y-10851901D01*
G01X2494789Y-10851901D01*
G01X2494789Y-10856202D01*
G01X2512480Y-10873893D01*
G01X2727498Y-10873893D01*
G01X2745189Y-10856202D01*
G01X2745189Y-10851901D01*
G01X3168899Y-10851901D01*
G54D41*
G01X4851400Y-2514600D02*
G01X5283200Y-2946400D01*
G01X5283200Y-3098800D01*
G04 Track End*

M02*

