G04 Layer: InnerLayer2*
G04 EasyEDA Pro v3.2.148, 2026-07-02 18:00:28*
G04 Gerber Generator version 0.3*
G04 Scale: 100 percent, Rotated: No, Reflected: No*
G04 Dimensions in millimeters*
G04 Leading zeros omitted, absolute positions, 4 integers and 5 decimals*
G04 Generated by one-click*
G04 Object Configs: Pad,Via,Track,Text,Image,Dimension,BoardOutline,BoardCutout,CopperFilled,SolidRegion,FPCStiffener,Line,PlaneZone,ComponentProperty,ComponentSilkscreen,TearDrop*
G04 Layer Configs: 1,15,16,2,3,4,5,6,7,8,9,10,11,13,14,56*
G04 Copper Areas: 20*
%FSLAX45Y45*%
%MOMM*%
%ADD10C,0.2032*%
%ADD11C,0.254*%
%ADD12C,2.0*%
%ADD13C,1.4*%
%ADD14R,2.0X2.0*%
%ADD15O,1.9X1.0*%
%ADD16O,1.8X1.0*%
%ADD17C,0.6167*%
%ADD18C,0.61*%
G75*


G04 Copper Start*
G36*
G01X5250000Y-35814D02*
G01X6564102Y-35814D01*
G01X6555817Y-49917D01*
G01X6551235Y-65620D01*
G01X6550637Y-81966D01*
G01X6554058Y-97961D01*
G01X6561290Y-112632D01*
G01X6571894Y-125087D01*
G01X6585223Y-134568D01*
G01X6600468Y-140497D01*
G01X6616700Y-142514D01*
G01X6632932Y-140497D01*
G01X6648177Y-134568D01*
G01X6661506Y-125087D01*
G01X6672110Y-112632D01*
G01X6679342Y-97961D01*
G01X6682763Y-81966D01*
G01X6682165Y-65620D01*
G01X6677583Y-49917D01*
G01X6669298Y-35814D01*
G01X6800000Y-35814D01*
G01X6817093Y-36706D01*
G01X6806616Y-46981D01*
G01X6798654Y-59308D01*
G01X6793599Y-73085D01*
G01X6791698Y-87636D01*
G01X6793043Y-102249D01*
G01X6797570Y-116208D01*
G01X6805055Y-128830D01*
G01X6815133Y-139497D01*
G01X6827311Y-147685D01*
G01X6840991Y-152996D01*
G01X6855504Y-155167D01*
G01X6870140Y-154093D01*
G01X6884181Y-149827D01*
G01X6896939Y-142578D01*
G01X6907791Y-132699D01*
G01X6916205Y-120676D01*
G01X6921769Y-107097D01*
G01X6924209Y-92627D01*
G01X6938218Y-111384D01*
G01X6949416Y-131943D01*
G01X6957577Y-153886D01*
G01X6962534Y-176767D01*
G01X6964186Y-200120D01*
G01X6964186Y-10800000D01*
G01X6962165Y-10825684D01*
G01X6956150Y-10850736D01*
G01X6946291Y-10874539D01*
G01X6932829Y-10896506D01*
G01X6916097Y-10916097D01*
G01X6896506Y-10932829D01*
G01X6874539Y-10946291D01*
G01X6850736Y-10956150D01*
G01X6825684Y-10962165D01*
G01X6800000Y-10964186D01*
G01X200000Y-10964186D01*
G01X174316Y-10962165D01*
G01X149264Y-10956150D01*
G01X125461Y-10946291D01*
G01X103494Y-10932829D01*
G01X83903Y-10916097D01*
G01X67171Y-10896506D01*
G01X53709Y-10874539D01*
G01X43850Y-10850736D01*
G01X37835Y-10825684D01*
G01X35814Y-10800000D01*
G01X35814Y-10720300D01*
G01X115086Y-10720300D01*
G01X116481Y-10725507D01*
G01X120293Y-10729319D01*
G01X125500Y-10730714D01*
G01X344197Y-10730714D01*
G01X329969Y-10737169D01*
G01X317646Y-10746773D01*
G01X307912Y-10758994D01*
G01X301308Y-10773153D01*
G01X298200Y-10788464D01*
G01X298759Y-10804077D01*
G01X302957Y-10819126D01*
G01X310558Y-10832776D01*
G01X321142Y-10844268D01*
G01X334121Y-10852965D01*
G01X348775Y-10858384D01*
G01X364290Y-10860225D01*
G01X379804Y-10858384D01*
G01X394458Y-10852965D01*
G01X407437Y-10844268D01*
G01X418021Y-10832776D01*
G01X425622Y-10819126D01*
G01X429820Y-10804077D01*
G01X430380Y-10788464D01*
G01X427271Y-10773153D01*
G01X420667Y-10758994D01*
G01X410933Y-10746773D01*
G01X398610Y-10737169D01*
G01X384383Y-10730714D01*
G01X1525500Y-10730714D01*
G01X1525500Y-10730714D01*
G01X1530707Y-10729319D01*
G01X1534519Y-10725507D01*
G01X1535914Y-10720300D01*
G01X1535914Y-10655300D01*
G01X1724386Y-10655300D01*
G01X1726313Y-10671170D01*
G01X1731982Y-10686118D01*
G01X1741063Y-10699274D01*
G01X1753029Y-10709875D01*
G01X1767185Y-10717305D01*
G01X1782707Y-10721131D01*
G01X1798693Y-10721131D01*
G01X1814215Y-10717305D01*
G01X1828371Y-10709875D01*
G01X1840337Y-10699274D01*
G01X1849418Y-10686118D01*
G01X1855087Y-10671170D01*
G01X1857014Y-10655300D01*
G01X1855087Y-10639430D01*
G01X1849418Y-10624482D01*
G01X1844392Y-10617200D01*
G01X3184886Y-10617200D01*
G01X3186813Y-10633070D01*
G01X3192482Y-10648018D01*
G01X3201563Y-10661174D01*
G01X3213529Y-10671775D01*
G01X3227685Y-10679205D01*
G01X3243207Y-10683031D01*
G01X3259193Y-10683031D01*
G01X3274715Y-10679205D01*
G01X3288871Y-10671775D01*
G01X3300837Y-10661174D01*
G01X3309918Y-10648018D01*
G01X3315587Y-10633070D01*
G01X3317514Y-10617200D01*
G01X3316300Y-10607201D01*
G01X3946886Y-10607201D01*
G01X3948813Y-10623071D01*
G01X3954482Y-10638018D01*
G01X3963563Y-10651175D01*
G01X3975529Y-10661776D01*
G01X3989685Y-10669205D01*
G01X4005207Y-10673031D01*
G01X4021193Y-10673031D01*
G01X4036715Y-10669205D01*
G01X4050871Y-10661776D01*
G01X4062837Y-10651175D01*
G01X4071918Y-10638018D01*
G01X4077587Y-10623071D01*
G01X4079514Y-10607201D01*
G01X4077587Y-10591331D01*
G01X4071918Y-10576383D01*
G01X4062837Y-10563226D01*
G01X4050871Y-10552625D01*
G01X4036715Y-10545196D01*
G01X4021193Y-10541370D01*
G01X4005207Y-10541370D01*
G01X3989685Y-10545196D01*
G01X3975529Y-10552625D01*
G01X3963563Y-10563226D01*
G01X3954482Y-10576383D01*
G01X3948813Y-10591331D01*
G01X3946886Y-10607201D01*
G01X3946886Y-10607201D01*
G01X3316300Y-10607201D01*
G01X3315587Y-10601330D01*
G01X3309918Y-10586382D01*
G01X3300837Y-10573226D01*
G01X3288871Y-10562625D01*
G01X3274715Y-10555195D01*
G01X3259193Y-10551369D01*
G01X3243207Y-10551369D01*
G01X3227685Y-10555195D01*
G01X3213529Y-10562625D01*
G01X3201563Y-10573226D01*
G01X3192482Y-10586382D01*
G01X3186813Y-10601330D01*
G01X3184886Y-10617200D01*
G01X3184886Y-10617200D01*
G01X1844392Y-10617200D01*
G01X1840337Y-10611326D01*
G01X1828371Y-10600725D01*
G01X1814215Y-10593295D01*
G01X1798693Y-10589469D01*
G01X1782707Y-10589469D01*
G01X1767185Y-10593295D01*
G01X1753029Y-10600725D01*
G01X1741063Y-10611326D01*
G01X1731982Y-10624482D01*
G01X1726313Y-10639430D01*
G01X1724386Y-10655300D01*
G01X1724386Y-10655300D01*
G01X1535914Y-10655300D01*
G01X1535914Y-10452100D01*
G01X2664186Y-10452100D01*
G01X2666113Y-10467970D01*
G01X2671782Y-10482918D01*
G01X2680863Y-10496074D01*
G01X2692829Y-10506675D01*
G01X2706985Y-10514105D01*
G01X2722507Y-10517931D01*
G01X2738493Y-10517931D01*
G01X2754015Y-10514105D01*
G01X2768171Y-10506675D01*
G01X2780137Y-10496074D01*
G01X2789218Y-10482918D01*
G01X2792485Y-10474305D01*
G01X3391281Y-10474305D01*
G01X3393208Y-10490175D01*
G01X3398877Y-10505123D01*
G01X3407958Y-10518279D01*
G01X3419924Y-10528880D01*
G01X3434080Y-10536310D01*
G01X3449602Y-10540135D01*
G01X3465588Y-10540135D01*
G01X3481110Y-10536310D01*
G01X3495266Y-10528880D01*
G01X3507232Y-10518279D01*
G01X3516313Y-10505123D01*
G01X3521982Y-10490175D01*
G01X3523521Y-10477500D01*
G01X3654786Y-10477500D01*
G01X3656713Y-10493370D01*
G01X3662382Y-10508318D01*
G01X3671463Y-10521474D01*
G01X3683429Y-10532075D01*
G01X3697585Y-10539505D01*
G01X3713107Y-10543331D01*
G01X3729093Y-10543331D01*
G01X3744615Y-10539505D01*
G01X3758771Y-10532075D01*
G01X3770737Y-10521474D01*
G01X3779818Y-10508318D01*
G01X3785487Y-10493370D01*
G01X3787414Y-10477500D01*
G01X4023086Y-10477500D01*
G01X4025013Y-10493370D01*
G01X4030682Y-10508318D01*
G01X4039763Y-10521474D01*
G01X4051729Y-10532075D01*
G01X4065885Y-10539505D01*
G01X4081407Y-10543331D01*
G01X4097393Y-10543331D01*
G01X4112915Y-10539505D01*
G01X4127071Y-10532075D01*
G01X4139037Y-10521474D01*
G01X4148118Y-10508318D01*
G01X4153787Y-10493370D01*
G01X4155714Y-10477500D01*
G01X4153787Y-10461630D01*
G01X4148118Y-10446682D01*
G01X4143092Y-10439400D01*
G01X5242286Y-10439400D01*
G01X5244213Y-10455270D01*
G01X5249882Y-10470218D01*
G01X5258963Y-10483374D01*
G01X5270929Y-10493975D01*
G01X5285085Y-10501405D01*
G01X5300607Y-10505231D01*
G01X5316593Y-10505231D01*
G01X5332115Y-10501405D01*
G01X5346271Y-10493975D01*
G01X5358237Y-10483374D01*
G01X5367318Y-10470218D01*
G01X5372987Y-10455270D01*
G01X5374914Y-10439400D01*
G01X5372987Y-10423530D01*
G01X5367318Y-10408582D01*
G01X5366149Y-10406888D01*
G01X5982886Y-10406888D01*
G01X5984798Y-10428735D01*
G01X5990474Y-10449919D01*
G01X5999742Y-10469795D01*
G01X6012321Y-10487760D01*
G01X6027828Y-10503267D01*
G01X6045793Y-10515846D01*
G01X6065669Y-10525114D01*
G01X6086853Y-10530790D01*
G01X6108700Y-10532702D01*
G01X6130547Y-10530790D01*
G01X6151731Y-10525114D01*
G01X6171607Y-10515846D01*
G01X6189572Y-10503267D01*
G01X6205079Y-10487760D01*
G01X6217658Y-10469795D01*
G01X6225909Y-10452100D01*
G01X6778986Y-10452100D01*
G01X6780913Y-10467970D01*
G01X6786582Y-10482918D01*
G01X6795663Y-10496074D01*
G01X6807629Y-10506675D01*
G01X6821785Y-10514105D01*
G01X6837307Y-10517931D01*
G01X6853293Y-10517931D01*
G01X6868815Y-10514105D01*
G01X6882971Y-10506675D01*
G01X6894937Y-10496074D01*
G01X6904018Y-10482918D01*
G01X6909687Y-10467970D01*
G01X6911614Y-10452100D01*
G01X6909687Y-10436230D01*
G01X6904018Y-10421282D01*
G01X6894937Y-10408126D01*
G01X6882971Y-10397525D01*
G01X6868815Y-10390095D01*
G01X6853293Y-10386269D01*
G01X6837307Y-10386269D01*
G01X6821785Y-10390095D01*
G01X6807629Y-10397525D01*
G01X6795663Y-10408126D01*
G01X6786582Y-10421282D01*
G01X6780913Y-10436230D01*
G01X6778986Y-10452100D01*
G01X6778986Y-10452100D01*
G01X6225909Y-10452100D01*
G01X6226926Y-10449919D01*
G01X6232602Y-10428735D01*
G01X6234514Y-10406888D01*
G01X6232602Y-10385041D01*
G01X6226926Y-10363857D01*
G01X6217658Y-10343981D01*
G01X6205079Y-10326016D01*
G01X6189572Y-10310509D01*
G01X6171607Y-10297930D01*
G01X6151731Y-10288662D01*
G01X6130547Y-10282986D01*
G01X6108700Y-10281074D01*
G01X6086853Y-10282986D01*
G01X6065669Y-10288662D01*
G01X6045793Y-10297930D01*
G01X6027828Y-10310509D01*
G01X6012321Y-10326016D01*
G01X5999742Y-10343981D01*
G01X5990474Y-10363857D01*
G01X5984798Y-10385041D01*
G01X5982886Y-10406888D01*
G01X5982886Y-10406888D01*
G01X5366149Y-10406888D01*
G01X5358237Y-10395426D01*
G01X5346271Y-10384825D01*
G01X5332115Y-10377395D01*
G01X5316593Y-10373569D01*
G01X5300607Y-10373569D01*
G01X5285085Y-10377395D01*
G01X5270929Y-10384825D01*
G01X5258963Y-10395426D01*
G01X5249882Y-10408582D01*
G01X5244213Y-10423530D01*
G01X5242286Y-10439400D01*
G01X5242286Y-10439400D01*
G01X4143092Y-10439400D01*
G01X4139037Y-10433526D01*
G01X4127071Y-10422925D01*
G01X4112915Y-10415495D01*
G01X4097393Y-10411669D01*
G01X4081407Y-10411669D01*
G01X4065885Y-10415495D01*
G01X4051729Y-10422925D01*
G01X4039763Y-10433526D01*
G01X4030682Y-10446682D01*
G01X4025013Y-10461630D01*
G01X4023086Y-10477500D01*
G01X4023086Y-10477500D01*
G01X3787414Y-10477500D01*
G01X3785487Y-10461630D01*
G01X3779818Y-10446682D01*
G01X3770737Y-10433526D01*
G01X3758771Y-10422925D01*
G01X3744615Y-10415495D01*
G01X3729093Y-10411669D01*
G01X3713107Y-10411669D01*
G01X3697585Y-10415495D01*
G01X3683429Y-10422925D01*
G01X3671463Y-10433526D01*
G01X3662382Y-10446682D01*
G01X3656713Y-10461630D01*
G01X3654786Y-10477500D01*
G01X3654786Y-10477500D01*
G01X3523521Y-10477500D01*
G01X3523909Y-10474305D01*
G01X3521982Y-10458435D01*
G01X3516313Y-10443487D01*
G01X3507232Y-10430331D01*
G01X3495266Y-10419730D01*
G01X3481110Y-10412300D01*
G01X3465588Y-10408474D01*
G01X3449602Y-10408474D01*
G01X3434080Y-10412300D01*
G01X3419924Y-10419730D01*
G01X3407958Y-10430331D01*
G01X3398877Y-10443487D01*
G01X3393208Y-10458435D01*
G01X3391281Y-10474305D01*
G01X3391281Y-10474305D01*
G01X2792485Y-10474305D01*
G01X2794887Y-10467970D01*
G01X2796814Y-10452100D01*
G01X2794887Y-10436230D01*
G01X2789218Y-10421282D01*
G01X2780137Y-10408126D01*
G01X2768171Y-10397525D01*
G01X2754015Y-10390095D01*
G01X2738493Y-10386269D01*
G01X2722507Y-10386269D01*
G01X2706985Y-10390095D01*
G01X2692829Y-10397525D01*
G01X2680863Y-10408126D01*
G01X2671782Y-10421282D01*
G01X2666113Y-10436230D01*
G01X2664186Y-10452100D01*
G01X2664186Y-10452100D01*
G01X1535914Y-10452100D01*
G01X1535914Y-10352073D01*
G01X2971268Y-10352073D01*
G01X2973195Y-10367943D01*
G01X2978863Y-10382891D01*
G01X2987945Y-10396047D01*
G01X2999911Y-10406648D01*
G01X3014066Y-10414078D01*
G01X3029588Y-10417904D01*
G01X3045575Y-10417904D01*
G01X3061097Y-10414078D01*
G01X3075252Y-10406648D01*
G01X3087218Y-10396047D01*
G01X3096300Y-10382891D01*
G01X3101969Y-10367943D01*
G01X3103896Y-10352073D01*
G01X3101969Y-10336203D01*
G01X3096300Y-10321255D01*
G01X3087218Y-10308099D01*
G01X3075252Y-10297498D01*
G01X3061097Y-10290068D01*
G01X3048648Y-10287000D01*
G01X3870686Y-10287000D01*
G01X3872613Y-10302870D01*
G01X3878282Y-10317818D01*
G01X3887363Y-10330974D01*
G01X3899329Y-10341575D01*
G01X3913485Y-10349005D01*
G01X3929007Y-10352831D01*
G01X3944993Y-10352831D01*
G01X3960515Y-10349005D01*
G01X3970859Y-10343576D01*
G01X4158788Y-10343576D01*
G01X4161016Y-10358889D01*
G01X4166732Y-10373269D01*
G01X4175625Y-10385933D01*
G01X4187212Y-10396191D01*
G01X4200860Y-10403484D01*
G01X4215827Y-10407416D01*
G01X4231297Y-10407772D01*
G01X4246429Y-10404533D01*
G01X4260398Y-10397875D01*
G01X4272444Y-10388160D01*
G01X4281910Y-10375919D01*
G01X4288282Y-10361817D01*
G01X4291211Y-10346622D01*
G01X4290540Y-10331162D01*
G01X4286304Y-10316279D01*
G01X4278733Y-10302782D01*
G01X4268241Y-10291408D01*
G01X4281467Y-10283374D01*
G01X4292471Y-10272494D01*
G01X4300654Y-10259360D01*
G01X4305571Y-10244687D01*
G01X4306952Y-10229274D01*
G01X4304724Y-10213961D01*
G01X4303468Y-10210800D01*
G01X5347792Y-10210800D01*
G01X5349645Y-10233154D01*
G01X5355151Y-10254899D01*
G01X5364161Y-10275440D01*
G01X5376430Y-10294219D01*
G01X5391622Y-10310721D01*
G01X5409323Y-10324499D01*
G01X5429050Y-10335175D01*
G01X5450266Y-10342458D01*
G01X5472391Y-10346150D01*
G01X5494821Y-10346150D01*
G01X5516946Y-10342458D01*
G01X5538162Y-10335175D01*
G01X5557889Y-10324499D01*
G01X5575590Y-10310721D01*
G01X5590782Y-10294219D01*
G01X5603051Y-10275440D01*
G01X5612061Y-10254899D01*
G01X5617567Y-10233154D01*
G01X5619420Y-10210800D01*
G01X6597980Y-10210800D01*
G01X6599833Y-10233154D01*
G01X6605339Y-10254899D01*
G01X6614349Y-10275440D01*
G01X6626618Y-10294219D01*
G01X6641810Y-10310721D01*
G01X6659511Y-10324499D01*
G01X6679238Y-10335175D01*
G01X6700454Y-10342458D01*
G01X6722579Y-10346150D01*
G01X6745009Y-10346150D01*
G01X6767134Y-10342458D01*
G01X6788350Y-10335175D01*
G01X6808077Y-10324499D01*
G01X6825778Y-10310721D01*
G01X6840970Y-10294219D01*
G01X6853239Y-10275440D01*
G01X6862249Y-10254899D01*
G01X6867755Y-10233154D01*
G01X6869608Y-10210800D01*
G01X6867755Y-10188446D01*
G01X6862249Y-10166701D01*
G01X6853239Y-10146160D01*
G01X6840970Y-10127381D01*
G01X6825778Y-10110879D01*
G01X6808077Y-10097101D01*
G01X6788350Y-10086425D01*
G01X6767134Y-10079142D01*
G01X6745009Y-10075450D01*
G01X6722579Y-10075450D01*
G01X6700454Y-10079142D01*
G01X6679238Y-10086425D01*
G01X6659511Y-10097101D01*
G01X6641810Y-10110879D01*
G01X6626618Y-10127381D01*
G01X6614349Y-10146160D01*
G01X6605339Y-10166701D01*
G01X6599833Y-10188446D01*
G01X6597980Y-10210800D01*
G01X6597980Y-10210800D01*
G01X5619420Y-10210800D01*
G01X5617567Y-10188446D01*
G01X5612061Y-10166701D01*
G01X5603051Y-10146160D01*
G01X5590782Y-10127381D01*
G01X5575590Y-10110879D01*
G01X5557889Y-10097101D01*
G01X5538162Y-10086425D01*
G01X5516946Y-10079142D01*
G01X5494821Y-10075450D01*
G01X5472391Y-10075450D01*
G01X5450266Y-10079142D01*
G01X5429050Y-10086425D01*
G01X5409323Y-10097101D01*
G01X5391622Y-10110879D01*
G01X5376430Y-10127381D01*
G01X5364161Y-10146160D01*
G01X5355151Y-10166701D01*
G01X5349645Y-10188446D01*
G01X5347792Y-10210800D01*
G01X5347792Y-10210800D01*
G01X4303468Y-10210800D01*
G01X4299008Y-10199581D01*
G01X4290115Y-10186917D01*
G01X4278528Y-10176659D01*
G01X4264880Y-10169366D01*
G01X4249913Y-10165434D01*
G01X4234443Y-10165079D01*
G01X4219311Y-10168318D01*
G01X4205342Y-10174976D01*
G01X4193296Y-10184690D01*
G01X4183830Y-10196931D01*
G01X4177458Y-10211033D01*
G01X4174529Y-10226228D01*
G01X4175200Y-10241688D01*
G01X4179436Y-10256572D01*
G01X4187006Y-10270068D01*
G01X4197499Y-10281443D01*
G01X4197499Y-10281443D01*
G01X4184273Y-10289476D01*
G01X4173269Y-10300356D01*
G01X4165086Y-10313490D01*
G01X4160169Y-10328163D01*
G01X4158788Y-10343576D01*
G01X3970859Y-10343576D01*
G01X3974671Y-10341575D01*
G01X3986637Y-10330974D01*
G01X3995718Y-10317818D01*
G01X4001387Y-10302870D01*
G01X4003314Y-10287000D01*
G01X4001387Y-10271130D01*
G01X3995718Y-10256182D01*
G01X3986637Y-10243026D01*
G01X3974671Y-10232425D01*
G01X3960515Y-10224995D01*
G01X3944993Y-10221169D01*
G01X3929007Y-10221169D01*
G01X3913485Y-10224995D01*
G01X3899329Y-10232425D01*
G01X3887363Y-10243026D01*
G01X3878282Y-10256182D01*
G01X3872613Y-10271130D01*
G01X3870686Y-10287000D01*
G01X3870686Y-10287000D01*
G01X3048648Y-10287000D01*
G01X3045575Y-10286242D01*
G01X3029588Y-10286242D01*
G01X3014066Y-10290068D01*
G01X2999911Y-10297498D01*
G01X2987945Y-10308099D01*
G01X2978863Y-10321255D01*
G01X2973195Y-10336203D01*
G01X2971268Y-10352073D01*
G01X2971268Y-10352073D01*
G01X1535914Y-10352073D01*
G01X1535914Y-9880600D01*
G01X1724386Y-9880600D01*
G01X1726313Y-9896470D01*
G01X1731982Y-9911418D01*
G01X1741063Y-9924574D01*
G01X1753029Y-9935175D01*
G01X1767185Y-9942605D01*
G01X1782707Y-9946431D01*
G01X1798693Y-9946431D01*
G01X1814215Y-9942605D01*
G01X1828371Y-9935175D01*
G01X1840337Y-9924574D01*
G01X1849418Y-9911418D01*
G01X1855087Y-9896470D01*
G01X1855472Y-9893300D01*
G01X4010386Y-9893300D01*
G01X4012313Y-9909170D01*
G01X4017982Y-9924118D01*
G01X4027063Y-9937274D01*
G01X4039029Y-9947875D01*
G01X4053185Y-9955305D01*
G01X4068707Y-9959131D01*
G01X4084693Y-9959131D01*
G01X4100215Y-9955305D01*
G01X4114371Y-9947875D01*
G01X4126337Y-9937274D01*
G01X4135418Y-9924118D01*
G01X4141087Y-9909170D01*
G01X4143014Y-9893300D01*
G01X4141087Y-9877430D01*
G01X4137473Y-9867900D01*
G01X4531086Y-9867900D01*
G01X4533013Y-9883770D01*
G01X4538682Y-9898718D01*
G01X4547763Y-9911874D01*
G01X4559729Y-9922475D01*
G01X4573885Y-9929905D01*
G01X4589407Y-9933731D01*
G01X4605393Y-9933731D01*
G01X4620915Y-9929905D01*
G01X4635071Y-9922475D01*
G01X4647037Y-9911874D01*
G01X4656118Y-9898718D01*
G01X4661787Y-9883770D01*
G01X4663714Y-9867900D01*
G01X4661787Y-9852030D01*
G01X4656118Y-9837082D01*
G01X4647037Y-9823926D01*
G01X4635071Y-9813325D01*
G01X4620915Y-9805895D01*
G01X4605393Y-9802069D01*
G01X4589407Y-9802069D01*
G01X4573885Y-9805895D01*
G01X4559729Y-9813325D01*
G01X4547763Y-9823926D01*
G01X4538682Y-9837082D01*
G01X4533013Y-9852030D01*
G01X4531086Y-9867900D01*
G01X4531086Y-9867900D01*
G01X4137473Y-9867900D01*
G01X4135418Y-9862482D01*
G01X4126337Y-9849326D01*
G01X4114371Y-9838725D01*
G01X4100215Y-9831295D01*
G01X4084693Y-9827469D01*
G01X4068707Y-9827469D01*
G01X4053185Y-9831295D01*
G01X4039029Y-9838725D01*
G01X4027063Y-9849326D01*
G01X4017982Y-9862482D01*
G01X4012313Y-9877430D01*
G01X4010386Y-9893300D01*
G01X4010386Y-9893300D01*
G01X1855472Y-9893300D01*
G01X1857014Y-9880600D01*
G01X1855087Y-9864730D01*
G01X1849418Y-9849782D01*
G01X1840337Y-9836626D01*
G01X1828371Y-9826025D01*
G01X1814215Y-9818595D01*
G01X1798693Y-9814769D01*
G01X1782707Y-9814769D01*
G01X1767185Y-9818595D01*
G01X1753029Y-9826025D01*
G01X1741063Y-9836626D01*
G01X1731982Y-9849782D01*
G01X1726313Y-9864730D01*
G01X1724386Y-9880600D01*
G01X1724386Y-9880600D01*
G01X1535914Y-9880600D01*
G01X1535914Y-9618601D01*
G01X1889970Y-9618601D01*
G01X1889998Y-9634825D01*
G01X1889998Y-9634825D01*
G01X1893965Y-9650558D01*
G01X1901633Y-9664856D01*
G01X1912544Y-9676864D01*
G01X1926044Y-9685863D01*
G01X1941326Y-9691315D01*
G01X1957473Y-9692893D01*
G01X1973521Y-9690502D01*
G01X1988508Y-9684287D01*
G01X2001537Y-9674618D01*
G01X2011828Y-9662074D01*
G01X2024890Y-9671698D01*
G01X2039898Y-9677863D01*
G01X2055954Y-9680198D01*
G01X2072096Y-9678565D01*
G01X2087359Y-9673061D01*
G01X2100828Y-9664015D01*
G01X2111671Y-9652000D01*
G01X3362686Y-9652000D01*
G01X3364613Y-9667870D01*
G01X3370282Y-9682818D01*
G01X3379363Y-9695974D01*
G01X3391329Y-9706575D01*
G01X3405485Y-9714005D01*
G01X3421007Y-9717831D01*
G01X3436993Y-9717831D01*
G01X3452515Y-9714005D01*
G01X3466671Y-9706575D01*
G01X3470932Y-9702800D01*
G01X5347792Y-9702800D01*
G01X5349645Y-9725154D01*
G01X5355151Y-9746899D01*
G01X5364161Y-9767440D01*
G01X5376430Y-9786219D01*
G01X5391622Y-9802721D01*
G01X5409323Y-9816499D01*
G01X5429050Y-9827175D01*
G01X5450266Y-9834458D01*
G01X5472391Y-9838150D01*
G01X5494821Y-9838150D01*
G01X5516946Y-9834458D01*
G01X5538162Y-9827175D01*
G01X5557889Y-9816499D01*
G01X5575590Y-9802721D01*
G01X5590782Y-9786219D01*
G01X5603051Y-9767440D01*
G01X5612061Y-9746899D01*
G01X5617567Y-9725154D01*
G01X5619420Y-9702800D01*
G01X6597980Y-9702800D01*
G01X6599833Y-9725154D01*
G01X6605339Y-9746899D01*
G01X6614349Y-9767440D01*
G01X6626618Y-9786219D01*
G01X6641810Y-9802721D01*
G01X6659511Y-9816499D01*
G01X6679238Y-9827175D01*
G01X6700454Y-9834458D01*
G01X6722579Y-9838150D01*
G01X6745009Y-9838150D01*
G01X6767134Y-9834458D01*
G01X6788350Y-9827175D01*
G01X6808077Y-9816499D01*
G01X6825778Y-9802721D01*
G01X6840970Y-9786219D01*
G01X6853239Y-9767440D01*
G01X6862249Y-9746899D01*
G01X6867755Y-9725154D01*
G01X6869608Y-9702800D01*
G01X6867755Y-9680446D01*
G01X6862249Y-9658701D01*
G01X6853239Y-9638160D01*
G01X6840970Y-9619381D01*
G01X6825778Y-9602879D01*
G01X6808077Y-9589101D01*
G01X6788350Y-9578425D01*
G01X6767134Y-9571142D01*
G01X6745009Y-9567450D01*
G01X6722579Y-9567450D01*
G01X6700454Y-9571142D01*
G01X6679238Y-9578425D01*
G01X6659511Y-9589101D01*
G01X6641810Y-9602879D01*
G01X6626618Y-9619381D01*
G01X6614349Y-9638160D01*
G01X6605339Y-9658701D01*
G01X6599833Y-9680446D01*
G01X6597980Y-9702800D01*
G01X6597980Y-9702800D01*
G01X5619420Y-9702800D01*
G01X5617567Y-9680446D01*
G01X5612061Y-9658701D01*
G01X5603051Y-9638160D01*
G01X5590782Y-9619381D01*
G01X5575590Y-9602879D01*
G01X5557889Y-9589101D01*
G01X5538162Y-9578425D01*
G01X5516946Y-9571142D01*
G01X5494821Y-9567450D01*
G01X5472391Y-9567450D01*
G01X5450266Y-9571142D01*
G01X5429050Y-9578425D01*
G01X5409323Y-9589101D01*
G01X5391622Y-9602879D01*
G01X5376430Y-9619381D01*
G01X5364161Y-9638160D01*
G01X5355151Y-9658701D01*
G01X5349645Y-9680446D01*
G01X5347792Y-9702800D01*
G01X5347792Y-9702800D01*
G01X3470932Y-9702800D01*
G01X3478637Y-9695974D01*
G01X3487718Y-9682818D01*
G01X3493387Y-9667870D01*
G01X3495314Y-9652000D01*
G01X3493387Y-9636130D01*
G01X3487718Y-9621182D01*
G01X3478637Y-9608026D01*
G01X3466671Y-9597425D01*
G01X3452515Y-9589995D01*
G01X3436993Y-9586169D01*
G01X3421007Y-9586169D01*
G01X3405485Y-9589995D01*
G01X3391329Y-9597425D01*
G01X3379363Y-9608026D01*
G01X3370282Y-9621182D01*
G01X3364613Y-9636130D01*
G01X3362686Y-9652000D01*
G01X3362686Y-9652000D01*
G01X2111671Y-9652000D01*
G01X2111698Y-9651970D01*
G01X2119317Y-9637645D01*
G01X2123230Y-9621899D01*
G01X2123202Y-9605675D01*
G01X2119235Y-9589942D01*
G01X2111567Y-9575644D01*
G01X2100656Y-9563636D01*
G01X2087156Y-9554637D01*
G01X2071874Y-9549185D01*
G01X2055727Y-9547607D01*
G01X2039679Y-9549998D01*
G01X2024692Y-9556213D01*
G01X2011663Y-9565882D01*
G01X2001372Y-9578426D01*
G01X1988310Y-9568802D01*
G01X1973302Y-9562637D01*
G01X1957246Y-9560302D01*
G01X1941104Y-9561935D01*
G01X1925841Y-9567439D01*
G01X1912372Y-9576485D01*
G01X1901502Y-9588530D01*
G01X1893883Y-9602855D01*
G01X1889970Y-9618601D01*
G01X1535914Y-9618601D01*
G01X1535914Y-9404769D01*
G01X1902452Y-9404769D01*
G01X1902852Y-9420078D01*
G01X1902852Y-9420078D01*
G01X1906754Y-9434888D01*
G01X1913950Y-9448407D01*
G01X1924054Y-9459915D01*
G01X1936530Y-9468799D01*
G01X1950710Y-9474583D01*
G01X1965839Y-9476961D01*
G01X1981111Y-9475804D01*
G01X1986169Y-9474200D01*
G01X2829286Y-9474200D01*
G01X2831213Y-9490070D01*
G01X2836882Y-9505018D01*
G01X2845963Y-9518174D01*
G01X2857929Y-9528775D01*
G01X2872085Y-9536205D01*
G01X2887607Y-9540031D01*
G01X2903593Y-9540031D01*
G01X2919115Y-9536205D01*
G01X2933271Y-9528775D01*
G01X2945237Y-9518174D01*
G01X2954318Y-9505018D01*
G01X2959987Y-9490070D01*
G01X2961914Y-9474200D01*
G01X2959987Y-9458330D01*
G01X2954318Y-9443382D01*
G01X2945237Y-9430226D01*
G01X2933271Y-9419625D01*
G01X2919115Y-9412195D01*
G01X2903593Y-9408369D01*
G01X2887607Y-9408369D01*
G01X2872085Y-9412195D01*
G01X2857929Y-9419625D01*
G01X2845963Y-9430226D01*
G01X2836882Y-9443382D01*
G01X2831213Y-9458330D01*
G01X2829286Y-9474200D01*
G01X2829286Y-9474200D01*
G01X1986169Y-9474200D01*
G01X1995709Y-9471175D01*
G01X2008856Y-9463320D01*
G01X2019851Y-9452659D01*
G01X2033392Y-9459815D01*
G01X2048212Y-9463675D01*
G01X2063523Y-9464031D01*
G01X2078507Y-9460865D01*
G01X2092366Y-9454347D01*
G01X2104359Y-9444823D01*
G01X2113848Y-9432802D01*
G01X2120326Y-9418925D01*
G01X2123448Y-9403931D01*
G01X2123048Y-9388622D01*
G01X2119146Y-9373812D01*
G01X2111950Y-9360293D01*
G01X2101846Y-9348785D01*
G01X2089370Y-9339901D01*
G01X2075190Y-9334117D01*
G01X2060061Y-9331739D01*
G01X2044789Y-9332896D01*
G01X2030191Y-9337525D01*
G01X2017044Y-9345380D01*
G01X2006049Y-9356041D01*
G01X1992508Y-9348885D01*
G01X1977688Y-9345025D01*
G01X1962377Y-9344669D01*
G01X1947393Y-9347835D01*
G01X1933534Y-9354353D01*
G01X1921541Y-9363877D01*
G01X1912052Y-9375898D01*
G01X1905574Y-9389775D01*
G01X1902452Y-9404769D01*
G01X1535914Y-9404769D01*
G01X1535914Y-9320300D01*
G01X1534519Y-9315093D01*
G01X1530707Y-9311281D01*
G01X1525500Y-9309886D01*
G01X125500Y-9309886D01*
G01X120293Y-9311281D01*
G01X116481Y-9315093D01*
G01X115086Y-9320300D01*
G01X115086Y-10720300D01*
G01X35814Y-10720300D01*
G01X35814Y-9258300D01*
G01X2829286Y-9258300D01*
G01X2831213Y-9274170D01*
G01X2836882Y-9289118D01*
G01X2845963Y-9302274D01*
G01X2857929Y-9312875D01*
G01X2872085Y-9320305D01*
G01X2887607Y-9324131D01*
G01X2903593Y-9324131D01*
G01X2919115Y-9320305D01*
G01X2933271Y-9312875D01*
G01X2945237Y-9302274D01*
G01X2954318Y-9289118D01*
G01X2955619Y-9285686D01*
G01X4886716Y-9285686D01*
G01X4889116Y-9301486D01*
G01X4895225Y-9316252D01*
G01X4904690Y-9329128D01*
G01X4916960Y-9339366D01*
G01X4931323Y-9346371D01*
G01X4946945Y-9349737D01*
G01X4962918Y-9349268D01*
G01X4965096Y-9364177D01*
G01X4970583Y-9378209D01*
G01X4979095Y-9390640D01*
G01X4990194Y-9400829D01*
G01X4975411Y-9404507D01*
G01X4961856Y-9411461D01*
G01X4950247Y-9421325D01*
G01X4941195Y-9433578D01*
G01X4935177Y-9447574D01*
G01X4932513Y-9462573D01*
G01X4933342Y-9477785D01*
G01X4937620Y-9492406D01*
G01X4945122Y-9505665D01*
G01X4955452Y-9516862D01*
G01X4968065Y-9525406D01*
G01X4982294Y-9530846D01*
G01X4982294Y-9530846D01*
G01X4997390Y-9532896D01*
G01X5012555Y-9531447D01*
G01X5026989Y-9526575D01*
G01X5039931Y-9518537D01*
G01X5050696Y-9507759D01*
G01X5051345Y-9506712D01*
G01X5982886Y-9506712D01*
G01X5984798Y-9528559D01*
G01X5990474Y-9549743D01*
G01X5999742Y-9569619D01*
G01X6012321Y-9587584D01*
G01X6027828Y-9603091D01*
G01X6045793Y-9615670D01*
G01X6065669Y-9624938D01*
G01X6086853Y-9630614D01*
G01X6108700Y-9632526D01*
G01X6130547Y-9630614D01*
G01X6151731Y-9624938D01*
G01X6171607Y-9615670D01*
G01X6189572Y-9603091D01*
G01X6205079Y-9587584D01*
G01X6217658Y-9569619D01*
G01X6226926Y-9549743D01*
G01X6232602Y-9528559D01*
G01X6234514Y-9506712D01*
G01X6232602Y-9484865D01*
G01X6226926Y-9463681D01*
G01X6217658Y-9443805D01*
G01X6205079Y-9425840D01*
G01X6189572Y-9410333D01*
G01X6171607Y-9397754D01*
G01X6151731Y-9388486D01*
G01X6130547Y-9382810D01*
G01X6108700Y-9380898D01*
G01X6086853Y-9382810D01*
G01X6065669Y-9388486D01*
G01X6045793Y-9397754D01*
G01X6027828Y-9410333D01*
G01X6012321Y-9425840D01*
G01X5999742Y-9443805D01*
G01X5990474Y-9463681D01*
G01X5984798Y-9484865D01*
G01X5982886Y-9506712D01*
G01X5982886Y-9506712D01*
G01X5051345Y-9506712D01*
G01X5058718Y-9494808D01*
G01X5063573Y-9480368D01*
G01X5065004Y-9465201D01*
G01X5062937Y-9450108D01*
G01X5057479Y-9435885D01*
G01X5048920Y-9423282D01*
G01X5037711Y-9412966D01*
G01X5052227Y-9409388D01*
G01X5065573Y-9402649D01*
G01X5077069Y-9393092D01*
G01X5086133Y-9381202D01*
G01X5087631Y-9377897D01*
G01X5667186Y-9377897D01*
G01X5670082Y-9392663D01*
G01X5676232Y-9406396D01*
G01X5685320Y-9418389D01*
G01X5696878Y-9428025D01*
G01X5710311Y-9434806D01*
G01X5724927Y-9438385D01*
G01X5739973Y-9438576D01*
G01X5754675Y-9435371D01*
G01X5768276Y-9428933D01*
G01X5780075Y-9419595D01*
G01X5789465Y-9407837D01*
G01X5795963Y-9394265D01*
G01X5799234Y-9379577D01*
G01X5799109Y-9364530D01*
G01X5795595Y-9349899D01*
G01X5810244Y-9347365D01*
G01X5823960Y-9341632D01*
G01X5836054Y-9332988D01*
G01X5845918Y-9321866D01*
G01X5853057Y-9308827D01*
G01X5857113Y-9294525D01*
G01X5857880Y-9279679D01*
G01X5855321Y-9265035D01*
G01X5849565Y-9251329D01*
G01X5845455Y-9245600D01*
G01X6410686Y-9245600D01*
G01X6412364Y-9260426D01*
G01X6417315Y-9274501D01*
G01X6425287Y-9287113D01*
G01X6435877Y-9297623D01*
G01X6448548Y-9305500D01*
G01X6462660Y-9310345D01*
G01X6477498Y-9311912D01*
G01X6492311Y-9310122D01*
G01X6506348Y-9305066D01*
G01X6518900Y-9297000D01*
G01X6531452Y-9305066D01*
G01X6545489Y-9310122D01*
G01X6560302Y-9311912D01*
G01X6575140Y-9310345D01*
G01X6589252Y-9305500D01*
G01X6601923Y-9297623D01*
G01X6612513Y-9287113D01*
G01X6620485Y-9274501D01*
G01X6625436Y-9260426D01*
G01X6627114Y-9245600D01*
G01X6625436Y-9230774D01*
G01X6620485Y-9216699D01*
G01X6612513Y-9204087D01*
G01X6601923Y-9193577D01*
G01X6589252Y-9185700D01*
G01X6575140Y-9180855D01*
G01X6560302Y-9179288D01*
G01X6545489Y-9181078D01*
G01X6531452Y-9186134D01*
G01X6518900Y-9194200D01*
G01X6506348Y-9186134D01*
G01X6492311Y-9181078D01*
G01X6477498Y-9179288D01*
G01X6462660Y-9180855D01*
G01X6448548Y-9185700D01*
G01X6435877Y-9193577D01*
G01X6425287Y-9204087D01*
G01X6417315Y-9216699D01*
G01X6412364Y-9230774D01*
G01X6410686Y-9245600D01*
G01X6410686Y-9245600D01*
G01X5845455Y-9245600D01*
G01X5840899Y-9239250D01*
G01X5849754Y-9226829D01*
G01X5855537Y-9212713D01*
G01X5857941Y-9197650D01*
G01X5856839Y-9182435D01*
G01X5852290Y-9167875D01*
G01X5844534Y-9154740D01*
G01X5833982Y-9143724D01*
G01X5821192Y-9135411D01*
G01X5806841Y-9130240D01*
G01X5791688Y-9128486D01*
G01X5776535Y-9130240D01*
G01X5762184Y-9135411D01*
G01X5749394Y-9143724D01*
G01X5738842Y-9154740D01*
G01X5731086Y-9167875D01*
G01X5726537Y-9182435D01*
G01X5725435Y-9197650D01*
G01X5727839Y-9212713D01*
G01X5733622Y-9226829D01*
G01X5742477Y-9239250D01*
G01X5734067Y-9250876D01*
G01X5728356Y-9264039D01*
G01X5725609Y-9278123D01*
G01X5725956Y-9292467D01*
G01X5729381Y-9306401D01*
G01X5729381Y-9306401D01*
G01X5714557Y-9308986D01*
G01X5700698Y-9314847D01*
G01X5688517Y-9323681D01*
G01X5678641Y-9335034D01*
G01X5671578Y-9348321D01*
G01X5667693Y-9362858D01*
G01X5667186Y-9377897D01*
G01X5087631Y-9377897D01*
G01X5092303Y-9367584D01*
G01X5095266Y-9352930D01*
G01X5094871Y-9337985D01*
G01X5091137Y-9323508D01*
G01X5084256Y-9310235D01*
G01X5074576Y-9298842D01*
G01X5062590Y-9289906D01*
G01X5053362Y-9285843D01*
G01X5115321Y-9285843D01*
G01X5117660Y-9301286D01*
G01X5123548Y-9315754D01*
G01X5132655Y-9328443D01*
G01X5144478Y-9338650D01*
G01X5144478Y-9338650D01*
G01X5158361Y-9345809D01*
G01X5173533Y-9349522D01*
G01X5189152Y-9349583D01*
G01X5204353Y-9345989D01*
G01X5218291Y-9338939D01*
G01X5230194Y-9328825D01*
G01X5239400Y-9316207D01*
G01X5245400Y-9301786D01*
G01X5247861Y-9286361D01*
G01X5247653Y-9283700D01*
G01X5293086Y-9283700D01*
G01X5295013Y-9299570D01*
G01X5300682Y-9314518D01*
G01X5309763Y-9327674D01*
G01X5321729Y-9338275D01*
G01X5335885Y-9345705D01*
G01X5351407Y-9349531D01*
G01X5367393Y-9349531D01*
G01X5382915Y-9345705D01*
G01X5397071Y-9338275D01*
G01X5409037Y-9327674D01*
G01X5418118Y-9314518D01*
G01X5423787Y-9299570D01*
G01X5425714Y-9283700D01*
G01X5423787Y-9267830D01*
G01X5418118Y-9252882D01*
G01X5409037Y-9239726D01*
G01X5397071Y-9229125D01*
G01X5382915Y-9221695D01*
G01X5367393Y-9217869D01*
G01X5351407Y-9217869D01*
G01X5335885Y-9221695D01*
G01X5321729Y-9229125D01*
G01X5309763Y-9239726D01*
G01X5300682Y-9252882D01*
G01X5295013Y-9267830D01*
G01X5293086Y-9283700D01*
G01X5293086Y-9283700D01*
G01X5247653Y-9283700D01*
G01X5246645Y-9270789D01*
G01X5241821Y-9255933D01*
G01X5257404Y-9254863D01*
G01X5272304Y-9250178D01*
G01X5285695Y-9242138D01*
G01X5296834Y-9231188D01*
G01X5305103Y-9217937D01*
G01X5310043Y-9203119D01*
G01X5311381Y-9187557D01*
G01X5309041Y-9172114D01*
G01X5303154Y-9157646D01*
G01X5294046Y-9144957D01*
G01X5282223Y-9134750D01*
G01X5268340Y-9127591D01*
G01X5253168Y-9123879D01*
G01X5237549Y-9123818D01*
G01X5222348Y-9127412D01*
G01X5208410Y-9134461D01*
G01X5196508Y-9144576D01*
G01X5187301Y-9157193D01*
G01X5181301Y-9171615D01*
G01X5178841Y-9187039D01*
G01X5180056Y-9202611D01*
G01X5184880Y-9217467D01*
G01X5169298Y-9218537D01*
G01X5154397Y-9223222D01*
G01X5141006Y-9231263D01*
G01X5129867Y-9242212D01*
G01X5121598Y-9255463D01*
G01X5116658Y-9270281D01*
G01X5115321Y-9285843D01*
G01X5053362Y-9285843D01*
G01X5048907Y-9283882D01*
G01X5034222Y-9281076D01*
G01X5019282Y-9281632D01*
G01X5016863Y-9265836D01*
G01X5010735Y-9251077D01*
G01X5001254Y-9238213D01*
G01X4988971Y-9227990D01*
G01X4974600Y-9221002D01*
G01X4958974Y-9217656D01*
G01X4943001Y-9218144D01*
G01X4927609Y-9222440D01*
G01X4913691Y-9230292D01*
G01X4902056Y-9241247D01*
G01X4893379Y-9254666D01*
G01X4888165Y-9269772D01*
G01X4886716Y-9285686D01*
G01X2955619Y-9285686D01*
G01X2959987Y-9274170D01*
G01X2961914Y-9258300D01*
G01X2959987Y-9242430D01*
G01X2954318Y-9227482D01*
G01X2945237Y-9214326D01*
G01X2933271Y-9203725D01*
G01X2919115Y-9196295D01*
G01X2903593Y-9192469D01*
G01X2887607Y-9192469D01*
G01X2872085Y-9196295D01*
G01X2857929Y-9203725D01*
G01X2845963Y-9214326D01*
G01X2836882Y-9227482D01*
G01X2831213Y-9242430D01*
G01X2829286Y-9258300D01*
G01X2829286Y-9258300D01*
G01X35814Y-9258300D01*
G01X35814Y-9137407D01*
G01X84967Y-9137407D01*
G01X88246Y-9156916D01*
G01X95100Y-9175475D01*
G01X105288Y-9192433D01*
G01X118455Y-9207198D01*
G01X134140Y-9219255D01*
G01X151795Y-9228181D01*
G01X170803Y-9233664D01*
G01X190500Y-9235514D01*
G01X190500Y-9235514D01*
G01X210197Y-9233664D01*
G01X229205Y-9228181D01*
G01X246860Y-9219255D01*
G01X262545Y-9207198D01*
G01X275712Y-9192433D01*
G01X279091Y-9186809D01*
G01X478580Y-9186809D01*
G01X480507Y-9202679D01*
G01X486176Y-9217626D01*
G01X495257Y-9230783D01*
G01X507223Y-9241384D01*
G01X521379Y-9248813D01*
G01X536901Y-9252639D01*
G01X552887Y-9252639D01*
G01X568409Y-9248813D01*
G01X582565Y-9241384D01*
G01X594531Y-9230783D01*
G01X603612Y-9217626D01*
G01X609281Y-9202679D01*
G01X611208Y-9186809D01*
G01X609281Y-9170939D01*
G01X603612Y-9155991D01*
G01X594531Y-9142834D01*
G01X582565Y-9132233D01*
G01X568409Y-9124804D01*
G01X552887Y-9120978D01*
G01X536901Y-9120978D01*
G01X521379Y-9124804D01*
G01X507223Y-9132233D01*
G01X495257Y-9142834D01*
G01X486176Y-9155991D01*
G01X480507Y-9170939D01*
G01X478580Y-9186809D01*
G01X478580Y-9186809D01*
G01X279091Y-9186809D01*
G01X285900Y-9175475D01*
G01X292754Y-9156916D01*
G01X296033Y-9137407D01*
G01X295623Y-9117628D01*
G01X291538Y-9098271D01*
G01X283922Y-9080012D01*
G01X273040Y-9063490D01*
G01X259273Y-9049283D01*
G01X243102Y-9037887D01*
G01X225092Y-9029700D01*
G01X243102Y-9021513D01*
G01X259273Y-9010117D01*
G01X263471Y-9005784D01*
G01X302269Y-9005784D01*
G01X302637Y-9021168D01*
G01X306541Y-9036053D01*
G01X313771Y-9049638D01*
G01X323937Y-9061190D01*
G01X336492Y-9070088D01*
G01X350760Y-9075853D01*
G01X365972Y-9078173D01*
G01X372045Y-9092014D01*
G01X381094Y-9104120D01*
G01X392648Y-9113863D01*
G01X406109Y-9120736D01*
G01X420777Y-9124383D01*
G01X435889Y-9124614D01*
G01X450662Y-9121417D01*
G01X464326Y-9114958D01*
G01X476173Y-9105573D01*
G01X485588Y-9093749D01*
G01X492080Y-9080100D01*
G01X495313Y-9065336D01*
G01X500872Y-9064241D01*
G01X1063986Y-9064241D01*
G01X1065913Y-9080111D01*
G01X1071582Y-9095059D01*
G01X1080663Y-9108215D01*
G01X1092629Y-9118816D01*
G01X1106785Y-9126246D01*
G01X1122307Y-9130072D01*
G01X1138293Y-9130072D01*
G01X1149336Y-9127350D01*
G01X1323086Y-9127350D01*
G01X1325013Y-9143220D01*
G01X1330682Y-9158167D01*
G01X1339763Y-9171324D01*
G01X1351729Y-9181925D01*
G01X1365885Y-9189355D01*
G01X1381407Y-9193180D01*
G01X1397393Y-9193180D01*
G01X1412915Y-9189355D01*
G01X1427070Y-9181925D01*
G01X1439037Y-9171324D01*
G01X1448118Y-9158167D01*
G01X1453787Y-9143220D01*
G01X1455714Y-9127350D01*
G01X1453787Y-9111480D01*
G01X1448118Y-9096532D01*
G01X1439037Y-9083375D01*
G01X1427070Y-9072774D01*
G01X1412915Y-9065345D01*
G01X1397393Y-9061519D01*
G01X1381407Y-9061519D01*
G01X1365885Y-9065345D01*
G01X1351729Y-9072774D01*
G01X1339763Y-9083375D01*
G01X1330682Y-9096532D01*
G01X1325013Y-9111480D01*
G01X1323086Y-9127350D01*
G01X1323086Y-9127350D01*
G01X1149336Y-9127350D01*
G01X1153815Y-9126246D01*
G01X1167971Y-9118816D01*
G01X1179937Y-9108215D01*
G01X1189018Y-9095059D01*
G01X1194687Y-9080111D01*
G01X1196614Y-9064241D01*
G01X1194687Y-9048371D01*
G01X1189018Y-9033423D01*
G01X1186448Y-9029700D01*
G01X4721586Y-9029700D01*
G01X4723513Y-9045570D01*
G01X4729182Y-9060518D01*
G01X4738263Y-9073674D01*
G01X4750229Y-9084275D01*
G01X4764385Y-9091705D01*
G01X4779907Y-9095531D01*
G01X4795893Y-9095531D01*
G01X4811415Y-9091705D01*
G01X4825571Y-9084275D01*
G01X4837537Y-9073674D01*
G01X4846618Y-9060518D01*
G01X4848673Y-9055100D01*
G01X6817086Y-9055100D01*
G01X6819013Y-9070970D01*
G01X6824682Y-9085918D01*
G01X6833763Y-9099074D01*
G01X6845729Y-9109675D01*
G01X6859885Y-9117105D01*
G01X6875407Y-9120931D01*
G01X6891393Y-9120931D01*
G01X6906915Y-9117105D01*
G01X6921071Y-9109675D01*
G01X6933037Y-9099074D01*
G01X6942118Y-9085918D01*
G01X6947787Y-9070970D01*
G01X6949714Y-9055100D01*
G01X6947787Y-9039230D01*
G01X6942118Y-9024282D01*
G01X6933037Y-9011126D01*
G01X6921071Y-9000525D01*
G01X6906915Y-8993095D01*
G01X6891393Y-8989269D01*
G01X6875407Y-8989269D01*
G01X6859885Y-8993095D01*
G01X6845729Y-9000525D01*
G01X6833763Y-9011126D01*
G01X6824682Y-9024282D01*
G01X6819013Y-9039230D01*
G01X6817086Y-9055100D01*
G01X6817086Y-9055100D01*
G01X4848673Y-9055100D01*
G01X4852287Y-9045570D01*
G01X4854214Y-9029700D01*
G01X4852287Y-9013830D01*
G01X4846618Y-8998882D01*
G01X4837537Y-8985726D01*
G01X4825571Y-8975125D01*
G01X4811415Y-8967695D01*
G01X4795893Y-8963869D01*
G01X4779907Y-8963869D01*
G01X4764385Y-8967695D01*
G01X4750229Y-8975125D01*
G01X4738263Y-8985726D01*
G01X4729182Y-8998882D01*
G01X4723513Y-9013830D01*
G01X4721586Y-9029700D01*
G01X4721586Y-9029700D01*
G01X1186448Y-9029700D01*
G01X1179937Y-9020267D01*
G01X1167971Y-9009666D01*
G01X1153815Y-9002236D01*
G01X1138293Y-8998410D01*
G01X1122307Y-8998410D01*
G01X1106785Y-9002236D01*
G01X1092629Y-9009666D01*
G01X1080663Y-9020267D01*
G01X1071582Y-9033423D01*
G01X1065913Y-9048371D01*
G01X1063986Y-9064241D01*
G01X1063986Y-9064241D01*
G01X500872Y-9064241D01*
G01X511018Y-9062243D01*
G01X525524Y-9055478D01*
G01X537987Y-9045434D01*
G01X547680Y-9032697D01*
G01X554038Y-9018008D01*
G01X556692Y-9002223D01*
G01X555487Y-8986262D01*
G01X550492Y-8971055D01*
G01X542000Y-8957488D01*
G01X530503Y-8946351D01*
G01X516674Y-8938293D01*
G01X501316Y-8933783D01*
G01X485325Y-8933084D01*
G01X469632Y-8936238D01*
G01X455153Y-8943059D01*
G01X442729Y-8953151D01*
G01X433085Y-8965926D01*
G01X426784Y-8980640D01*
G01X418004Y-8968002D01*
G01X406548Y-8957728D01*
G01X393032Y-8950371D01*
G01X378184Y-8946327D01*
G01X362804Y-8945814D01*
G01X347720Y-8948860D01*
G01X333744Y-8955301D01*
G01X321629Y-8964790D01*
G01X312028Y-8976815D01*
G01X312028Y-8976815D01*
G01X305456Y-8990730D01*
G01X302269Y-9005784D01*
G01X263471Y-9005784D01*
G01X273040Y-8995910D01*
G01X283922Y-8979388D01*
G01X291538Y-8961129D01*
G01X295623Y-8941772D01*
G01X296033Y-8921993D01*
G01X292754Y-8902484D01*
G01X285900Y-8883925D01*
G01X275712Y-8866967D01*
G01X262545Y-8852202D01*
G01X246860Y-8840145D01*
G01X229205Y-8831219D01*
G01X210197Y-8825736D01*
G01X190500Y-8823886D01*
G01X170803Y-8825736D01*
G01X151795Y-8831219D01*
G01X134140Y-8840145D01*
G01X118455Y-8852202D01*
G01X105288Y-8866967D01*
G01X95100Y-8883925D01*
G01X88246Y-8902484D01*
G01X84967Y-8921993D01*
G01X85377Y-8941772D01*
G01X89462Y-8961129D01*
G01X97078Y-8979388D01*
G01X107960Y-8995910D01*
G01X121727Y-9010117D01*
G01X137898Y-9021513D01*
G01X155908Y-9029700D01*
G01X137898Y-9037887D01*
G01X121727Y-9049283D01*
G01X107960Y-9063490D01*
G01X97078Y-9080012D01*
G01X89462Y-9098271D01*
G01X85377Y-9117628D01*
G01X84967Y-9137407D01*
G01X35814Y-9137407D01*
G01X35814Y-8801464D01*
G01X5477036Y-8801464D01*
G01X5480748Y-8817146D01*
G01X5488132Y-8831470D01*
G01X5498754Y-8843589D01*
G01X5511986Y-8852789D01*
G01X5527046Y-8858525D01*
G01X5543045Y-8860459D01*
G01X5549213Y-8873611D01*
G01X5558097Y-8885105D01*
G01X5569271Y-8894388D01*
G01X5582198Y-8901015D01*
G01X5596257Y-8904669D01*
G01X5610776Y-8905174D01*
G01X5625055Y-8902505D01*
G01X5638411Y-8896791D01*
G01X5650202Y-8888307D01*
G01X5659863Y-8877458D01*
G01X5673160Y-8886068D01*
G01X5688119Y-8891280D01*
G01X5703887Y-8892795D01*
G01X5719565Y-8890527D01*
G01X5734258Y-8884606D01*
G01X5747127Y-8875368D01*
G01X5757438Y-8863342D01*
G01X5764603Y-8849214D01*
G01X5768212Y-8833790D01*
G01X5768061Y-8817950D01*
G01X5764156Y-8802597D01*
G01X5756723Y-8788609D01*
G01X5746183Y-8776783D01*
G01X5733140Y-8767793D01*
G01X5718336Y-8762154D01*
G01X5702618Y-8760187D01*
G01X5686881Y-8762003D01*
G01X5672025Y-8767500D01*
G01X5658896Y-8776364D01*
G01X5648243Y-8788089D01*
G01X5635392Y-8779697D01*
G01X5620955Y-8774486D01*
G01X5605707Y-8772732D01*
G01X5605707Y-8772732D01*
G01X5598688Y-8758225D01*
G01X5588378Y-8745840D01*
G01X5575385Y-8736307D01*
G01X5568859Y-8733630D01*
G01X5907786Y-8733630D01*
G01X5909713Y-8749500D01*
G01X5915382Y-8764447D01*
G01X5924463Y-8777604D01*
G01X5936429Y-8788205D01*
G01X5950585Y-8795634D01*
G01X5966107Y-8799460D01*
G01X5982093Y-8799460D01*
G01X5997615Y-8795634D01*
G01X6011770Y-8788205D01*
G01X6023737Y-8777604D01*
G01X6032818Y-8764447D01*
G01X6038183Y-8750300D01*
G01X6093186Y-8750300D01*
G01X6095113Y-8766170D01*
G01X6100782Y-8781118D01*
G01X6109863Y-8794274D01*
G01X6121829Y-8804875D01*
G01X6135985Y-8812305D01*
G01X6151507Y-8816131D01*
G01X6167493Y-8816131D01*
G01X6183015Y-8812305D01*
G01X6197171Y-8804875D01*
G01X6209137Y-8794274D01*
G01X6218218Y-8781118D01*
G01X6223887Y-8766170D01*
G01X6225814Y-8750300D01*
G01X6223887Y-8734430D01*
G01X6218218Y-8719482D01*
G01X6209137Y-8706326D01*
G01X6197171Y-8695725D01*
G01X6183015Y-8688295D01*
G01X6167493Y-8684469D01*
G01X6151507Y-8684469D01*
G01X6135985Y-8688295D01*
G01X6121829Y-8695725D01*
G01X6109863Y-8706326D01*
G01X6100782Y-8719482D01*
G01X6095113Y-8734430D01*
G01X6093186Y-8750300D01*
G01X6093186Y-8750300D01*
G01X6038183Y-8750300D01*
G01X6038487Y-8749500D01*
G01X6040414Y-8733630D01*
G01X6038487Y-8717760D01*
G01X6032818Y-8702812D01*
G01X6023737Y-8689655D01*
G01X6011770Y-8679054D01*
G01X5997615Y-8671625D01*
G01X5982093Y-8667799D01*
G01X5966107Y-8667799D01*
G01X5950585Y-8671625D01*
G01X5936429Y-8679054D01*
G01X5924463Y-8689655D01*
G01X5915382Y-8702812D01*
G01X5909713Y-8717760D01*
G01X5907786Y-8733630D01*
G01X5907786Y-8733630D01*
G01X5568859Y-8733630D01*
G01X5560476Y-8730190D01*
G01X5544531Y-8727850D01*
G01X5528493Y-8729425D01*
G01X5513308Y-8734822D01*
G01X5499874Y-8743722D01*
G01X5488983Y-8755600D01*
G01X5481279Y-8769755D01*
G01X5477216Y-8785350D01*
G01X5477036Y-8801464D01*
G01X35814Y-8801464D01*
G01X35814Y-8674100D01*
G01X835386Y-8674100D01*
G01X837313Y-8689970D01*
G01X842982Y-8704918D01*
G01X852063Y-8718074D01*
G01X864029Y-8728675D01*
G01X878185Y-8736105D01*
G01X893707Y-8739931D01*
G01X909693Y-8739931D01*
G01X925215Y-8736105D01*
G01X939371Y-8728675D01*
G01X951337Y-8718074D01*
G01X960418Y-8704918D01*
G01X966087Y-8689970D01*
G01X968014Y-8674100D01*
G01X967146Y-8666954D01*
G01X1127872Y-8666954D01*
G01X1127983Y-8682202D01*
G01X1131574Y-8697022D01*
G01X1138455Y-8710630D01*
G01X1148263Y-8722307D01*
G01X1160478Y-8731434D01*
G01X1174456Y-8737530D01*
G01X1189456Y-8740272D01*
G01X1189456Y-8740272D01*
G01X1204687Y-8739514D01*
G01X1219341Y-8735298D01*
G01X1232645Y-8727846D01*
G01X1243895Y-8717552D01*
G01X1250341Y-8708115D01*
G01X3466797Y-8708115D01*
G01X3468724Y-8723985D01*
G01X3474393Y-8738933D01*
G01X3483475Y-8752090D01*
G01X3495441Y-8762691D01*
G01X3509596Y-8770120D01*
G01X3525118Y-8773946D01*
G01X3541105Y-8773946D01*
G01X3556627Y-8770120D01*
G01X3570782Y-8762691D01*
G01X3582748Y-8752090D01*
G01X3591829Y-8738933D01*
G01X3597498Y-8723985D01*
G01X3599425Y-8708115D01*
G01X3597498Y-8692245D01*
G01X3591829Y-8677298D01*
G01X3582748Y-8664141D01*
G01X3570782Y-8653540D01*
G01X3556627Y-8646111D01*
G01X3541105Y-8642285D01*
G01X3525118Y-8642285D01*
G01X3509596Y-8646111D01*
G01X3495441Y-8653540D01*
G01X3483475Y-8664141D01*
G01X3474393Y-8677298D01*
G01X3468724Y-8692245D01*
G01X3466797Y-8708115D01*
G01X3466797Y-8708115D01*
G01X1250341Y-8708115D01*
G01X1252496Y-8704960D01*
G01X1257993Y-8690736D01*
G01X1260096Y-8675633D01*
G01X1258694Y-8660449D01*
G01X1253860Y-8645986D01*
G01X1245850Y-8633010D01*
G01X1235088Y-8622207D01*
G01X1247170Y-8612903D01*
G01X1256807Y-8601086D01*
G01X1263490Y-8587379D01*
G01X1266866Y-8572509D01*
G01X1266841Y-8569080D01*
G01X5966274Y-8569080D01*
G01X5967358Y-8584911D01*
G01X5972171Y-8600032D01*
G01X5980439Y-8613576D01*
G01X5991688Y-8624768D01*
G01X6005274Y-8632967D01*
G01X6020418Y-8637704D01*
G01X6036255Y-8638708D01*
G01X6051876Y-8635920D01*
G01X6066388Y-8629501D01*
G01X6078960Y-8619819D01*
G01X6088871Y-8607427D01*
G01X6095555Y-8593035D01*
G01X6093212Y-8608729D01*
G01X6094666Y-8624531D01*
G01X6099831Y-8639534D01*
G01X6108413Y-8652881D01*
G01X6119921Y-8663808D01*
G01X6133694Y-8671687D01*
G01X6148946Y-8676069D01*
G01X6164801Y-8676702D01*
G01X6180353Y-8673550D01*
G01X6194711Y-8666794D01*
G01X6207053Y-8656820D01*
G01X6216672Y-8644199D01*
G01X6223017Y-8629655D01*
G01X6223017Y-8629655D01*
G01X6225726Y-8614020D01*
G01X6224642Y-8598189D01*
G01X6219829Y-8583068D01*
G01X6211561Y-8569524D01*
G01X6200312Y-8558332D01*
G01X6186726Y-8550133D01*
G01X6171582Y-8545396D01*
G01X6155745Y-8544392D01*
G01X6140124Y-8547180D01*
G01X6125612Y-8553599D01*
G01X6113040Y-8563281D01*
G01X6103129Y-8575673D01*
G01X6096445Y-8590065D01*
G01X6098788Y-8574371D01*
G01X6097334Y-8558569D01*
G01X6092169Y-8543566D01*
G01X6083587Y-8530219D01*
G01X6072079Y-8519292D01*
G01X6058306Y-8511413D01*
G01X6043054Y-8507031D01*
G01X6027199Y-8506398D01*
G01X6011647Y-8509550D01*
G01X5997289Y-8516306D01*
G01X5984947Y-8526280D01*
G01X5975328Y-8538901D01*
G01X5968983Y-8553445D01*
G01X5966274Y-8569080D01*
G01X1266841Y-8569080D01*
G01X1266755Y-8557260D01*
G01X1263164Y-8542440D01*
G01X1256283Y-8528832D01*
G01X1246475Y-8517155D01*
G01X1234259Y-8508028D01*
G01X1220282Y-8501932D01*
G01X1205281Y-8499191D01*
G01X1190051Y-8499948D01*
G01X1175397Y-8504164D01*
G01X1162093Y-8511616D01*
G01X1150843Y-8521911D01*
G01X1142242Y-8534502D01*
G01X1136744Y-8548726D01*
G01X1134641Y-8563829D01*
G01X1136044Y-8579014D01*
G01X1140878Y-8593476D01*
G01X1148888Y-8606452D01*
G01X1159650Y-8617255D01*
G01X1147568Y-8626559D01*
G01X1137931Y-8638376D01*
G01X1131248Y-8652083D01*
G01X1127872Y-8666954D01*
G01X967146Y-8666954D01*
G01X966087Y-8658230D01*
G01X960418Y-8643282D01*
G01X951337Y-8630126D01*
G01X939371Y-8619525D01*
G01X925215Y-8612095D01*
G01X909693Y-8608269D01*
G01X893707Y-8608269D01*
G01X878185Y-8612095D01*
G01X864029Y-8619525D01*
G01X852063Y-8630126D01*
G01X842982Y-8643282D01*
G01X837313Y-8658230D01*
G01X835386Y-8674100D01*
G01X835386Y-8674100D01*
G01X35814Y-8674100D01*
G01X35814Y-8576941D01*
G01X133457Y-8576941D01*
G01X133457Y-8594881D01*
G01X137187Y-8612429D01*
G01X144484Y-8628818D01*
G01X155029Y-8643332D01*
G01X168361Y-8655336D01*
G01X183897Y-8664306D01*
G01X200959Y-8669850D01*
G01X218801Y-8671725D01*
G01X218801Y-8671725D01*
G01X298801Y-8671725D01*
G01X316642Y-8669850D01*
G01X333704Y-8664306D01*
G01X349241Y-8655336D01*
G01X362573Y-8643332D01*
G01X373118Y-8628818D01*
G01X380414Y-8612429D01*
G01X384144Y-8594881D01*
G01X384144Y-8590305D01*
G01X546082Y-8590305D01*
G01X549039Y-8608660D01*
G01X555881Y-8625947D01*
G01X566286Y-8641356D01*
G01X579764Y-8654161D01*
G01X595685Y-8663763D01*
G01X613300Y-8669711D01*
G01X631783Y-8671725D01*
G01X631783Y-8671725D01*
G01X721783Y-8671725D01*
G01X739625Y-8669850D01*
G01X756687Y-8664306D01*
G01X772223Y-8655336D01*
G01X785555Y-8643332D01*
G01X796100Y-8628818D01*
G01X803397Y-8612429D01*
G01X807127Y-8594881D01*
G01X807127Y-8576941D01*
G01X803397Y-8559393D01*
G01X796100Y-8543004D01*
G01X785555Y-8528490D01*
G01X772223Y-8516486D01*
G01X756687Y-8507516D01*
G01X739625Y-8501973D01*
G01X721783Y-8500097D01*
G01X658460Y-8500097D01*
G01X670592Y-8491527D01*
G01X680493Y-8480455D01*
G01X687659Y-8467444D01*
G01X691725Y-8453157D01*
G01X692483Y-8438323D01*
G01X689896Y-8423697D01*
G01X684094Y-8410023D01*
G01X676908Y-8400113D01*
G01X6094443Y-8400113D01*
G01X6096201Y-8416247D01*
G01X6101825Y-8431471D01*
G01X6110979Y-8444872D01*
G01X6123114Y-8455649D01*
G01X6137503Y-8463156D01*
G01X6153285Y-8466943D01*
G01X6169514Y-8466782D01*
G01X6170496Y-8482982D01*
G01X6175383Y-8498458D01*
G01X6183884Y-8512284D01*
G01X6195488Y-8523631D01*
G01X6209500Y-8531819D01*
G01X6225082Y-8536358D01*
G01X6241300Y-8536977D01*
G01X6257182Y-8533638D01*
G01X6271778Y-8526541D01*
G01X6284213Y-8516112D01*
G01X6284213Y-8516112D01*
G01X6293742Y-8502974D01*
G01X6297384Y-8493912D01*
G01X6730589Y-8493912D01*
G01X6732355Y-8510715D01*
G01X6737575Y-8526783D01*
G01X6746023Y-8541414D01*
G01X6757328Y-8553970D01*
G01X6770996Y-8563900D01*
G01X6786430Y-8570772D01*
G01X6802956Y-8574285D01*
G01X6819851Y-8574285D01*
G01X6836377Y-8570772D01*
G01X6851811Y-8563900D01*
G01X6865480Y-8553970D01*
G01X6876785Y-8541414D01*
G01X6885232Y-8526783D01*
G01X6890453Y-8510715D01*
G01X6892219Y-8493912D01*
G01X6890453Y-8477110D01*
G01X6885232Y-8461042D01*
G01X6876785Y-8446410D01*
G01X6865480Y-8433855D01*
G01X6851811Y-8423924D01*
G01X6836377Y-8417053D01*
G01X6819851Y-8413540D01*
G01X6802956Y-8413540D01*
G01X6786430Y-8417053D01*
G01X6770996Y-8423924D01*
G01X6757328Y-8433855D01*
G01X6746023Y-8446410D01*
G01X6737575Y-8461042D01*
G01X6732355Y-8477110D01*
G01X6730589Y-8493912D01*
G01X6730589Y-8493912D01*
G01X6297384Y-8493912D01*
G01X6299794Y-8487915D01*
G01X6302007Y-8471837D01*
G01X6300249Y-8455703D01*
G01X6294625Y-8440479D01*
G01X6285471Y-8427078D01*
G01X6273336Y-8416301D01*
G01X6258947Y-8408794D01*
G01X6243165Y-8405007D01*
G01X6226936Y-8405168D01*
G01X6225954Y-8388968D01*
G01X6221067Y-8373492D01*
G01X6212566Y-8359666D01*
G01X6200963Y-8348319D01*
G01X6186950Y-8340131D01*
G01X6171368Y-8335592D01*
G01X6155150Y-8334973D01*
G01X6139268Y-8338312D01*
G01X6124672Y-8345409D01*
G01X6112238Y-8355838D01*
G01X6102709Y-8368976D01*
G01X6096656Y-8384035D01*
G01X6094443Y-8400113D01*
G01X676908Y-8400113D01*
G01X675374Y-8397998D01*
G01X664180Y-8388235D01*
G01X674690Y-8377474D01*
G01X682505Y-8364621D01*
G01X687222Y-8350336D01*
G01X688598Y-8335357D01*
G01X686563Y-8320453D01*
G01X681221Y-8306390D01*
G01X672847Y-8293894D01*
G01X661872Y-8283606D01*
G01X648861Y-8276057D01*
G01X634483Y-8271634D01*
G01X619479Y-8270565D01*
G01X604619Y-8272905D01*
G01X590670Y-8278535D01*
G01X578348Y-8287163D01*
G01X568287Y-8298346D01*
G01X561006Y-8311509D01*
G01X556879Y-8325975D01*
G01X556118Y-8340998D01*
G01X558762Y-8355806D01*
G01X564676Y-8369638D01*
G01X573555Y-8381780D01*
G01X584943Y-8391609D01*
G01X574280Y-8402734D01*
G01X566495Y-8416032D01*
G01X562017Y-8430776D01*
G01X561089Y-8446158D01*
G01X563764Y-8461333D01*
G01X569894Y-8475471D01*
G01X579143Y-8487796D01*
G01X591004Y-8497632D01*
G01X604828Y-8504441D01*
G01X587913Y-8512158D01*
G01X573058Y-8523338D01*
G01X560959Y-8537455D01*
G01X552185Y-8553846D01*
G01X547147Y-8571743D01*
G01X546082Y-8590305D01*
G01X384144Y-8590305D01*
G01X384144Y-8576941D01*
G01X380414Y-8559393D01*
G01X373118Y-8543004D01*
G01X362573Y-8528490D01*
G01X349241Y-8516486D01*
G01X333704Y-8507516D01*
G01X316642Y-8501973D01*
G01X298801Y-8500097D01*
G01X218801Y-8500097D01*
G01X200959Y-8501973D01*
G01X183897Y-8507516D01*
G01X168361Y-8516486D01*
G01X155029Y-8528490D01*
G01X144484Y-8543004D01*
G01X137187Y-8559393D01*
G01X133457Y-8576941D01*
G01X35814Y-8576941D01*
G01X35814Y-8204200D01*
G01X4086586Y-8204200D01*
G01X4088513Y-8220070D01*
G01X4094182Y-8235018D01*
G01X4103263Y-8248174D01*
G01X4115229Y-8258775D01*
G01X4129385Y-8266205D01*
G01X4144907Y-8270031D01*
G01X4160893Y-8270031D01*
G01X4176415Y-8266205D01*
G01X4190571Y-8258775D01*
G01X4202537Y-8248174D01*
G01X4211618Y-8235018D01*
G01X4213673Y-8229600D01*
G01X5928086Y-8229600D01*
G01X5930013Y-8245470D01*
G01X5935682Y-8260418D01*
G01X5944763Y-8273574D01*
G01X5956729Y-8284175D01*
G01X5970885Y-8291605D01*
G01X5986407Y-8295431D01*
G01X6002393Y-8295431D01*
G01X6017915Y-8291605D01*
G01X6032071Y-8284175D01*
G01X6044037Y-8273574D01*
G01X6053118Y-8260418D01*
G01X6058787Y-8245470D01*
G01X6060714Y-8229600D01*
G01X6058787Y-8213730D01*
G01X6053118Y-8198782D01*
G01X6049757Y-8193913D01*
G01X6730589Y-8193913D01*
G01X6732355Y-8210715D01*
G01X6737575Y-8226783D01*
G01X6746023Y-8241415D01*
G01X6757328Y-8253970D01*
G01X6770996Y-8263901D01*
G01X6786430Y-8270773D01*
G01X6802956Y-8274285D01*
G01X6819851Y-8274285D01*
G01X6836377Y-8270773D01*
G01X6851811Y-8263901D01*
G01X6865480Y-8253970D01*
G01X6876785Y-8241415D01*
G01X6885232Y-8226783D01*
G01X6890453Y-8210715D01*
G01X6892219Y-8193913D01*
G01X6890453Y-8177111D01*
G01X6885232Y-8161043D01*
G01X6876785Y-8146411D01*
G01X6865480Y-8133856D01*
G01X6851811Y-8123925D01*
G01X6836377Y-8117053D01*
G01X6819851Y-8113541D01*
G01X6802956Y-8113541D01*
G01X6786430Y-8117053D01*
G01X6770996Y-8123925D01*
G01X6757328Y-8133856D01*
G01X6746023Y-8146411D01*
G01X6737575Y-8161043D01*
G01X6732355Y-8177111D01*
G01X6730589Y-8193913D01*
G01X6730589Y-8193913D01*
G01X6049757Y-8193913D01*
G01X6044037Y-8185626D01*
G01X6032071Y-8175025D01*
G01X6017915Y-8167595D01*
G01X6002393Y-8163769D01*
G01X5986407Y-8163769D01*
G01X5970885Y-8167595D01*
G01X5956729Y-8175025D01*
G01X5944763Y-8185626D01*
G01X5935682Y-8198782D01*
G01X5930013Y-8213730D01*
G01X5928086Y-8229600D01*
G01X5928086Y-8229600D01*
G01X4213673Y-8229600D01*
G01X4217287Y-8220070D01*
G01X4219214Y-8204200D01*
G01X4217287Y-8188330D01*
G01X4211618Y-8173382D01*
G01X4202537Y-8160226D01*
G01X4190571Y-8149625D01*
G01X4176415Y-8142195D01*
G01X4160893Y-8138369D01*
G01X4144907Y-8138369D01*
G01X4129385Y-8142195D01*
G01X4115229Y-8149625D01*
G01X4103263Y-8160226D01*
G01X4094182Y-8173382D01*
G01X4088513Y-8188330D01*
G01X4086586Y-8204200D01*
G01X4086586Y-8204200D01*
G01X35814Y-8204200D01*
G01X35814Y-7962900D01*
G01X771886Y-7962900D01*
G01X773813Y-7978770D01*
G01X779482Y-7993718D01*
G01X788563Y-8006874D01*
G01X800529Y-8017475D01*
G01X814685Y-8024905D01*
G01X830207Y-8028731D01*
G01X846193Y-8028731D01*
G01X861715Y-8024905D01*
G01X875871Y-8017475D01*
G01X887837Y-8006874D01*
G01X896918Y-7993718D01*
G01X902587Y-7978770D01*
G01X902778Y-7977200D01*
G01X936986Y-7977200D01*
G01X938913Y-7993070D01*
G01X944582Y-8008018D01*
G01X953663Y-8021175D01*
G01X965629Y-8031776D01*
G01X979785Y-8039205D01*
G01X995307Y-8043031D01*
G01X1011293Y-8043031D01*
G01X1026815Y-8039205D01*
G01X1027015Y-8039100D01*
G01X1384934Y-8039100D01*
G01X1386861Y-8054970D01*
G01X1392530Y-8069918D01*
G01X1401612Y-8083074D01*
G01X1413578Y-8093675D01*
G01X1427733Y-8101105D01*
G01X1443255Y-8104931D01*
G01X1459242Y-8104931D01*
G01X1474764Y-8101105D01*
G01X1488919Y-8093675D01*
G01X1500885Y-8083074D01*
G01X1509967Y-8069918D01*
G01X1515636Y-8054970D01*
G01X1517563Y-8039100D01*
G01X1515636Y-8023230D01*
G01X1509967Y-8008282D01*
G01X1504940Y-8001000D01*
G01X2854686Y-8001000D01*
G01X2856613Y-8016870D01*
G01X2862282Y-8031818D01*
G01X2871363Y-8044974D01*
G01X2883329Y-8055575D01*
G01X2897485Y-8063005D01*
G01X2913007Y-8066831D01*
G01X2928993Y-8066831D01*
G01X2944515Y-8063005D01*
G01X2958671Y-8055575D01*
G01X2970637Y-8044974D01*
G01X2979718Y-8031818D01*
G01X2985387Y-8016870D01*
G01X2987314Y-8001000D01*
G01X2985387Y-7985130D01*
G01X2979718Y-7970182D01*
G01X2970637Y-7957026D01*
G01X2958671Y-7946425D01*
G01X2944515Y-7938995D01*
G01X2928993Y-7935169D01*
G01X2913007Y-7935169D01*
G01X2897485Y-7938995D01*
G01X2883329Y-7946425D01*
G01X2871363Y-7957026D01*
G01X2862282Y-7970182D01*
G01X2856613Y-7985130D01*
G01X2854686Y-8001000D01*
G01X2854686Y-8001000D01*
G01X1504940Y-8001000D01*
G01X1500885Y-7995126D01*
G01X1488919Y-7984525D01*
G01X1474764Y-7977095D01*
G01X1459242Y-7973269D01*
G01X1443255Y-7973269D01*
G01X1427733Y-7977095D01*
G01X1413578Y-7984525D01*
G01X1401612Y-7995126D01*
G01X1392530Y-8008282D01*
G01X1386861Y-8023230D01*
G01X1384934Y-8039100D01*
G01X1384934Y-8039100D01*
G01X1027015Y-8039100D01*
G01X1040971Y-8031776D01*
G01X1052937Y-8021175D01*
G01X1062018Y-8008018D01*
G01X1067687Y-7993070D01*
G01X1069614Y-7977200D01*
G01X1067687Y-7961330D01*
G01X1062018Y-7946383D01*
G01X1052937Y-7933226D01*
G01X1040971Y-7922625D01*
G01X1026815Y-7915195D01*
G01X1011293Y-7911370D01*
G01X995307Y-7911370D01*
G01X979785Y-7915195D01*
G01X965629Y-7922625D01*
G01X953663Y-7933226D01*
G01X944582Y-7946383D01*
G01X938913Y-7961330D01*
G01X936986Y-7977200D01*
G01X936986Y-7977200D01*
G01X902778Y-7977200D01*
G01X904514Y-7962900D01*
G01X902587Y-7947030D01*
G01X896918Y-7932082D01*
G01X887837Y-7918926D01*
G01X875871Y-7908325D01*
G01X861715Y-7900895D01*
G01X846193Y-7897069D01*
G01X830207Y-7897069D01*
G01X814685Y-7900895D01*
G01X800529Y-7908325D01*
G01X788563Y-7918926D01*
G01X779482Y-7932082D01*
G01X773813Y-7947030D01*
G01X771886Y-7962900D01*
G01X771886Y-7962900D01*
G01X35814Y-7962900D01*
G01X35814Y-7711919D01*
G01X133457Y-7711919D01*
G01X133457Y-7729859D01*
G01X137187Y-7747407D01*
G01X144484Y-7763796D01*
G01X155029Y-7778310D01*
G01X168361Y-7790314D01*
G01X183897Y-7799284D01*
G01X200959Y-7804827D01*
G01X218801Y-7806703D01*
G01X218801Y-7806703D01*
G01X298801Y-7806703D01*
G01X316642Y-7804827D01*
G01X333704Y-7799284D01*
G01X349241Y-7790314D01*
G01X362573Y-7778310D01*
G01X373118Y-7763796D01*
G01X380414Y-7747407D01*
G01X384144Y-7729859D01*
G01X384144Y-7716495D01*
G01X546082Y-7716495D01*
G01X547147Y-7735057D01*
G01X552185Y-7752954D01*
G01X560959Y-7769345D01*
G01X573058Y-7783462D01*
G01X587913Y-7794642D01*
G01X604828Y-7802359D01*
G01X590309Y-7809625D01*
G01X578010Y-7820223D01*
G01X568681Y-7833510D01*
G01X562887Y-7848677D01*
G01X560983Y-7864800D01*
G01X563084Y-7880899D01*
G01X569062Y-7895994D01*
G01X578553Y-7909166D01*
G01X590980Y-7919614D01*
G01X605586Y-7926701D01*
G01X621483Y-7929998D01*
G01X621483Y-7929998D01*
G01X637704Y-7929303D01*
G01X653260Y-7924657D01*
G01X667207Y-7916345D01*
G01X678694Y-7904872D01*
G01X687022Y-7890936D01*
G01X691686Y-7875385D01*
G01X692401Y-7859165D01*
G01X690224Y-7848600D01*
G01X2791186Y-7848600D01*
G01X2793113Y-7864470D01*
G01X2798782Y-7879418D01*
G01X2807863Y-7892574D01*
G01X2819829Y-7903175D01*
G01X2833985Y-7910605D01*
G01X2849507Y-7914431D01*
G01X2865493Y-7914431D01*
G01X2881015Y-7910605D01*
G01X2895171Y-7903175D01*
G01X2907137Y-7892574D01*
G01X2916218Y-7879418D01*
G01X2921887Y-7864470D01*
G01X2923814Y-7848600D01*
G01X2921887Y-7832730D01*
G01X2916218Y-7817782D01*
G01X2907137Y-7804626D01*
G01X2895171Y-7794025D01*
G01X2881015Y-7786595D01*
G01X2865493Y-7782769D01*
G01X2849507Y-7782769D01*
G01X2833985Y-7786595D01*
G01X2819829Y-7794025D01*
G01X2807863Y-7804626D01*
G01X2798782Y-7817782D01*
G01X2793113Y-7832730D01*
G01X2791186Y-7848600D01*
G01X2791186Y-7848600D01*
G01X690224Y-7848600D01*
G01X689124Y-7843264D01*
G01X682054Y-7828649D01*
G01X671621Y-7816210D01*
G01X658460Y-7806703D01*
G01X721783Y-7806703D01*
G01X739625Y-7804827D01*
G01X756687Y-7799284D01*
G01X772223Y-7790314D01*
G01X785555Y-7778310D01*
G01X796100Y-7763796D01*
G01X803397Y-7747407D01*
G01X806183Y-7734300D01*
G01X1254486Y-7734300D01*
G01X1256413Y-7750170D01*
G01X1262082Y-7765118D01*
G01X1271163Y-7778274D01*
G01X1283129Y-7788875D01*
G01X1297285Y-7796305D01*
G01X1312807Y-7800131D01*
G01X1328793Y-7800131D01*
G01X1344315Y-7796305D01*
G01X1358471Y-7788875D01*
G01X1370437Y-7778274D01*
G01X1379518Y-7765118D01*
G01X1385187Y-7750170D01*
G01X1387114Y-7734300D01*
G01X1419586Y-7734300D01*
G01X1421513Y-7750170D01*
G01X1427182Y-7765118D01*
G01X1436263Y-7778274D01*
G01X1448229Y-7788875D01*
G01X1462385Y-7796305D01*
G01X1477907Y-7800131D01*
G01X1493893Y-7800131D01*
G01X1509415Y-7796305D01*
G01X1523571Y-7788875D01*
G01X1535537Y-7778274D01*
G01X1544618Y-7765118D01*
G01X1550287Y-7750170D01*
G01X1552214Y-7734300D01*
G01X1550672Y-7721600D01*
G01X6194786Y-7721600D01*
G01X6196713Y-7737470D01*
G01X6202382Y-7752418D01*
G01X6211463Y-7765574D01*
G01X6223429Y-7776175D01*
G01X6237585Y-7783605D01*
G01X6253107Y-7787431D01*
G01X6269093Y-7787431D01*
G01X6284615Y-7783605D01*
G01X6298771Y-7776175D01*
G01X6310737Y-7765574D01*
G01X6319818Y-7752418D01*
G01X6325487Y-7737470D01*
G01X6327414Y-7721600D01*
G01X6325487Y-7705730D01*
G01X6319818Y-7690782D01*
G01X6310737Y-7677626D01*
G01X6298771Y-7667025D01*
G01X6284615Y-7659595D01*
G01X6269093Y-7655769D01*
G01X6253107Y-7655769D01*
G01X6237585Y-7659595D01*
G01X6223429Y-7667025D01*
G01X6211463Y-7677626D01*
G01X6202382Y-7690782D01*
G01X6196713Y-7705730D01*
G01X6194786Y-7721600D01*
G01X6194786Y-7721600D01*
G01X1550672Y-7721600D01*
G01X1550287Y-7718430D01*
G01X1544618Y-7703482D01*
G01X1535537Y-7690326D01*
G01X1523571Y-7679725D01*
G01X1509415Y-7672295D01*
G01X1493893Y-7668469D01*
G01X1477907Y-7668469D01*
G01X1462385Y-7672295D01*
G01X1448229Y-7679725D01*
G01X1436263Y-7690326D01*
G01X1427182Y-7703482D01*
G01X1421513Y-7718430D01*
G01X1419586Y-7734300D01*
G01X1419586Y-7734300D01*
G01X1387114Y-7734300D01*
G01X1385187Y-7718430D01*
G01X1379518Y-7703482D01*
G01X1370437Y-7690326D01*
G01X1358471Y-7679725D01*
G01X1344315Y-7672295D01*
G01X1328793Y-7668469D01*
G01X1312807Y-7668469D01*
G01X1297285Y-7672295D01*
G01X1283129Y-7679725D01*
G01X1271163Y-7690326D01*
G01X1262082Y-7703482D01*
G01X1256413Y-7718430D01*
G01X1254486Y-7734300D01*
G01X1254486Y-7734300D01*
G01X806183Y-7734300D01*
G01X807127Y-7729859D01*
G01X807127Y-7711919D01*
G01X803397Y-7694371D01*
G01X796100Y-7677982D01*
G01X785555Y-7663468D01*
G01X772223Y-7651464D01*
G01X756687Y-7642494D01*
G01X739625Y-7636950D01*
G01X721783Y-7635075D01*
G01X631783Y-7635075D01*
G01X613300Y-7637089D01*
G01X595685Y-7643037D01*
G01X579764Y-7652639D01*
G01X566286Y-7665444D01*
G01X555881Y-7680853D01*
G01X549039Y-7698140D01*
G01X546082Y-7716495D01*
G01X384144Y-7716495D01*
G01X384144Y-7711919D01*
G01X380414Y-7694371D01*
G01X373118Y-7677982D01*
G01X362573Y-7663468D01*
G01X349241Y-7651464D01*
G01X333704Y-7642494D01*
G01X316642Y-7636950D01*
G01X298801Y-7635075D01*
G01X218801Y-7635075D01*
G01X200959Y-7636950D01*
G01X183897Y-7642494D01*
G01X168361Y-7651464D01*
G01X155029Y-7663468D01*
G01X144484Y-7677982D01*
G01X137187Y-7694371D01*
G01X133457Y-7711919D01*
G01X35814Y-7711919D01*
G01X35814Y-7327921D01*
G01X833461Y-7327921D01*
G01X835388Y-7343791D01*
G01X841056Y-7358739D01*
G01X850138Y-7371896D01*
G01X862104Y-7382497D01*
G01X876259Y-7389926D01*
G01X891781Y-7393752D01*
G01X907768Y-7393752D01*
G01X923290Y-7389926D01*
G01X937445Y-7382497D01*
G01X949411Y-7371896D01*
G01X958493Y-7358739D01*
G01X964162Y-7343791D01*
G01X966089Y-7327921D01*
G01X964162Y-7312051D01*
G01X958493Y-7297104D01*
G01X949411Y-7283947D01*
G01X937445Y-7273346D01*
G01X923290Y-7265917D01*
G01X907768Y-7262091D01*
G01X891781Y-7262091D01*
G01X876259Y-7265917D01*
G01X862104Y-7273346D01*
G01X850138Y-7283947D01*
G01X841056Y-7297104D01*
G01X835388Y-7312051D01*
G01X833461Y-7327921D01*
G01X833461Y-7327921D01*
G01X35814Y-7327921D01*
G01X35814Y-6950000D01*
G01X1564186Y-6950000D01*
G01X1564186Y-7250000D01*
G01X1565858Y-7271246D01*
G01X1570833Y-7291969D01*
G01X1578989Y-7311658D01*
G01X1590124Y-7329829D01*
G01X1603965Y-7346035D01*
G01X1620171Y-7359876D01*
G01X1638342Y-7371011D01*
G01X1658031Y-7379167D01*
G01X1678754Y-7384142D01*
G01X1700000Y-7385814D01*
G01X5300000Y-7385814D01*
G01X5321246Y-7384142D01*
G01X5341969Y-7379167D01*
G01X5361658Y-7371011D01*
G01X5379830Y-7359876D01*
G01X5387529Y-7353300D01*
G01X6385286Y-7353300D01*
G01X6387213Y-7369170D01*
G01X6392882Y-7384118D01*
G01X6401963Y-7397274D01*
G01X6413929Y-7407875D01*
G01X6428085Y-7415305D01*
G01X6443607Y-7419131D01*
G01X6459593Y-7419131D01*
G01X6475115Y-7415305D01*
G01X6489271Y-7407875D01*
G01X6501237Y-7397274D01*
G01X6510318Y-7384118D01*
G01X6515987Y-7369170D01*
G01X6517914Y-7353300D01*
G01X6515987Y-7337430D01*
G01X6510318Y-7322482D01*
G01X6501237Y-7309326D01*
G01X6489271Y-7298725D01*
G01X6475115Y-7291295D01*
G01X6459593Y-7287469D01*
G01X6443607Y-7287469D01*
G01X6428085Y-7291295D01*
G01X6413929Y-7298725D01*
G01X6401963Y-7309326D01*
G01X6392882Y-7322482D01*
G01X6387213Y-7337430D01*
G01X6385286Y-7353300D01*
G01X6385286Y-7353300D01*
G01X5387529Y-7353300D01*
G01X5396035Y-7346035D01*
G01X5409876Y-7329829D01*
G01X5421011Y-7311658D01*
G01X5429167Y-7291969D01*
G01X5434142Y-7271246D01*
G01X5435814Y-7250000D01*
G01X5435814Y-6950000D01*
G01X5435814Y-6950000D01*
G01X5434142Y-6928754D01*
G01X5432400Y-6921500D01*
G01X6728186Y-6921500D01*
G01X6730113Y-6937370D01*
G01X6735782Y-6952318D01*
G01X6744863Y-6965474D01*
G01X6756829Y-6976075D01*
G01X6770985Y-6983505D01*
G01X6786507Y-6987331D01*
G01X6802493Y-6987331D01*
G01X6818015Y-6983505D01*
G01X6832171Y-6976075D01*
G01X6844137Y-6965474D01*
G01X6853218Y-6952318D01*
G01X6858887Y-6937370D01*
G01X6860814Y-6921500D01*
G01X6858887Y-6905630D01*
G01X6853218Y-6890682D01*
G01X6844137Y-6877526D01*
G01X6832171Y-6866925D01*
G01X6818015Y-6859495D01*
G01X6802493Y-6855669D01*
G01X6786507Y-6855669D01*
G01X6770985Y-6859495D01*
G01X6756829Y-6866925D01*
G01X6744863Y-6877526D01*
G01X6735782Y-6890682D01*
G01X6730113Y-6905630D01*
G01X6728186Y-6921500D01*
G01X6728186Y-6921500D01*
G01X5432400Y-6921500D01*
G01X5429167Y-6908031D01*
G01X5421011Y-6888342D01*
G01X5409876Y-6870171D01*
G01X5396035Y-6853965D01*
G01X5379830Y-6840124D01*
G01X5361658Y-6828989D01*
G01X5341969Y-6820833D01*
G01X5321246Y-6815858D01*
G01X5300000Y-6814186D01*
G01X1700000Y-6814186D01*
G01X1678754Y-6815858D01*
G01X1658031Y-6820833D01*
G01X1638342Y-6828989D01*
G01X1620171Y-6840124D01*
G01X1603965Y-6853965D01*
G01X1590124Y-6870171D01*
G01X1578989Y-6888342D01*
G01X1570833Y-6908031D01*
G01X1565858Y-6928754D01*
G01X1564186Y-6950000D01*
G01X35814Y-6950000D01*
G01X35814Y-6721495D01*
G01X540091Y-6721495D01*
G01X542018Y-6737365D01*
G01X547687Y-6752313D01*
G01X556768Y-6765469D01*
G01X568734Y-6776070D01*
G01X582890Y-6783500D01*
G01X598412Y-6787326D01*
G01X614398Y-6787326D01*
G01X629920Y-6783500D01*
G01X644076Y-6776070D01*
G01X656042Y-6765469D01*
G01X665123Y-6752313D01*
G01X670792Y-6737365D01*
G01X672719Y-6721495D01*
G01X670792Y-6705625D01*
G01X665123Y-6690677D01*
G01X656042Y-6677521D01*
G01X644076Y-6666920D01*
G01X629920Y-6659490D01*
G01X614398Y-6655665D01*
G01X598412Y-6655665D01*
G01X582890Y-6659490D01*
G01X568734Y-6666920D01*
G01X556768Y-6677521D01*
G01X547687Y-6690677D01*
G01X542018Y-6705625D01*
G01X540091Y-6721495D01*
G01X540091Y-6721495D01*
G01X35814Y-6721495D01*
G01X35814Y-6635902D01*
G01X251186Y-6635902D01*
G01X253113Y-6651772D01*
G01X258782Y-6666720D01*
G01X267863Y-6679877D01*
G01X279829Y-6690478D01*
G01X293985Y-6697907D01*
G01X309507Y-6701733D01*
G01X325493Y-6701733D01*
G01X341015Y-6697907D01*
G01X355171Y-6690478D01*
G01X367137Y-6679877D01*
G01X376218Y-6666720D01*
G01X381887Y-6651772D01*
G01X383814Y-6635902D01*
G01X381887Y-6620032D01*
G01X376218Y-6605085D01*
G01X367137Y-6591928D01*
G01X355171Y-6581327D01*
G01X341015Y-6573898D01*
G01X325493Y-6570072D01*
G01X309507Y-6570072D01*
G01X293985Y-6573898D01*
G01X279829Y-6581327D01*
G01X267863Y-6591928D01*
G01X258782Y-6605085D01*
G01X253113Y-6620032D01*
G01X251186Y-6635902D01*
G01X251186Y-6635902D01*
G01X35814Y-6635902D01*
G01X35814Y-6565900D01*
G01X454386Y-6565900D01*
G01X456313Y-6581770D01*
G01X461982Y-6596718D01*
G01X471063Y-6609874D01*
G01X483029Y-6620475D01*
G01X497185Y-6627905D01*
G01X512707Y-6631731D01*
G01X528693Y-6631731D01*
G01X544215Y-6627905D01*
G01X558371Y-6620475D01*
G01X561215Y-6617956D01*
G01X746486Y-6617956D01*
G01X748413Y-6633826D01*
G01X754082Y-6648773D01*
G01X763163Y-6661930D01*
G01X775129Y-6672531D01*
G01X789285Y-6679961D01*
G01X804807Y-6683786D01*
G01X820793Y-6683786D01*
G01X836315Y-6679961D01*
G01X850471Y-6672531D01*
G01X862437Y-6661930D01*
G01X871518Y-6648773D01*
G01X877187Y-6633826D01*
G01X879114Y-6617956D01*
G01X877187Y-6602086D01*
G01X871518Y-6587138D01*
G01X862437Y-6573981D01*
G01X850471Y-6563380D01*
G01X836315Y-6555951D01*
G01X820793Y-6552125D01*
G01X804807Y-6552125D01*
G01X789285Y-6555951D01*
G01X775129Y-6563380D01*
G01X763163Y-6573981D01*
G01X754082Y-6587138D01*
G01X748413Y-6602086D01*
G01X746486Y-6617956D01*
G01X746486Y-6617956D01*
G01X561215Y-6617956D01*
G01X570337Y-6609874D01*
G01X579418Y-6596718D01*
G01X585087Y-6581770D01*
G01X587014Y-6565900D01*
G01X585087Y-6550030D01*
G01X579418Y-6535082D01*
G01X570337Y-6521926D01*
G01X558371Y-6511325D01*
G01X544215Y-6503895D01*
G01X528693Y-6500069D01*
G01X512707Y-6500069D01*
G01X497185Y-6503895D01*
G01X483029Y-6511325D01*
G01X471063Y-6521926D01*
G01X461982Y-6535082D01*
G01X456313Y-6550030D01*
G01X454386Y-6565900D01*
G01X454386Y-6565900D01*
G01X35814Y-6565900D01*
G01X35814Y-6261100D01*
G01X471175Y-6261100D01*
G01X473102Y-6276970D01*
G01X478771Y-6291918D01*
G01X487853Y-6305074D01*
G01X499819Y-6315675D01*
G01X513974Y-6323105D01*
G01X529496Y-6326931D01*
G01X545483Y-6326931D01*
G01X561005Y-6323105D01*
G01X575160Y-6315675D01*
G01X587126Y-6305074D01*
G01X596208Y-6291918D01*
G01X601876Y-6276970D01*
G01X603803Y-6261100D01*
G01X601876Y-6245230D01*
G01X596208Y-6230282D01*
G01X587126Y-6217126D01*
G01X575160Y-6206525D01*
G01X561005Y-6199095D01*
G01X545483Y-6195269D01*
G01X529496Y-6195269D01*
G01X513974Y-6199095D01*
G01X499819Y-6206525D01*
G01X487853Y-6217126D01*
G01X478771Y-6230282D01*
G01X473102Y-6245230D01*
G01X471175Y-6261100D01*
G01X471175Y-6261100D01*
G01X35814Y-6261100D01*
G01X35814Y-6019800D01*
G01X911586Y-6019800D01*
G01X913513Y-6035670D01*
G01X919182Y-6050618D01*
G01X928263Y-6063774D01*
G01X940229Y-6074375D01*
G01X954385Y-6081805D01*
G01X969907Y-6085631D01*
G01X985893Y-6085631D01*
G01X1001415Y-6081805D01*
G01X1015571Y-6074375D01*
G01X1027537Y-6063774D01*
G01X1036618Y-6050618D01*
G01X1042287Y-6035670D01*
G01X1044214Y-6019800D01*
G01X1042287Y-6003930D01*
G01X1036618Y-5988982D01*
G01X1031592Y-5981700D01*
G01X1876786Y-5981700D01*
G01X1878713Y-5997570D01*
G01X1884382Y-6012518D01*
G01X1893463Y-6025674D01*
G01X1905429Y-6036275D01*
G01X1919585Y-6043705D01*
G01X1935107Y-6047531D01*
G01X1951093Y-6047531D01*
G01X1966615Y-6043705D01*
G01X1980771Y-6036275D01*
G01X1992737Y-6025674D01*
G01X2001818Y-6012518D01*
G01X2007487Y-5997570D01*
G01X2009414Y-5981700D01*
G01X2007487Y-5965830D01*
G01X2001818Y-5950882D01*
G01X1992737Y-5937726D01*
G01X1980771Y-5927125D01*
G01X1966615Y-5919695D01*
G01X1951093Y-5915869D01*
G01X1935107Y-5915869D01*
G01X1919585Y-5919695D01*
G01X1905429Y-5927125D01*
G01X1893463Y-5937726D01*
G01X1884382Y-5950882D01*
G01X1878713Y-5965830D01*
G01X1876786Y-5981700D01*
G01X1876786Y-5981700D01*
G01X1031592Y-5981700D01*
G01X1027537Y-5975826D01*
G01X1015571Y-5965225D01*
G01X1001415Y-5957795D01*
G01X985893Y-5953969D01*
G01X969907Y-5953969D01*
G01X954385Y-5957795D01*
G01X940229Y-5965225D01*
G01X928263Y-5975826D01*
G01X919182Y-5988982D01*
G01X913513Y-6003930D01*
G01X911586Y-6019800D01*
G01X911586Y-6019800D01*
G01X35814Y-6019800D01*
G01X35814Y-5918200D01*
G01X84686Y-5918200D01*
G01X86613Y-5934070D01*
G01X92282Y-5949018D01*
G01X101363Y-5962174D01*
G01X113330Y-5972775D01*
G01X127485Y-5980205D01*
G01X143007Y-5984031D01*
G01X158993Y-5984031D01*
G01X174515Y-5980205D01*
G01X188671Y-5972775D01*
G01X200637Y-5962174D01*
G01X209718Y-5949018D01*
G01X215387Y-5934070D01*
G01X217314Y-5918200D01*
G01X215387Y-5902330D01*
G01X211773Y-5892800D01*
G01X2257786Y-5892800D01*
G01X2259540Y-5907953D01*
G01X2264711Y-5922304D01*
G01X2273024Y-5935094D01*
G01X2284040Y-5945646D01*
G01X2297175Y-5953402D01*
G01X2311735Y-5957951D01*
G01X2326950Y-5959053D01*
G01X2342013Y-5956649D01*
G01X2356129Y-5950866D01*
G01X2368550Y-5942011D01*
G01X2381188Y-5950986D01*
G01X2395565Y-5956781D01*
G01X2410894Y-5959081D01*
G01X2426338Y-5957759D01*
G01X2441054Y-5952888D01*
G01X2454236Y-5944734D01*
G01X2465166Y-5933742D01*
G01X2473245Y-5920514D01*
G01X2478033Y-5905771D01*
G01X2493684Y-5908134D01*
G01X2509448Y-5906720D01*
G01X2524429Y-5901611D01*
G01X2537772Y-5893098D01*
G01X2548718Y-5881665D01*
G01X2556642Y-5867964D01*
G01X2561094Y-5852776D01*
G01X2561820Y-5836965D01*
G01X2558779Y-5821432D01*
G01X2552143Y-5807062D01*
G01X2542291Y-5794674D01*
G01X2529785Y-5784974D01*
G01X2515335Y-5778514D01*
G01X2499767Y-5775661D01*
G01X2483966Y-5776580D01*
G01X2468832Y-5781217D01*
G01X2455229Y-5789307D01*
G01X2443930Y-5800391D01*
G01X2435580Y-5813837D01*
G01X2430653Y-5828879D01*
G01X2417549Y-5826642D01*
G01X2404261Y-5827064D01*
G01X2391324Y-5830128D01*
G01X2379259Y-5835711D01*
G01X2368550Y-5843589D01*
G01X2356129Y-5834734D01*
G01X2342013Y-5828951D01*
G01X2326950Y-5826547D01*
G01X2311735Y-5827649D01*
G01X2297175Y-5832198D01*
G01X2284040Y-5839954D01*
G01X2273024Y-5850506D01*
G01X2264711Y-5863296D01*
G01X2259540Y-5877647D01*
G01X2257786Y-5892800D01*
G01X2257786Y-5892800D01*
G01X211773Y-5892800D01*
G01X209718Y-5887382D01*
G01X200637Y-5874226D01*
G01X188671Y-5863625D01*
G01X174515Y-5856195D01*
G01X158993Y-5852369D01*
G01X143007Y-5852369D01*
G01X127485Y-5856195D01*
G01X113330Y-5863625D01*
G01X101363Y-5874226D01*
G01X92282Y-5887382D01*
G01X86613Y-5902330D01*
G01X84686Y-5918200D01*
G01X84686Y-5918200D01*
G01X35814Y-5918200D01*
G01X35814Y-5740440D01*
G01X249786Y-5740440D01*
G01X251713Y-5756310D01*
G01X257382Y-5771258D01*
G01X266463Y-5784415D01*
G01X278430Y-5795016D01*
G01X292585Y-5802445D01*
G01X308107Y-5806271D01*
G01X324093Y-5806271D01*
G01X339615Y-5802445D01*
G01X353771Y-5795016D01*
G01X365737Y-5784415D01*
G01X374818Y-5771258D01*
G01X380487Y-5756310D01*
G01X382414Y-5740440D01*
G01X380487Y-5724570D01*
G01X374818Y-5709623D01*
G01X365737Y-5696466D01*
G01X355510Y-5687406D01*
G01X1889804Y-5687406D01*
G01X1893274Y-5702794D01*
G01X1900281Y-5716927D01*
G01X1910427Y-5729005D01*
G01X1923139Y-5738345D01*
G01X1937697Y-5744418D01*
G01X1953278Y-5746881D01*
G01X1953479Y-5761169D01*
G01X1956736Y-5775083D01*
G01X1962898Y-5787976D01*
G01X1971678Y-5799249D01*
G01X1982671Y-5808380D01*
G01X1995364Y-5814943D01*
G01X2009168Y-5818635D01*
G01X2012900Y-5834566D01*
G01X2020418Y-5849099D01*
G01X2031266Y-5861348D01*
G01X2044783Y-5870568D01*
G01X2060146Y-5876197D01*
G01X2076420Y-5877894D01*
G01X2092614Y-5875554D01*
G01X2107742Y-5869321D01*
G01X2120884Y-5859573D01*
G01X2131238Y-5846904D01*
G01X2138176Y-5832085D01*
G01X2141273Y-5816019D01*
G01X2140343Y-5799683D01*
G01X2135441Y-5784073D01*
G01X2126866Y-5770137D01*
G01X2115140Y-5758726D01*
G01X2100977Y-5750533D01*
G01X2085239Y-5746057D01*
G01X2082094Y-5731782D01*
G01X2075898Y-5718543D01*
G01X2066952Y-5706983D01*
G01X2080490Y-5714652D01*
G01X2095442Y-5718956D01*
G01X2110986Y-5719657D01*
G01X2126265Y-5716718D01*
G01X2140438Y-5710299D01*
G01X2152726Y-5700754D01*
G01X2162451Y-5688609D01*
G01X2169079Y-5674532D01*
G01X2172244Y-5659298D01*
G01X2171773Y-5643746D01*
G01X2167691Y-5628732D01*
G01X2160222Y-5615082D01*
G01X2149779Y-5603548D01*
G01X2136936Y-5594765D01*
G01X2122400Y-5589217D01*
G01X2106971Y-5587208D01*
G01X2091498Y-5588850D01*
G01X2076834Y-5594051D01*
G01X2063786Y-5602526D01*
G01X2053072Y-5613809D01*
G01X2045281Y-5627277D01*
G01X2040843Y-5642190D01*
G01X2040002Y-5657727D01*
G01X2042805Y-5673031D01*
G01X2049096Y-5687262D01*
G01X2058530Y-5699635D01*
G01X2047217Y-5692949D01*
G01X2034809Y-5688625D01*
G01X2021791Y-5686833D01*
G01X2021392Y-5671063D01*
G01X2017279Y-5655835D01*
G01X2009687Y-5642008D01*
G01X1999043Y-5630366D01*
G01X1985951Y-5621566D01*
G01X1971151Y-5616108D01*
G01X1955481Y-5614300D01*
G01X1939827Y-5616244D01*
G01X1925075Y-5621831D01*
G01X1912060Y-5630743D01*
G01X1912060Y-5630743D01*
G01X1901518Y-5642478D01*
G01X1894045Y-5656370D01*
G01X1890066Y-5671634D01*
G01X1889804Y-5687406D01*
G01X355510Y-5687406D01*
G01X353771Y-5685865D01*
G01X339615Y-5678436D01*
G01X324093Y-5674610D01*
G01X308107Y-5674610D01*
G01X292585Y-5678436D01*
G01X278430Y-5685865D01*
G01X266463Y-5696466D01*
G01X257382Y-5709623D01*
G01X251713Y-5724570D01*
G01X249786Y-5740440D01*
G01X249786Y-5740440D01*
G01X35814Y-5740440D01*
G01X35814Y-5484787D01*
G01X1533906Y-5484787D01*
G01X1535234Y-5499705D01*
G01X1539877Y-5513944D01*
G01X1547596Y-5526778D01*
G01X1557998Y-5537552D01*
G01X1570553Y-5545718D01*
G01X1584620Y-5550858D01*
G01X1599482Y-5552710D01*
G01X1614380Y-5551180D01*
G01X1628555Y-5546346D01*
G01X1641284Y-5538455D01*
G01X1653614Y-5546956D01*
G01X1667537Y-5552473D01*
G01X1682343Y-5554726D01*
G01X1697277Y-5553598D01*
G01X1711577Y-5549148D01*
G01X1724514Y-5541603D01*
G01X1735428Y-5531347D01*
G01X1743762Y-5518903D01*
G01X1749091Y-5504907D01*
G01X1751144Y-5490072D01*
G01X1749815Y-5475154D01*
G01X1745173Y-5460915D01*
G01X1737453Y-5448081D01*
G01X1727051Y-5437307D01*
G01X1714496Y-5429141D01*
G01X1700429Y-5424001D01*
G01X1685568Y-5422149D01*
G01X1670670Y-5423679D01*
G01X1656495Y-5428513D01*
G01X1643766Y-5436404D01*
G01X1631436Y-5427903D01*
G01X1617513Y-5422386D01*
G01X1602706Y-5420133D01*
G01X1587772Y-5421261D01*
G01X1573472Y-5425711D01*
G01X1560535Y-5433256D01*
G01X1549621Y-5443512D01*
G01X1541287Y-5455956D01*
G01X1535958Y-5469952D01*
G01X1533906Y-5484787D01*
G01X1533906Y-5484787D01*
G01X35814Y-5484787D01*
G01X35814Y-5181600D01*
G01X6728186Y-5181600D01*
G01X6730113Y-5197470D01*
G01X6735782Y-5212418D01*
G01X6744863Y-5225574D01*
G01X6756829Y-5236175D01*
G01X6770985Y-5243605D01*
G01X6786507Y-5247431D01*
G01X6802493Y-5247431D01*
G01X6818015Y-5243605D01*
G01X6832171Y-5236175D01*
G01X6844137Y-5225574D01*
G01X6853218Y-5212418D01*
G01X6858887Y-5197470D01*
G01X6860814Y-5181600D01*
G01X6858887Y-5165730D01*
G01X6853218Y-5150782D01*
G01X6844137Y-5137626D01*
G01X6832171Y-5127025D01*
G01X6818015Y-5119595D01*
G01X6802493Y-5115769D01*
G01X6786507Y-5115769D01*
G01X6770985Y-5119595D01*
G01X6756829Y-5127025D01*
G01X6744863Y-5137626D01*
G01X6735782Y-5150782D01*
G01X6730113Y-5165730D01*
G01X6728186Y-5181600D01*
G01X6728186Y-5181600D01*
G01X35814Y-5181600D01*
G01X35814Y-5101764D01*
G01X1740722Y-5101764D01*
G01X1742649Y-5117634D01*
G01X1748318Y-5132581D01*
G01X1757399Y-5145738D01*
G01X1769366Y-5156339D01*
G01X1783521Y-5163768D01*
G01X1799043Y-5167594D01*
G01X1815030Y-5167594D01*
G01X1830552Y-5163768D01*
G01X1844707Y-5156339D01*
G01X1856673Y-5145738D01*
G01X1865754Y-5132581D01*
G01X1871423Y-5117634D01*
G01X1873350Y-5101764D01*
G01X1871423Y-5085894D01*
G01X1865754Y-5070946D01*
G01X1856673Y-5057789D01*
G01X1844707Y-5047188D01*
G01X1830552Y-5039759D01*
G01X1815030Y-5035933D01*
G01X1799043Y-5035933D01*
G01X1783521Y-5039759D01*
G01X1769366Y-5047188D01*
G01X1757399Y-5057789D01*
G01X1748318Y-5070946D01*
G01X1742649Y-5085894D01*
G01X1740722Y-5101764D01*
G01X1740722Y-5101764D01*
G01X35814Y-5101764D01*
G01X35814Y-4864100D01*
G01X670286Y-4864100D01*
G01X672213Y-4879970D01*
G01X677882Y-4894918D01*
G01X686963Y-4908074D01*
G01X698929Y-4918675D01*
G01X713085Y-4926105D01*
G01X728607Y-4929931D01*
G01X744593Y-4929931D01*
G01X760115Y-4926105D01*
G01X774271Y-4918675D01*
G01X786237Y-4908074D01*
G01X795318Y-4894918D01*
G01X800987Y-4879970D01*
G01X802914Y-4864100D01*
G01X800987Y-4848230D01*
G01X795318Y-4833282D01*
G01X786237Y-4820126D01*
G01X774271Y-4809525D01*
G01X760115Y-4802095D01*
G01X744593Y-4798269D01*
G01X728607Y-4798269D01*
G01X713085Y-4802095D01*
G01X698929Y-4809525D01*
G01X686963Y-4820126D01*
G01X677882Y-4833282D01*
G01X672213Y-4848230D01*
G01X670286Y-4864100D01*
G01X670286Y-4864100D01*
G01X35814Y-4864100D01*
G01X35814Y-4648200D01*
G01X2029186Y-4648200D01*
G01X2031113Y-4664070D01*
G01X2036782Y-4679018D01*
G01X2045863Y-4692174D01*
G01X2057829Y-4702775D01*
G01X2071985Y-4710205D01*
G01X2087507Y-4714031D01*
G01X2103493Y-4714031D01*
G01X2119015Y-4710205D01*
G01X2133171Y-4702775D01*
G01X2145137Y-4692174D01*
G01X2154218Y-4679018D01*
G01X2159887Y-4664070D01*
G01X2161814Y-4648200D01*
G01X2159887Y-4632330D01*
G01X2154218Y-4617382D01*
G01X2149192Y-4610100D01*
G01X3667486Y-4610100D01*
G01X3669413Y-4625970D01*
G01X3675082Y-4640918D01*
G01X3684163Y-4654074D01*
G01X3696129Y-4664675D01*
G01X3710285Y-4672105D01*
G01X3725807Y-4675931D01*
G01X3741793Y-4675931D01*
G01X3757315Y-4672105D01*
G01X3771471Y-4664675D01*
G01X3783437Y-4654074D01*
G01X3792518Y-4640918D01*
G01X3798187Y-4625970D01*
G01X3800114Y-4610100D01*
G01X3798187Y-4594230D01*
G01X3792518Y-4579282D01*
G01X3783437Y-4566126D01*
G01X3771471Y-4555525D01*
G01X3757315Y-4548095D01*
G01X3741793Y-4544269D01*
G01X3725807Y-4544269D01*
G01X3710285Y-4548095D01*
G01X3696129Y-4555525D01*
G01X3684163Y-4566126D01*
G01X3675082Y-4579282D01*
G01X3669413Y-4594230D01*
G01X3667486Y-4610100D01*
G01X3667486Y-4610100D01*
G01X2149192Y-4610100D01*
G01X2145137Y-4604226D01*
G01X2133171Y-4593625D01*
G01X2119015Y-4586195D01*
G01X2103493Y-4582369D01*
G01X2087507Y-4582369D01*
G01X2071985Y-4586195D01*
G01X2057829Y-4593625D01*
G01X2045863Y-4604226D01*
G01X2036782Y-4617382D01*
G01X2031113Y-4632330D01*
G01X2029186Y-4648200D01*
G01X2029186Y-4648200D01*
G01X35814Y-4648200D01*
G01X35814Y-4495800D01*
G01X5462098Y-4495800D01*
G01X5464025Y-4511670D01*
G01X5469693Y-4526618D01*
G01X5478775Y-4539774D01*
G01X5490741Y-4550375D01*
G01X5504896Y-4557805D01*
G01X5520418Y-4561631D01*
G01X5536405Y-4561631D01*
G01X5551927Y-4557805D01*
G01X5566082Y-4550375D01*
G01X5578048Y-4539774D01*
G01X5587130Y-4526618D01*
G01X5592799Y-4511670D01*
G01X5594726Y-4495800D01*
G01X5593572Y-4486295D01*
G01X6229691Y-4486295D01*
G01X6231618Y-4502165D01*
G01X6237287Y-4517113D01*
G01X6246368Y-4530269D01*
G01X6258334Y-4540870D01*
G01X6272490Y-4548300D01*
G01X6288012Y-4552126D01*
G01X6303998Y-4552126D01*
G01X6319520Y-4548300D01*
G01X6333676Y-4540870D01*
G01X6345642Y-4530269D01*
G01X6354723Y-4517113D01*
G01X6360392Y-4502165D01*
G01X6362319Y-4486295D01*
G01X6360392Y-4470425D01*
G01X6354723Y-4455477D01*
G01X6345642Y-4442321D01*
G01X6333676Y-4431720D01*
G01X6319520Y-4424290D01*
G01X6303998Y-4420465D01*
G01X6288012Y-4420465D01*
G01X6272490Y-4424290D01*
G01X6258334Y-4431720D01*
G01X6246368Y-4442321D01*
G01X6237287Y-4455477D01*
G01X6231618Y-4470425D01*
G01X6229691Y-4486295D01*
G01X6229691Y-4486295D01*
G01X5593572Y-4486295D01*
G01X5592799Y-4479930D01*
G01X5587130Y-4464982D01*
G01X5578048Y-4451826D01*
G01X5566082Y-4441225D01*
G01X5551927Y-4433795D01*
G01X5536405Y-4429969D01*
G01X5520418Y-4429969D01*
G01X5504896Y-4433795D01*
G01X5490741Y-4441225D01*
G01X5478775Y-4451826D01*
G01X5469693Y-4464982D01*
G01X5464025Y-4479930D01*
G01X5462098Y-4495800D01*
G01X5462098Y-4495800D01*
G01X35814Y-4495800D01*
G01X35814Y-4292600D01*
G01X1952986Y-4292600D01*
G01X1954913Y-4308470D01*
G01X1960582Y-4323418D01*
G01X1969663Y-4336574D01*
G01X1981629Y-4347175D01*
G01X1995785Y-4354605D01*
G01X2011307Y-4358431D01*
G01X2027293Y-4358431D01*
G01X2042815Y-4354605D01*
G01X2056971Y-4347175D01*
G01X2068937Y-4336574D01*
G01X2078018Y-4323418D01*
G01X2083687Y-4308470D01*
G01X2085614Y-4292600D01*
G01X2083687Y-4276730D01*
G01X2078018Y-4261782D01*
G01X2068937Y-4248626D01*
G01X2056971Y-4238025D01*
G01X2042815Y-4230595D01*
G01X2027293Y-4226769D01*
G01X2011307Y-4226769D01*
G01X1995785Y-4230595D01*
G01X1981629Y-4238025D01*
G01X1969663Y-4248626D01*
G01X1960582Y-4261782D01*
G01X1954913Y-4276730D01*
G01X1952986Y-4292600D01*
G01X1952986Y-4292600D01*
G01X35814Y-4292600D01*
G01X35814Y-4221797D01*
G01X1813286Y-4221797D01*
G01X1815213Y-4237667D01*
G01X1820882Y-4252615D01*
G01X1829963Y-4265772D01*
G01X1841929Y-4276373D01*
G01X1856085Y-4283802D01*
G01X1871607Y-4287628D01*
G01X1887593Y-4287628D01*
G01X1903115Y-4283802D01*
G01X1917271Y-4276373D01*
G01X1929237Y-4265772D01*
G01X1938318Y-4252615D01*
G01X1943987Y-4237667D01*
G01X1945914Y-4221797D01*
G01X1943987Y-4205928D01*
G01X1938326Y-4191000D01*
G01X5204186Y-4191000D01*
G01X5206113Y-4206870D01*
G01X5211782Y-4221818D01*
G01X5220863Y-4234974D01*
G01X5232829Y-4245575D01*
G01X5246985Y-4253005D01*
G01X5262507Y-4256831D01*
G01X5278493Y-4256831D01*
G01X5294015Y-4253005D01*
G01X5308171Y-4245575D01*
G01X5320137Y-4234974D01*
G01X5329218Y-4221818D01*
G01X5334887Y-4206870D01*
G01X5336814Y-4191000D01*
G01X5334887Y-4175130D01*
G01X5329218Y-4160182D01*
G01X5320137Y-4147026D01*
G01X5308171Y-4136425D01*
G01X5294015Y-4128995D01*
G01X5278493Y-4125169D01*
G01X5262507Y-4125169D01*
G01X5246985Y-4128995D01*
G01X5232829Y-4136425D01*
G01X5220863Y-4147026D01*
G01X5211782Y-4160182D01*
G01X5206113Y-4175130D01*
G01X5204186Y-4191000D01*
G01X5204186Y-4191000D01*
G01X1938326Y-4191000D01*
G01X1938318Y-4190980D01*
G01X1929237Y-4177823D01*
G01X1917271Y-4167222D01*
G01X1903115Y-4159793D01*
G01X1887593Y-4155967D01*
G01X1871607Y-4155967D01*
G01X1856085Y-4159793D01*
G01X1841929Y-4167222D01*
G01X1829963Y-4177823D01*
G01X1820882Y-4190980D01*
G01X1815213Y-4205928D01*
G01X1813286Y-4221797D01*
G01X1813286Y-4221797D01*
G01X35814Y-4221797D01*
G01X35814Y-4151409D01*
G01X1051303Y-4151409D01*
G01X1052865Y-4167286D01*
G01X1052865Y-4167286D01*
G01X1058174Y-4182329D01*
G01X1066922Y-4195670D01*
G01X1078602Y-4206535D01*
G01X1092540Y-4214297D01*
G01X1107928Y-4218505D01*
G01X1123875Y-4218916D01*
G01X1139460Y-4215508D01*
G01X1153779Y-4208475D01*
G01X1166005Y-4198227D01*
G01X1175429Y-4185355D01*
G01X1181507Y-4170605D01*
G01X1193259Y-4181393D01*
G01X1207248Y-4189062D01*
G01X1222664Y-4193168D01*
G01X1238614Y-4193473D01*
G01X1254175Y-4189961D01*
G01X1268447Y-4182834D01*
G01X1280605Y-4172504D01*
G01X1289943Y-4159571D01*
G01X1295923Y-4144781D01*
G01X1298197Y-4128991D01*
G01X1296635Y-4113114D01*
G01X1291326Y-4098071D01*
G01X1282578Y-4084730D01*
G01X1270898Y-4073865D01*
G01X1256960Y-4066103D01*
G01X1241572Y-4061895D01*
G01X1225625Y-4061484D01*
G01X1210040Y-4064892D01*
G01X1195721Y-4071925D01*
G01X1183495Y-4082173D01*
G01X1174071Y-4095045D01*
G01X1167993Y-4109795D01*
G01X1156241Y-4099007D01*
G01X1142252Y-4091338D01*
G01X1126836Y-4087232D01*
G01X1110886Y-4086927D01*
G01X1095325Y-4090439D01*
G01X1081053Y-4097566D01*
G01X1068895Y-4107896D01*
G01X1059557Y-4120829D01*
G01X1053577Y-4135619D01*
G01X1051303Y-4151409D01*
G01X35814Y-4151409D01*
G01X35814Y-3975100D01*
G01X1326907Y-3975100D01*
G01X1328834Y-3990970D01*
G01X1334503Y-4005918D01*
G01X1343584Y-4019074D01*
G01X1355551Y-4029675D01*
G01X1369706Y-4037105D01*
G01X1385228Y-4040931D01*
G01X1401215Y-4040931D01*
G01X1416737Y-4037105D01*
G01X1430892Y-4029675D01*
G01X1442858Y-4019074D01*
G01X1451939Y-4005918D01*
G01X1453994Y-4000500D01*
G01X1864086Y-4000500D01*
G01X1866013Y-4016370D01*
G01X1871682Y-4031318D01*
G01X1880763Y-4044474D01*
G01X1892729Y-4055075D01*
G01X1906885Y-4062505D01*
G01X1922407Y-4066331D01*
G01X1938393Y-4066331D01*
G01X1953915Y-4062505D01*
G01X1968071Y-4055075D01*
G01X1980037Y-4044474D01*
G01X1989118Y-4031318D01*
G01X1994787Y-4016370D01*
G01X1995172Y-4013200D01*
G01X3845286Y-4013200D01*
G01X3847227Y-4029126D01*
G01X3852936Y-4044121D01*
G01X3862079Y-4057305D01*
G01X3874121Y-4067907D01*
G01X3888357Y-4075307D01*
G01X3903953Y-4079072D01*
G01X3919997Y-4078980D01*
G01X3935549Y-4075038D01*
G01X3949700Y-4067477D01*
G01X3963851Y-4075038D01*
G01X3979403Y-4078980D01*
G01X3995447Y-4079072D01*
G01X4011043Y-4075307D01*
G01X4025279Y-4067907D01*
G01X4037321Y-4057305D01*
G01X4046464Y-4044121D01*
G01X4052173Y-4029126D01*
G01X4054114Y-4013200D01*
G01X4052173Y-3997274D01*
G01X4046464Y-3982279D01*
G01X4037321Y-3969095D01*
G01X4025279Y-3958493D01*
G01X4011043Y-3951093D01*
G01X3995447Y-3947328D01*
G01X3979403Y-3947420D01*
G01X3963851Y-3951362D01*
G01X3949700Y-3958923D01*
G01X3935549Y-3951362D01*
G01X3919997Y-3947420D01*
G01X3903953Y-3947328D01*
G01X3888357Y-3951093D01*
G01X3874121Y-3958493D01*
G01X3862079Y-3969095D01*
G01X3852936Y-3982279D01*
G01X3847227Y-3997274D01*
G01X3845286Y-4013200D01*
G01X3845286Y-4013200D01*
G01X1995172Y-4013200D01*
G01X1996714Y-4000500D01*
G01X1994787Y-3984630D01*
G01X1989118Y-3969682D01*
G01X1980037Y-3956526D01*
G01X1968071Y-3945925D01*
G01X1953915Y-3938495D01*
G01X1938393Y-3934669D01*
G01X1922407Y-3934669D01*
G01X1906885Y-3938495D01*
G01X1892729Y-3945925D01*
G01X1880763Y-3956526D01*
G01X1871682Y-3969682D01*
G01X1866013Y-3984630D01*
G01X1864086Y-4000500D01*
G01X1864086Y-4000500D01*
G01X1453994Y-4000500D01*
G01X1457608Y-3990970D01*
G01X1459535Y-3975100D01*
G01X1457608Y-3959230D01*
G01X1451939Y-3944282D01*
G01X1442858Y-3931126D01*
G01X1435153Y-3924300D01*
G01X2054586Y-3924300D01*
G01X2056513Y-3940170D01*
G01X2062182Y-3955118D01*
G01X2071263Y-3968274D01*
G01X2083229Y-3978875D01*
G01X2097385Y-3986305D01*
G01X2112907Y-3990131D01*
G01X2128893Y-3990131D01*
G01X2144415Y-3986305D01*
G01X2158571Y-3978875D01*
G01X2170537Y-3968274D01*
G01X2179618Y-3955118D01*
G01X2185287Y-3940170D01*
G01X2187214Y-3924300D01*
G01X4962886Y-3924300D01*
G01X4964813Y-3940170D01*
G01X4970482Y-3955118D01*
G01X4979563Y-3968274D01*
G01X4991529Y-3978875D01*
G01X5005685Y-3986305D01*
G01X5021207Y-3990131D01*
G01X5037193Y-3990131D01*
G01X5052715Y-3986305D01*
G01X5066871Y-3978875D01*
G01X5078837Y-3968274D01*
G01X5087918Y-3955118D01*
G01X5093587Y-3940170D01*
G01X5095514Y-3924300D01*
G01X5093587Y-3908430D01*
G01X5087918Y-3893482D01*
G01X5082892Y-3886200D01*
G01X5407386Y-3886200D01*
G01X5409313Y-3902070D01*
G01X5414982Y-3917018D01*
G01X5424063Y-3930174D01*
G01X5436029Y-3940775D01*
G01X5450185Y-3948205D01*
G01X5465707Y-3952031D01*
G01X5481693Y-3952031D01*
G01X5497215Y-3948205D01*
G01X5511371Y-3940775D01*
G01X5523337Y-3930174D01*
G01X5532418Y-3917018D01*
G01X5538087Y-3902070D01*
G01X5540014Y-3886200D01*
G01X5538087Y-3870330D01*
G01X5532418Y-3855382D01*
G01X5523337Y-3842226D01*
G01X5511371Y-3831625D01*
G01X5497215Y-3824195D01*
G01X5481693Y-3820369D01*
G01X5465707Y-3820369D01*
G01X5450185Y-3824195D01*
G01X5436029Y-3831625D01*
G01X5424063Y-3842226D01*
G01X5414982Y-3855382D01*
G01X5409313Y-3870330D01*
G01X5407386Y-3886200D01*
G01X5407386Y-3886200D01*
G01X5082892Y-3886200D01*
G01X5078837Y-3880326D01*
G01X5066871Y-3869725D01*
G01X5052715Y-3862295D01*
G01X5037193Y-3858469D01*
G01X5021207Y-3858469D01*
G01X5005685Y-3862295D01*
G01X4991529Y-3869725D01*
G01X4979563Y-3880326D01*
G01X4970482Y-3893482D01*
G01X4964813Y-3908430D01*
G01X4962886Y-3924300D01*
G01X4962886Y-3924300D01*
G01X2187214Y-3924300D01*
G01X2185287Y-3908430D01*
G01X2179618Y-3893482D01*
G01X2170537Y-3880326D01*
G01X2158571Y-3869725D01*
G01X2144415Y-3862295D01*
G01X2128893Y-3858469D01*
G01X2112907Y-3858469D01*
G01X2097385Y-3862295D01*
G01X2083229Y-3869725D01*
G01X2071263Y-3880326D01*
G01X2062182Y-3893482D01*
G01X2056513Y-3908430D01*
G01X2054586Y-3924300D01*
G01X2054586Y-3924300D01*
G01X1435153Y-3924300D01*
G01X1430892Y-3920525D01*
G01X1416737Y-3913095D01*
G01X1401215Y-3909269D01*
G01X1385228Y-3909269D01*
G01X1369706Y-3913095D01*
G01X1355551Y-3920525D01*
G01X1343584Y-3931126D01*
G01X1334503Y-3944282D01*
G01X1328834Y-3959230D01*
G01X1326907Y-3975100D01*
G01X1326907Y-3975100D01*
G01X35814Y-3975100D01*
G01X35814Y-3760952D01*
G01X4961134Y-3760952D01*
G01X4963061Y-3776822D01*
G01X4968730Y-3791769D01*
G01X4977812Y-3804926D01*
G01X4989778Y-3815527D01*
G01X5003933Y-3822956D01*
G01X5019455Y-3826782D01*
G01X5035442Y-3826782D01*
G01X5050964Y-3822956D01*
G01X5065119Y-3815527D01*
G01X5077085Y-3804926D01*
G01X5086167Y-3791769D01*
G01X5091836Y-3776822D01*
G01X5093762Y-3760952D01*
G01X5091836Y-3745082D01*
G01X5086167Y-3730134D01*
G01X5079931Y-3721100D01*
G01X5394686Y-3721100D01*
G01X5396613Y-3736970D01*
G01X5402282Y-3751918D01*
G01X5411363Y-3765074D01*
G01X5423329Y-3775675D01*
G01X5437485Y-3783105D01*
G01X5453007Y-3786931D01*
G01X5468993Y-3786931D01*
G01X5484515Y-3783105D01*
G01X5498671Y-3775675D01*
G01X5510637Y-3765074D01*
G01X5519718Y-3751918D01*
G01X5525387Y-3736970D01*
G01X5527314Y-3721100D01*
G01X5525772Y-3708400D01*
G01X5559786Y-3708400D01*
G01X5561713Y-3724270D01*
G01X5567382Y-3739218D01*
G01X5576463Y-3752374D01*
G01X5588429Y-3762975D01*
G01X5602585Y-3770405D01*
G01X5618107Y-3774231D01*
G01X5634093Y-3774231D01*
G01X5645708Y-3771368D01*
G01X5826813Y-3771368D01*
G01X5830106Y-3786398D01*
G01X5836774Y-3800266D01*
G01X5846459Y-3812223D01*
G01X5858639Y-3821626D01*
G01X5872658Y-3827969D01*
G01X5887761Y-3830910D01*
G01X5903136Y-3830292D01*
G01X5917954Y-3826146D01*
G01X5931418Y-3818697D01*
G01X5942803Y-3808346D01*
G01X5951495Y-3795649D01*
G01X5957028Y-3781291D01*
G01X5959102Y-3766044D01*
G01X5972320Y-3764139D01*
G01X5984889Y-3759624D01*
G01X5996298Y-3752683D01*
G01X6006085Y-3743596D01*
G01X6001979Y-3758176D01*
G01X6001288Y-3773306D01*
G01X6004049Y-3788199D01*
G01X5991165Y-3796245D01*
G01X5980449Y-3807011D01*
G01X5972465Y-3819934D01*
G01X5967631Y-3834334D01*
G01X5966200Y-3849456D01*
G01X5968248Y-3864508D01*
G01X5973667Y-3878698D01*
G01X5982173Y-3891283D01*
G01X5993320Y-3901602D01*
G01X5993320Y-3901602D01*
G01X5979566Y-3909686D01*
G01X5968141Y-3920820D01*
G01X5959705Y-3934361D01*
G01X5954748Y-3949525D01*
G01X5953555Y-3965433D01*
G01X5956197Y-3981167D01*
G01X5962519Y-3995814D01*
G01X5972157Y-4008527D01*
G01X5984552Y-4018571D01*
G01X5998987Y-4025363D01*
G01X6014627Y-4028512D01*
G01X6030566Y-4027834D01*
G01X6029830Y-4042971D01*
G01X6032550Y-4057879D01*
G01X6038584Y-4071780D01*
G01X6047616Y-4083949D01*
G01X6059175Y-4093749D01*
G01X6072657Y-4100670D01*
G01X6087358Y-4104349D01*
G01X6102510Y-4104594D01*
G01X6117322Y-4101393D01*
G01X6131021Y-4094912D01*
G01X6142891Y-4085491D01*
G01X6152312Y-4073621D01*
G01X6158793Y-4059922D01*
G01X6161994Y-4045110D01*
G01X6161749Y-4029958D01*
G01X6158070Y-4015257D01*
G01X6151149Y-4001775D01*
G01X6141349Y-3990216D01*
G01X6129180Y-3981184D01*
G01X6115279Y-3975150D01*
G01X6100371Y-3972430D01*
G01X6085234Y-3973166D01*
G01X6086005Y-3958603D01*
G01X6083574Y-3944224D01*
G01X6078059Y-3930724D01*
G01X6069727Y-3918755D01*
G01X6058980Y-3908898D01*
G01X6072829Y-3900742D01*
G01X6084309Y-3889493D01*
G01X6092746Y-3875813D01*
G01X6097643Y-3860505D01*
G01X6098715Y-3844469D01*
G01X6095896Y-3828646D01*
G01X6108372Y-3820923D01*
G01X6118844Y-3810646D01*
G01X6126800Y-3798318D01*
G01X6131850Y-3784542D01*
G01X6133747Y-3769993D01*
G01X6132399Y-3755383D01*
G01X6127871Y-3741427D01*
G01X6120385Y-3728808D01*
G01X6110307Y-3718144D01*
G01X6098131Y-3709958D01*
G01X6084452Y-3704649D01*
G01X6069941Y-3702478D01*
G01X6055308Y-3703551D01*
G01X6041269Y-3707816D01*
G01X6028512Y-3715063D01*
G01X6017660Y-3724938D01*
G01X6021664Y-3710976D01*
G01X6022531Y-3696476D01*
G01X6020221Y-3682136D01*
G01X6014844Y-3668643D01*
G01X6006659Y-3656644D01*
G01X5996057Y-3646715D01*
G01X5983548Y-3639332D01*
G01X5969732Y-3634850D01*
G01X5955271Y-3633483D01*
G01X5940860Y-3635298D01*
G01X5927189Y-3640207D01*
G01X5914915Y-3647974D01*
G01X5904627Y-3658227D01*
G01X5896817Y-3670474D01*
G01X5891862Y-3684128D01*
G01X5889998Y-3698533D01*
G01X5874804Y-3700963D01*
G01X5860578Y-3706828D01*
G01X5848088Y-3715815D01*
G01X5838005Y-3727438D01*
G01X5830872Y-3741072D01*
G01X5827073Y-3755983D01*
G01X5826813Y-3771368D01*
G01X5645708Y-3771368D01*
G01X5649615Y-3770405D01*
G01X5663771Y-3762975D01*
G01X5675737Y-3752374D01*
G01X5684818Y-3739218D01*
G01X5690487Y-3724270D01*
G01X5692414Y-3708400D01*
G01X5690487Y-3692530D01*
G01X5684818Y-3677582D01*
G01X5675737Y-3664426D01*
G01X5663771Y-3653825D01*
G01X5649615Y-3646395D01*
G01X5634093Y-3642569D01*
G01X5618107Y-3642569D01*
G01X5602585Y-3646395D01*
G01X5588429Y-3653825D01*
G01X5576463Y-3664426D01*
G01X5567382Y-3677582D01*
G01X5561713Y-3692530D01*
G01X5559786Y-3708400D01*
G01X5559786Y-3708400D01*
G01X5525772Y-3708400D01*
G01X5525387Y-3705230D01*
G01X5519718Y-3690282D01*
G01X5510637Y-3677126D01*
G01X5498671Y-3666525D01*
G01X5484515Y-3659095D01*
G01X5468993Y-3655269D01*
G01X5453007Y-3655269D01*
G01X5437485Y-3659095D01*
G01X5423329Y-3666525D01*
G01X5411363Y-3677126D01*
G01X5402282Y-3690282D01*
G01X5396613Y-3705230D01*
G01X5394686Y-3721100D01*
G01X5394686Y-3721100D01*
G01X5079931Y-3721100D01*
G01X5077085Y-3716977D01*
G01X5065119Y-3706376D01*
G01X5050964Y-3698947D01*
G01X5035442Y-3695121D01*
G01X5019455Y-3695121D01*
G01X5003933Y-3698947D01*
G01X4989778Y-3706376D01*
G01X4977812Y-3716977D01*
G01X4968730Y-3730134D01*
G01X4963061Y-3745082D01*
G01X4961134Y-3760952D01*
G01X4961134Y-3760952D01*
G01X35814Y-3760952D01*
G01X35814Y-3568700D01*
G01X5547086Y-3568700D01*
G01X5549013Y-3584570D01*
G01X5554682Y-3599518D01*
G01X5563763Y-3612674D01*
G01X5575729Y-3623275D01*
G01X5589885Y-3630705D01*
G01X5605407Y-3634531D01*
G01X5621393Y-3634531D01*
G01X5636915Y-3630705D01*
G01X5651071Y-3623275D01*
G01X5663037Y-3612674D01*
G01X5672118Y-3599518D01*
G01X5677787Y-3584570D01*
G01X5679714Y-3568700D01*
G01X5915386Y-3568700D01*
G01X5917313Y-3584570D01*
G01X5922982Y-3599518D01*
G01X5932063Y-3612674D01*
G01X5944029Y-3623275D01*
G01X5958185Y-3630705D01*
G01X5973707Y-3634531D01*
G01X5989693Y-3634531D01*
G01X6005215Y-3630705D01*
G01X6019371Y-3623275D01*
G01X6031337Y-3612674D01*
G01X6040418Y-3599518D01*
G01X6046087Y-3584570D01*
G01X6048014Y-3568700D01*
G01X6046087Y-3552830D01*
G01X6040418Y-3537882D01*
G01X6031337Y-3524726D01*
G01X6019371Y-3514125D01*
G01X6005215Y-3506695D01*
G01X5989693Y-3502869D01*
G01X5973707Y-3502869D01*
G01X5958185Y-3506695D01*
G01X5944029Y-3514125D01*
G01X5932063Y-3524726D01*
G01X5922982Y-3537882D01*
G01X5917313Y-3552830D01*
G01X5915386Y-3568700D01*
G01X5915386Y-3568700D01*
G01X5679714Y-3568700D01*
G01X5677787Y-3552830D01*
G01X5672118Y-3537882D01*
G01X5663037Y-3524726D01*
G01X5651071Y-3514125D01*
G01X5636915Y-3506695D01*
G01X5621393Y-3502869D01*
G01X5605407Y-3502869D01*
G01X5589885Y-3506695D01*
G01X5575729Y-3514125D01*
G01X5563763Y-3524726D01*
G01X5554682Y-3537882D01*
G01X5549013Y-3552830D01*
G01X5547086Y-3568700D01*
G01X5547086Y-3568700D01*
G01X35814Y-3568700D01*
G01X35814Y-3302000D01*
G01X6283686Y-3302000D01*
G01X6285613Y-3317870D01*
G01X6291282Y-3332818D01*
G01X6300363Y-3345974D01*
G01X6312329Y-3356575D01*
G01X6326485Y-3364005D01*
G01X6342007Y-3367831D01*
G01X6357993Y-3367831D01*
G01X6373515Y-3364005D01*
G01X6387671Y-3356575D01*
G01X6399637Y-3345974D01*
G01X6408718Y-3332818D01*
G01X6414387Y-3317870D01*
G01X6416314Y-3302000D01*
G01X6414387Y-3286130D01*
G01X6408718Y-3271182D01*
G01X6399637Y-3258026D01*
G01X6387671Y-3247425D01*
G01X6373515Y-3239995D01*
G01X6357993Y-3236169D01*
G01X6342007Y-3236169D01*
G01X6326485Y-3239995D01*
G01X6312329Y-3247425D01*
G01X6300363Y-3258026D01*
G01X6291282Y-3271182D01*
G01X6285613Y-3286130D01*
G01X6283686Y-3302000D01*
G01X6283686Y-3302000D01*
G01X35814Y-3302000D01*
G01X35814Y-3175000D01*
G01X581386Y-3175000D01*
G01X583313Y-3190870D01*
G01X588982Y-3205818D01*
G01X598063Y-3218974D01*
G01X610029Y-3229575D01*
G01X624185Y-3237005D01*
G01X639707Y-3240831D01*
G01X655693Y-3240831D01*
G01X671215Y-3237005D01*
G01X685371Y-3229575D01*
G01X697337Y-3218974D01*
G01X706418Y-3205818D01*
G01X708473Y-3200400D01*
G01X797286Y-3200400D01*
G01X799213Y-3216270D01*
G01X804882Y-3231218D01*
G01X813963Y-3244374D01*
G01X825929Y-3254975D01*
G01X840085Y-3262405D01*
G01X855607Y-3266231D01*
G01X871593Y-3266231D01*
G01X887115Y-3262405D01*
G01X901271Y-3254975D01*
G01X913237Y-3244374D01*
G01X922318Y-3231218D01*
G01X927987Y-3216270D01*
G01X929914Y-3200400D01*
G01X927987Y-3184530D01*
G01X922318Y-3169582D01*
G01X913237Y-3156426D01*
G01X901271Y-3145825D01*
G01X887115Y-3138395D01*
G01X871593Y-3134569D01*
G01X855607Y-3134569D01*
G01X840085Y-3138395D01*
G01X825929Y-3145825D01*
G01X813963Y-3156426D01*
G01X804882Y-3169582D01*
G01X799213Y-3184530D01*
G01X797286Y-3200400D01*
G01X797286Y-3200400D01*
G01X708473Y-3200400D01*
G01X712087Y-3190870D01*
G01X714014Y-3175000D01*
G01X712087Y-3159130D01*
G01X706418Y-3144182D01*
G01X697337Y-3131026D01*
G01X685371Y-3120425D01*
G01X671215Y-3112995D01*
G01X665149Y-3111500D01*
G01X3527786Y-3111500D01*
G01X3529713Y-3127370D01*
G01X3535382Y-3142318D01*
G01X3544463Y-3155474D01*
G01X3556429Y-3166075D01*
G01X3570585Y-3173505D01*
G01X3586107Y-3177331D01*
G01X3602093Y-3177331D01*
G01X3617615Y-3173505D01*
G01X3631771Y-3166075D01*
G01X3643737Y-3155474D01*
G01X3652818Y-3142318D01*
G01X3658487Y-3127370D01*
G01X3660414Y-3111500D01*
G01X3658872Y-3098800D01*
G01X5216886Y-3098800D01*
G01X5218813Y-3114670D01*
G01X5224482Y-3129618D01*
G01X5233563Y-3142774D01*
G01X5245529Y-3153375D01*
G01X5259685Y-3160805D01*
G01X5275207Y-3164631D01*
G01X5291193Y-3164631D01*
G01X5306715Y-3160805D01*
G01X5320871Y-3153375D01*
G01X5332837Y-3142774D01*
G01X5341918Y-3129618D01*
G01X5347587Y-3114670D01*
G01X5349514Y-3098800D01*
G01X5347587Y-3082930D01*
G01X5341918Y-3067982D01*
G01X5332837Y-3054826D01*
G01X5320871Y-3044225D01*
G01X5306715Y-3036795D01*
G01X5291193Y-3032969D01*
G01X5275207Y-3032969D01*
G01X5259685Y-3036795D01*
G01X5245529Y-3044225D01*
G01X5233563Y-3054826D01*
G01X5224482Y-3067982D01*
G01X5218813Y-3082930D01*
G01X5216886Y-3098800D01*
G01X5216886Y-3098800D01*
G01X3658872Y-3098800D01*
G01X3658487Y-3095630D01*
G01X3652818Y-3080682D01*
G01X3643737Y-3067526D01*
G01X3631771Y-3056925D01*
G01X3617615Y-3049495D01*
G01X3602093Y-3045669D01*
G01X3586107Y-3045669D01*
G01X3570585Y-3049495D01*
G01X3556429Y-3056925D01*
G01X3544463Y-3067526D01*
G01X3535382Y-3080682D01*
G01X3529713Y-3095630D01*
G01X3527786Y-3111500D01*
G01X3527786Y-3111500D01*
G01X665149Y-3111500D01*
G01X655693Y-3109169D01*
G01X639707Y-3109169D01*
G01X624185Y-3112995D01*
G01X610029Y-3120425D01*
G01X598063Y-3131026D01*
G01X588982Y-3144182D01*
G01X583313Y-3159130D01*
G01X581386Y-3175000D01*
G01X581386Y-3175000D01*
G01X35814Y-3175000D01*
G01X35814Y-2870200D01*
G01X1076686Y-2870200D01*
G01X1078613Y-2886070D01*
G01X1084282Y-2901018D01*
G01X1093363Y-2914174D01*
G01X1105329Y-2924775D01*
G01X1119485Y-2932205D01*
G01X1135007Y-2936031D01*
G01X1150993Y-2936031D01*
G01X1166515Y-2932205D01*
G01X1180671Y-2924775D01*
G01X1192637Y-2914174D01*
G01X1201718Y-2901018D01*
G01X1207387Y-2886070D01*
G01X1209314Y-2870200D01*
G01X1207387Y-2854330D01*
G01X1201718Y-2839382D01*
G01X1192637Y-2826226D01*
G01X1184932Y-2819400D01*
G01X5864586Y-2819400D01*
G01X5866513Y-2835270D01*
G01X5872182Y-2850218D01*
G01X5881263Y-2863374D01*
G01X5893229Y-2873975D01*
G01X5907385Y-2881405D01*
G01X5922907Y-2885231D01*
G01X5938893Y-2885231D01*
G01X5954415Y-2881405D01*
G01X5968571Y-2873975D01*
G01X5980537Y-2863374D01*
G01X5989618Y-2850218D01*
G01X5995287Y-2835270D01*
G01X5997214Y-2819400D01*
G01X5995287Y-2803530D01*
G01X5989618Y-2788582D01*
G01X5980537Y-2775426D01*
G01X5968571Y-2764825D01*
G01X5954415Y-2757395D01*
G01X5938893Y-2753569D01*
G01X5922907Y-2753569D01*
G01X5907385Y-2757395D01*
G01X5893229Y-2764825D01*
G01X5881263Y-2775426D01*
G01X5872182Y-2788582D01*
G01X5866513Y-2803530D01*
G01X5864586Y-2819400D01*
G01X5864586Y-2819400D01*
G01X1184932Y-2819400D01*
G01X1180671Y-2815625D01*
G01X1166515Y-2808195D01*
G01X1150993Y-2804369D01*
G01X1135007Y-2804369D01*
G01X1119485Y-2808195D01*
G01X1105329Y-2815625D01*
G01X1093363Y-2826226D01*
G01X1084282Y-2839382D01*
G01X1078613Y-2854330D01*
G01X1076686Y-2870200D01*
G01X1076686Y-2870200D01*
G01X35814Y-2870200D01*
G01X35814Y-2646319D01*
G01X6436086Y-2646319D01*
G01X6438013Y-2662189D01*
G01X6443682Y-2677137D01*
G01X6452763Y-2690294D01*
G01X6464729Y-2700895D01*
G01X6478885Y-2708324D01*
G01X6494407Y-2712150D01*
G01X6510393Y-2712150D01*
G01X6525915Y-2708324D01*
G01X6540071Y-2700895D01*
G01X6552037Y-2690294D01*
G01X6561118Y-2677137D01*
G01X6566787Y-2662189D01*
G01X6568714Y-2646319D01*
G01X6566787Y-2630449D01*
G01X6561118Y-2615502D01*
G01X6552037Y-2602345D01*
G01X6540071Y-2591744D01*
G01X6525915Y-2584315D01*
G01X6510393Y-2580489D01*
G01X6494407Y-2580489D01*
G01X6478885Y-2584315D01*
G01X6464729Y-2591744D01*
G01X6452763Y-2602345D01*
G01X6443682Y-2615502D01*
G01X6438013Y-2630449D01*
G01X6436086Y-2646319D01*
G01X6436086Y-2646319D01*
G01X35814Y-2646319D01*
G01X35814Y-2514600D01*
G01X4225956Y-2514600D01*
G01X4227883Y-2530470D01*
G01X4233552Y-2545418D01*
G01X4242634Y-2558574D01*
G01X4254600Y-2569175D01*
G01X4268755Y-2576605D01*
G01X4284277Y-2580431D01*
G01X4300264Y-2580431D01*
G01X4315786Y-2576605D01*
G01X4329941Y-2569175D01*
G01X4341907Y-2558574D01*
G01X4350988Y-2545418D01*
G01X4356657Y-2530470D01*
G01X4358584Y-2514600D01*
G01X4785086Y-2514600D01*
G01X4787013Y-2530470D01*
G01X4792682Y-2545418D01*
G01X4801763Y-2558574D01*
G01X4813729Y-2569175D01*
G01X4827885Y-2576605D01*
G01X4843407Y-2580431D01*
G01X4859393Y-2580431D01*
G01X4874915Y-2576605D01*
G01X4889071Y-2569175D01*
G01X4901037Y-2558574D01*
G01X4910118Y-2545418D01*
G01X4915787Y-2530470D01*
G01X4917714Y-2514600D01*
G01X4915787Y-2498730D01*
G01X4910118Y-2483782D01*
G01X4901037Y-2470626D01*
G01X4889071Y-2460025D01*
G01X4874915Y-2452595D01*
G01X4859393Y-2448769D01*
G01X4843407Y-2448769D01*
G01X4827885Y-2452595D01*
G01X4813729Y-2460025D01*
G01X4801763Y-2470626D01*
G01X4792682Y-2483782D01*
G01X4787013Y-2498730D01*
G01X4785086Y-2514600D01*
G01X4785086Y-2514600D01*
G01X4358584Y-2514600D01*
G01X4356657Y-2498730D01*
G01X4350988Y-2483782D01*
G01X4341907Y-2470626D01*
G01X4329941Y-2460025D01*
G01X4315786Y-2452595D01*
G01X4300264Y-2448769D01*
G01X4284277Y-2448769D01*
G01X4268755Y-2452595D01*
G01X4254600Y-2460025D01*
G01X4242634Y-2470626D01*
G01X4233552Y-2483782D01*
G01X4227883Y-2498730D01*
G01X4225956Y-2514600D01*
G01X4225956Y-2514600D01*
G01X35814Y-2514600D01*
G01X35814Y-2438400D01*
G01X4912086Y-2438400D01*
G01X4914013Y-2454270D01*
G01X4919682Y-2469218D01*
G01X4928763Y-2482374D01*
G01X4940729Y-2492975D01*
G01X4954885Y-2500405D01*
G01X4970407Y-2504231D01*
G01X4986393Y-2504231D01*
G01X4995849Y-2501900D01*
G01X5877286Y-2501900D01*
G01X5879213Y-2517770D01*
G01X5884882Y-2532718D01*
G01X5893963Y-2545874D01*
G01X5905929Y-2556475D01*
G01X5920085Y-2563905D01*
G01X5935607Y-2567731D01*
G01X5951593Y-2567731D01*
G01X5967115Y-2563905D01*
G01X5981271Y-2556475D01*
G01X5993237Y-2545874D01*
G01X6002318Y-2532718D01*
G01X6007987Y-2517770D01*
G01X6009914Y-2501900D01*
G01X6007987Y-2486030D01*
G01X6002318Y-2471082D01*
G01X5993237Y-2457926D01*
G01X5981271Y-2447325D01*
G01X5967115Y-2439895D01*
G01X5951593Y-2436069D01*
G01X5935607Y-2436069D01*
G01X5920085Y-2439895D01*
G01X5905929Y-2447325D01*
G01X5893963Y-2457926D01*
G01X5884882Y-2471082D01*
G01X5879213Y-2486030D01*
G01X5877286Y-2501900D01*
G01X5877286Y-2501900D01*
G01X4995849Y-2501900D01*
G01X5001915Y-2500405D01*
G01X5016071Y-2492975D01*
G01X5028037Y-2482374D01*
G01X5037118Y-2469218D01*
G01X5042787Y-2454270D01*
G01X5044714Y-2438400D01*
G01X5042787Y-2422530D01*
G01X5037118Y-2407582D01*
G01X5028037Y-2394426D01*
G01X5016071Y-2383825D01*
G01X5001915Y-2376395D01*
G01X4986393Y-2372569D01*
G01X4970407Y-2372569D01*
G01X4954885Y-2376395D01*
G01X4940729Y-2383825D01*
G01X4928763Y-2394426D01*
G01X4919682Y-2407582D01*
G01X4914013Y-2422530D01*
G01X4912086Y-2438400D01*
G01X4912086Y-2438400D01*
G01X35814Y-2438400D01*
G01X35814Y-2283601D01*
G01X1533929Y-2283601D01*
G01X1535315Y-2299693D01*
G01X1540549Y-2314972D01*
G01X1549322Y-2328533D01*
G01X1561113Y-2339570D01*
G01X1575223Y-2347430D01*
G01X1590814Y-2351646D01*
G01X1606962Y-2351968D01*
G01X1622709Y-2348377D01*
G01X1627444Y-2363819D01*
G01X1635772Y-2377657D01*
G01X1647198Y-2389072D01*
G01X1661044Y-2397386D01*
G01X1676490Y-2402107D01*
G01X1692619Y-2402953D01*
G01X1708474Y-2399876D01*
G01X1723115Y-2393056D01*
G01X1735673Y-2382900D01*
G01X1745404Y-2370009D01*
G01X1751729Y-2355148D01*
G01X1754275Y-2339199D01*
G01X1752889Y-2323107D01*
G01X1747655Y-2307828D01*
G01X1738882Y-2294267D01*
G01X1729521Y-2285505D01*
G01X1952986Y-2285505D01*
G01X1954913Y-2301375D01*
G01X1960582Y-2316322D01*
G01X1969663Y-2329479D01*
G01X1981629Y-2340080D01*
G01X1995785Y-2347509D01*
G01X2011307Y-2351335D01*
G01X2027293Y-2351335D01*
G01X2034739Y-2349500D01*
G01X4086586Y-2349500D01*
G01X4088513Y-2365370D01*
G01X4094182Y-2380318D01*
G01X4103263Y-2393474D01*
G01X4115229Y-2404075D01*
G01X4129385Y-2411505D01*
G01X4144907Y-2415331D01*
G01X4160893Y-2415331D01*
G01X4176415Y-2411505D01*
G01X4190571Y-2404075D01*
G01X4202537Y-2393474D01*
G01X4211618Y-2380318D01*
G01X4217287Y-2365370D01*
G01X4219214Y-2349500D01*
G01X4217287Y-2333630D01*
G01X4211618Y-2318682D01*
G01X4202537Y-2305526D01*
G01X4190571Y-2294925D01*
G01X4176415Y-2287495D01*
G01X4160893Y-2283669D01*
G01X4144907Y-2283669D01*
G01X4129385Y-2287495D01*
G01X4115229Y-2294925D01*
G01X4103263Y-2305526D01*
G01X4094182Y-2318682D01*
G01X4088513Y-2333630D01*
G01X4086586Y-2349500D01*
G01X4086586Y-2349500D01*
G01X2034739Y-2349500D01*
G01X2042815Y-2347509D01*
G01X2056971Y-2340080D01*
G01X2068937Y-2329479D01*
G01X2078018Y-2316322D01*
G01X2083687Y-2301375D01*
G01X2085614Y-2285505D01*
G01X2083687Y-2269635D01*
G01X2078018Y-2254687D01*
G01X2068937Y-2241530D01*
G01X2056971Y-2230929D01*
G01X2042815Y-2223500D01*
G01X2027293Y-2219674D01*
G01X2011307Y-2219674D01*
G01X1995785Y-2223500D01*
G01X1981629Y-2230929D01*
G01X1969663Y-2241530D01*
G01X1960582Y-2254687D01*
G01X1954913Y-2269635D01*
G01X1952986Y-2285505D01*
G01X1952986Y-2285505D01*
G01X1729521Y-2285505D01*
G01X1727091Y-2283230D01*
G01X1712981Y-2275370D01*
G01X1697390Y-2271154D01*
G01X1681242Y-2270832D01*
G01X1665496Y-2274423D01*
G01X1660760Y-2258981D01*
G01X1652433Y-2245143D01*
G01X1641007Y-2233728D01*
G01X1627160Y-2225414D01*
G01X1611714Y-2220693D01*
G01X1595585Y-2219847D01*
G01X1579730Y-2222924D01*
G01X1565089Y-2229744D01*
G01X1552531Y-2239900D01*
G01X1542800Y-2252791D01*
G01X1542800Y-2252791D01*
G01X1536475Y-2267652D01*
G01X1533929Y-2283601D01*
G01X35814Y-2283601D01*
G01X35814Y-2159000D01*
G01X4734286Y-2159000D01*
G01X4736213Y-2174870D01*
G01X4741882Y-2189818D01*
G01X4750963Y-2202974D01*
G01X4762929Y-2213575D01*
G01X4777085Y-2221005D01*
G01X4792607Y-2224831D01*
G01X4808593Y-2224831D01*
G01X4824115Y-2221005D01*
G01X4838271Y-2213575D01*
G01X4850237Y-2202974D01*
G01X4859318Y-2189818D01*
G01X4864987Y-2174870D01*
G01X4866914Y-2159000D01*
G01X4864987Y-2143130D01*
G01X4859318Y-2128182D01*
G01X4850237Y-2115026D01*
G01X4838271Y-2104425D01*
G01X4824115Y-2096995D01*
G01X4808593Y-2093169D01*
G01X4792607Y-2093169D01*
G01X4777085Y-2096995D01*
G01X4762929Y-2104425D01*
G01X4750963Y-2115026D01*
G01X4741882Y-2128182D01*
G01X4736213Y-2143130D01*
G01X4734286Y-2159000D01*
G01X4734286Y-2159000D01*
G01X35814Y-2159000D01*
G01X35814Y-2044700D01*
G01X4365986Y-2044700D01*
G01X4367913Y-2060570D01*
G01X4373582Y-2075518D01*
G01X4382663Y-2088674D01*
G01X4394629Y-2099275D01*
G01X4408785Y-2106705D01*
G01X4424307Y-2110531D01*
G01X4440293Y-2110531D01*
G01X4455815Y-2106705D01*
G01X4469971Y-2099275D01*
G01X4481937Y-2088674D01*
G01X4491018Y-2075518D01*
G01X4496687Y-2060570D01*
G01X4498614Y-2044700D01*
G01X4496687Y-2028830D01*
G01X4491018Y-2013882D01*
G01X4481937Y-2000726D01*
G01X4469971Y-1990125D01*
G01X4455815Y-1982695D01*
G01X4440293Y-1978869D01*
G01X4424307Y-1978869D01*
G01X4408785Y-1982695D01*
G01X4394629Y-1990125D01*
G01X4382663Y-2000726D01*
G01X4373582Y-2013882D01*
G01X4367913Y-2028830D01*
G01X4365986Y-2044700D01*
G01X4365986Y-2044700D01*
G01X35814Y-2044700D01*
G01X35814Y-1917700D01*
G01X4289786Y-1917700D01*
G01X4291713Y-1933570D01*
G01X4297382Y-1948518D01*
G01X4306463Y-1961674D01*
G01X4318429Y-1972275D01*
G01X4332585Y-1979705D01*
G01X4348107Y-1983531D01*
G01X4364093Y-1983531D01*
G01X4379615Y-1979705D01*
G01X4393771Y-1972275D01*
G01X4405737Y-1961674D01*
G01X4414818Y-1948518D01*
G01X4420487Y-1933570D01*
G01X4422414Y-1917700D01*
G01X4420487Y-1901830D01*
G01X4414818Y-1886882D01*
G01X4405737Y-1873726D01*
G01X4393771Y-1863125D01*
G01X4379615Y-1855695D01*
G01X4373549Y-1854200D01*
G01X6321786Y-1854200D01*
G01X6323713Y-1870070D01*
G01X6329382Y-1885018D01*
G01X6338463Y-1898174D01*
G01X6350429Y-1908775D01*
G01X6364585Y-1916205D01*
G01X6380107Y-1920031D01*
G01X6396093Y-1920031D01*
G01X6411615Y-1916205D01*
G01X6425771Y-1908775D01*
G01X6437737Y-1898174D01*
G01X6446818Y-1885018D01*
G01X6452487Y-1870070D01*
G01X6454414Y-1854200D01*
G01X6452487Y-1838330D01*
G01X6446818Y-1823382D01*
G01X6437737Y-1810226D01*
G01X6425771Y-1799625D01*
G01X6411615Y-1792195D01*
G01X6396093Y-1788369D01*
G01X6380107Y-1788369D01*
G01X6364585Y-1792195D01*
G01X6350429Y-1799625D01*
G01X6338463Y-1810226D01*
G01X6329382Y-1823382D01*
G01X6323713Y-1838330D01*
G01X6321786Y-1854200D01*
G01X6321786Y-1854200D01*
G01X4373549Y-1854200D01*
G01X4364093Y-1851869D01*
G01X4348107Y-1851869D01*
G01X4332585Y-1855695D01*
G01X4318429Y-1863125D01*
G01X4306463Y-1873726D01*
G01X4297382Y-1886882D01*
G01X4291713Y-1901830D01*
G01X4289786Y-1917700D01*
G01X4289786Y-1917700D01*
G01X35814Y-1917700D01*
G01X35814Y-1841005D01*
G01X1838686Y-1841005D01*
G01X1840613Y-1856875D01*
G01X1846282Y-1871822D01*
G01X1855363Y-1884979D01*
G01X1867329Y-1895580D01*
G01X1881485Y-1903009D01*
G01X1897007Y-1906835D01*
G01X1912993Y-1906835D01*
G01X1928515Y-1903009D01*
G01X1942671Y-1895580D01*
G01X1954637Y-1884979D01*
G01X1963718Y-1871822D01*
G01X1969387Y-1856875D01*
G01X1971314Y-1841005D01*
G01X1969387Y-1825135D01*
G01X1963718Y-1810187D01*
G01X1954637Y-1797030D01*
G01X1942671Y-1786429D01*
G01X1928515Y-1779000D01*
G01X1912993Y-1775174D01*
G01X1897007Y-1775174D01*
G01X1881485Y-1779000D01*
G01X1867329Y-1786429D01*
G01X1855363Y-1797030D01*
G01X1846282Y-1810187D01*
G01X1840613Y-1825135D01*
G01X1838686Y-1841005D01*
G01X1838686Y-1841005D01*
G01X35814Y-1841005D01*
G01X35814Y-1358900D01*
G01X230886Y-1358900D01*
G01X232821Y-1395831D01*
G01X238607Y-1432358D01*
G01X248178Y-1468080D01*
G01X261432Y-1502606D01*
G01X278221Y-1535557D01*
G01X298363Y-1566573D01*
G01X321637Y-1595313D01*
G01X347787Y-1621463D01*
G01X376527Y-1644737D01*
G01X407543Y-1664879D01*
G01X440494Y-1681668D01*
G01X475020Y-1694922D01*
G01X510742Y-1704493D01*
G01X547269Y-1710279D01*
G01X584200Y-1712214D01*
G01X621131Y-1710279D01*
G01X657658Y-1704493D01*
G01X693380Y-1694922D01*
G01X727906Y-1681668D01*
G01X760857Y-1664879D01*
G01X791873Y-1644737D01*
G01X820613Y-1621463D01*
G01X846763Y-1595313D01*
G01X870037Y-1566573D01*
G01X890179Y-1535557D01*
G01X896320Y-1523505D01*
G01X1940286Y-1523505D01*
G01X1942213Y-1539375D01*
G01X1947882Y-1554322D01*
G01X1956963Y-1567479D01*
G01X1968929Y-1578080D01*
G01X1983085Y-1585509D01*
G01X1998607Y-1589335D01*
G01X2014593Y-1589335D01*
G01X2030115Y-1585509D01*
G01X2044271Y-1578080D01*
G01X2047973Y-1574800D01*
G01X3464286Y-1574800D01*
G01X3466213Y-1590670D01*
G01X3471882Y-1605618D01*
G01X3480963Y-1618774D01*
G01X3492929Y-1629375D01*
G01X3507085Y-1636805D01*
G01X3522607Y-1640631D01*
G01X3538593Y-1640631D01*
G01X3554115Y-1636805D01*
G01X3561492Y-1632933D01*
G01X3642303Y-1632933D01*
G01X3642868Y-1648457D01*
G01X3647029Y-1663424D01*
G01X3654558Y-1677012D01*
G01X3665041Y-1688475D01*
G01X3677903Y-1697186D01*
G01X3692439Y-1702665D01*
G01X3707851Y-1704612D01*
G01X3723293Y-1702920D01*
G01X3737918Y-1697682D01*
G01X3732680Y-1712307D01*
G01X3730988Y-1727749D01*
G01X3732935Y-1743161D01*
G01X3738414Y-1757697D01*
G01X3747125Y-1770559D01*
G01X3758588Y-1781042D01*
G01X3772176Y-1788571D01*
G01X3787143Y-1792732D01*
G01X3802667Y-1793297D01*
G01X3817897Y-1790234D01*
G01X3831996Y-1783713D01*
G01X3844191Y-1774091D01*
G01X3844191Y-1774091D01*
G01X3853813Y-1761896D01*
G01X3860334Y-1747797D01*
G01X3863397Y-1732567D01*
G01X3862832Y-1717043D01*
G01X3858671Y-1702076D01*
G01X3851142Y-1688488D01*
G01X3840659Y-1677025D01*
G01X3839736Y-1676400D01*
G01X4035786Y-1676400D01*
G01X4037713Y-1692270D01*
G01X4043382Y-1707218D01*
G01X4052463Y-1720374D01*
G01X4064429Y-1730975D01*
G01X4078585Y-1738405D01*
G01X4094107Y-1742231D01*
G01X4110093Y-1742231D01*
G01X4125615Y-1738405D01*
G01X4139771Y-1730975D01*
G01X4151737Y-1720374D01*
G01X4160818Y-1707218D01*
G01X4166487Y-1692270D01*
G01X4168414Y-1676400D01*
G01X4166487Y-1660530D01*
G01X4160818Y-1645582D01*
G01X4159876Y-1644217D01*
G01X6207834Y-1644217D01*
G01X6208172Y-1660516D01*
G01X6208172Y-1660516D01*
G01X6212477Y-1676240D01*
G01X6220488Y-1690439D01*
G01X6231721Y-1702254D01*
G01X6245497Y-1710971D01*
G01X6260984Y-1716064D01*
G01X6277245Y-1717225D01*
G01X6285316Y-1730272D01*
G01X6296168Y-1741117D01*
G01X6309222Y-1749177D01*
G01X6323780Y-1754021D01*
G01X6339060Y-1755391D01*
G01X6354247Y-1753212D01*
G01X6368526Y-1747602D01*
G01X6381134Y-1738860D01*
G01X6391396Y-1727455D01*
G01X6398763Y-1713998D01*
G01X6402839Y-1699207D01*
G01X6403408Y-1683876D01*
G01X6400438Y-1668824D01*
G01X6394089Y-1654857D01*
G01X6384700Y-1642723D01*
G01X6372774Y-1633072D01*
G01X6382317Y-1620154D01*
G01X6388475Y-1605321D01*
G01X6390886Y-1589443D01*
G01X6389409Y-1573450D01*
G01X6384130Y-1558282D01*
G01X6375360Y-1544827D01*
G01X6363613Y-1533876D01*
G01X6349577Y-1526070D01*
G01X6334077Y-1521867D01*
G01X6318020Y-1521513D01*
G01X6302350Y-1525030D01*
G01X6287984Y-1532211D01*
G01X6275766Y-1542636D01*
G01X6266413Y-1555691D01*
G01X6260472Y-1570613D01*
G01X6258293Y-1586524D01*
G01X6243031Y-1592256D01*
G01X6229629Y-1601538D01*
G01X6218896Y-1613809D01*
G01X6211482Y-1628328D01*
G01X6207834Y-1644217D01*
G01X4159876Y-1644217D01*
G01X4151737Y-1632426D01*
G01X4139771Y-1621825D01*
G01X4125615Y-1614395D01*
G01X4110093Y-1610569D01*
G01X4094107Y-1610569D01*
G01X4078585Y-1614395D01*
G01X4064429Y-1621825D01*
G01X4052463Y-1632426D01*
G01X4043382Y-1645582D01*
G01X4037713Y-1660530D01*
G01X4035786Y-1676400D01*
G01X4035786Y-1676400D01*
G01X3839736Y-1676400D01*
G01X3827797Y-1668314D01*
G01X3813261Y-1662835D01*
G01X3797849Y-1660888D01*
G01X3782407Y-1662580D01*
G01X3767782Y-1667818D01*
G01X3773020Y-1653193D01*
G01X3774712Y-1637751D01*
G01X3772765Y-1622339D01*
G01X3767286Y-1607803D01*
G01X3758575Y-1594941D01*
G01X3747112Y-1584458D01*
G01X3733524Y-1576929D01*
G01X3718557Y-1572768D01*
G01X3703033Y-1572203D01*
G01X3687803Y-1575266D01*
G01X3673704Y-1581787D01*
G01X3661509Y-1591409D01*
G01X3651887Y-1603604D01*
G01X3645366Y-1617703D01*
G01X3642303Y-1632933D01*
G01X3561492Y-1632933D01*
G01X3568271Y-1629375D01*
G01X3580237Y-1618774D01*
G01X3589318Y-1605618D01*
G01X3594987Y-1590670D01*
G01X3596914Y-1574800D01*
G01X3594987Y-1558930D01*
G01X3589318Y-1543982D01*
G01X3580237Y-1530826D01*
G01X3568271Y-1520225D01*
G01X3554115Y-1512795D01*
G01X3538593Y-1508969D01*
G01X3522607Y-1508969D01*
G01X3507085Y-1512795D01*
G01X3492929Y-1520225D01*
G01X3480963Y-1530826D01*
G01X3471882Y-1543982D01*
G01X3466213Y-1558930D01*
G01X3464286Y-1574800D01*
G01X3464286Y-1574800D01*
G01X2047973Y-1574800D01*
G01X2056237Y-1567479D01*
G01X2065318Y-1554322D01*
G01X2070987Y-1539375D01*
G01X2072914Y-1523505D01*
G01X2070987Y-1507635D01*
G01X2065318Y-1492687D01*
G01X2056237Y-1479530D01*
G01X2044271Y-1468929D01*
G01X2030115Y-1461500D01*
G01X2014593Y-1457674D01*
G01X1998607Y-1457674D01*
G01X1983085Y-1461500D01*
G01X1968929Y-1468929D01*
G01X1956963Y-1479530D01*
G01X1947882Y-1492687D01*
G01X1942213Y-1507635D01*
G01X1940286Y-1523505D01*
G01X1940286Y-1523505D01*
G01X896320Y-1523505D01*
G01X906968Y-1502606D01*
G01X920222Y-1468080D01*
G01X929793Y-1432358D01*
G01X935393Y-1397000D01*
G01X4035786Y-1397000D01*
G01X4037713Y-1412870D01*
G01X4043382Y-1427818D01*
G01X4052463Y-1440974D01*
G01X4064429Y-1451575D01*
G01X4078585Y-1459005D01*
G01X4094107Y-1462831D01*
G01X4110093Y-1462831D01*
G01X4125615Y-1459005D01*
G01X4139771Y-1451575D01*
G01X4151737Y-1440974D01*
G01X4160818Y-1427818D01*
G01X4166487Y-1412870D01*
G01X4168414Y-1397000D01*
G01X4454886Y-1397000D01*
G01X4456813Y-1412870D01*
G01X4462482Y-1427818D01*
G01X4471563Y-1440974D01*
G01X4483529Y-1451575D01*
G01X4497685Y-1459005D01*
G01X4513207Y-1462831D01*
G01X4529193Y-1462831D01*
G01X4544715Y-1459005D01*
G01X4558871Y-1451575D01*
G01X4570837Y-1440974D01*
G01X4574892Y-1435100D01*
G01X5204186Y-1435100D01*
G01X5206113Y-1450970D01*
G01X5211782Y-1465918D01*
G01X5220863Y-1479074D01*
G01X5232829Y-1489675D01*
G01X5246985Y-1497105D01*
G01X5262507Y-1500931D01*
G01X5278493Y-1500931D01*
G01X5294015Y-1497105D01*
G01X5308171Y-1489675D01*
G01X5320137Y-1479074D01*
G01X5329218Y-1465918D01*
G01X5334887Y-1450970D01*
G01X5336814Y-1435100D01*
G01X5334887Y-1419230D01*
G01X5329218Y-1404282D01*
G01X5320137Y-1391126D01*
G01X5308171Y-1380525D01*
G01X5294015Y-1373095D01*
G01X5278493Y-1369269D01*
G01X5262507Y-1369269D01*
G01X5246985Y-1373095D01*
G01X5232829Y-1380525D01*
G01X5220863Y-1391126D01*
G01X5211782Y-1404282D01*
G01X5206113Y-1419230D01*
G01X5204186Y-1435100D01*
G01X5204186Y-1435100D01*
G01X4574892Y-1435100D01*
G01X4579918Y-1427818D01*
G01X4585587Y-1412870D01*
G01X4587514Y-1397000D01*
G01X4585587Y-1381130D01*
G01X4579918Y-1366182D01*
G01X4570837Y-1353026D01*
G01X4558871Y-1342425D01*
G01X4544715Y-1334995D01*
G01X4529193Y-1331169D01*
G01X4513207Y-1331169D01*
G01X4497685Y-1334995D01*
G01X4483529Y-1342425D01*
G01X4471563Y-1353026D01*
G01X4462482Y-1366182D01*
G01X4456813Y-1381130D01*
G01X4454886Y-1397000D01*
G01X4454886Y-1397000D01*
G01X4168414Y-1397000D01*
G01X4168414Y-1397000D01*
G01X4166487Y-1381130D01*
G01X4160818Y-1366182D01*
G01X4151737Y-1353026D01*
G01X4139771Y-1342425D01*
G01X4125615Y-1334995D01*
G01X4110093Y-1331169D01*
G01X4094107Y-1331169D01*
G01X4078585Y-1334995D01*
G01X4064429Y-1342425D01*
G01X4052463Y-1353026D01*
G01X4043382Y-1366182D01*
G01X4037713Y-1381130D01*
G01X4035786Y-1397000D01*
G01X4035786Y-1397000D01*
G01X935393Y-1397000D01*
G01X935579Y-1395831D01*
G01X937514Y-1358900D01*
G01X935579Y-1321969D01*
G01X929793Y-1285442D01*
G01X920222Y-1249720D01*
G01X906968Y-1215194D01*
G01X890179Y-1182243D01*
G01X870037Y-1151227D01*
G01X846763Y-1122487D01*
G01X820613Y-1096337D01*
G01X791873Y-1073063D01*
G01X760857Y-1052921D01*
G01X727906Y-1036132D01*
G01X693380Y-1022878D01*
G01X657658Y-1013307D01*
G01X621131Y-1007521D01*
G01X584200Y-1005586D01*
G01X547269Y-1007521D01*
G01X510742Y-1013307D01*
G01X475020Y-1022878D01*
G01X440494Y-1036132D01*
G01X407543Y-1052921D01*
G01X376527Y-1073063D01*
G01X347787Y-1096337D01*
G01X321637Y-1122487D01*
G01X298363Y-1151227D01*
G01X278221Y-1182243D01*
G01X261432Y-1215194D01*
G01X248178Y-1249720D01*
G01X238607Y-1285442D01*
G01X232821Y-1321969D01*
G01X230886Y-1358900D01*
G01X230886Y-1358900D01*
G01X35814Y-1358900D01*
G01X35814Y-952500D01*
G01X4480286Y-952500D01*
G01X4482213Y-968370D01*
G01X4487882Y-983318D01*
G01X4496963Y-996474D01*
G01X4508929Y-1007075D01*
G01X4523085Y-1014505D01*
G01X4538607Y-1018331D01*
G01X4554593Y-1018331D01*
G01X4570115Y-1014505D01*
G01X4584271Y-1007075D01*
G01X4596237Y-996474D01*
G01X4605318Y-983318D01*
G01X4610987Y-968370D01*
G01X4612914Y-952500D01*
G01X4610987Y-936630D01*
G01X4605318Y-921682D01*
G01X4596237Y-908526D01*
G01X4584271Y-897925D01*
G01X4570115Y-890495D01*
G01X4554593Y-886669D01*
G01X4538607Y-886669D01*
G01X4523085Y-890495D01*
G01X4508929Y-897925D01*
G01X4496963Y-908526D01*
G01X4487882Y-921682D01*
G01X4482213Y-936630D01*
G01X4480286Y-952500D01*
G01X4480286Y-952500D01*
G01X35814Y-952500D01*
G01X35814Y-571500D01*
G01X321386Y-571500D01*
G01X323212Y-593694D01*
G01X328640Y-615291D01*
G01X337524Y-635711D01*
G01X349626Y-654405D01*
G01X364620Y-670870D01*
G01X382103Y-684663D01*
G01X401605Y-695414D01*
G01X422602Y-702833D01*
G01X444529Y-706721D01*
G01X466796Y-706974D01*
G01X488806Y-703585D01*
G01X509966Y-696645D01*
G01X529707Y-686340D01*
G01X547499Y-672947D01*
G01X562863Y-656827D01*
G01X575386Y-638413D01*
G01X575386Y-671500D01*
G01X575386Y-671500D01*
G01X577139Y-682567D01*
G01X582226Y-692551D01*
G01X590149Y-700474D01*
G01X600133Y-705561D01*
G01X611200Y-707314D01*
G01X811200Y-707314D01*
G01X822267Y-705561D01*
G01X832251Y-700474D01*
G01X840174Y-692551D01*
G01X845261Y-682567D01*
G01X847014Y-671500D01*
G01X847014Y-600000D01*
G01X5764186Y-600000D01*
G01X5766038Y-622354D01*
G01X5771545Y-644099D01*
G01X5780555Y-664640D01*
G01X5792824Y-683419D01*
G01X5808016Y-699922D01*
G01X5825717Y-713699D01*
G01X5845444Y-724375D01*
G01X5866660Y-731658D01*
G01X5888784Y-735350D01*
G01X5911215Y-735350D01*
G01X5933340Y-731658D01*
G01X5954556Y-724375D01*
G01X5974283Y-713699D01*
G01X5991984Y-699922D01*
G01X6007176Y-683419D01*
G01X6019445Y-664640D01*
G01X6028455Y-644099D01*
G01X6033962Y-622354D01*
G01X6035814Y-600000D01*
G01X6033962Y-577646D01*
G01X6032405Y-571500D01*
G01X6474186Y-571500D01*
G01X6476113Y-587370D01*
G01X6481782Y-602318D01*
G01X6490863Y-615474D01*
G01X6502829Y-626075D01*
G01X6516985Y-633505D01*
G01X6532507Y-637331D01*
G01X6548493Y-637331D01*
G01X6564015Y-633505D01*
G01X6578171Y-626075D01*
G01X6590137Y-615474D01*
G01X6599218Y-602318D01*
G01X6604887Y-587370D01*
G01X6606814Y-571500D01*
G01X6604887Y-555630D01*
G01X6599218Y-540682D01*
G01X6590137Y-527526D01*
G01X6578171Y-516925D01*
G01X6564015Y-509495D01*
G01X6548493Y-505669D01*
G01X6532507Y-505669D01*
G01X6516985Y-509495D01*
G01X6502829Y-516925D01*
G01X6490863Y-527526D01*
G01X6481782Y-540682D01*
G01X6476113Y-555630D01*
G01X6474186Y-571500D01*
G01X6474186Y-571500D01*
G01X6032405Y-571500D01*
G01X6028455Y-555901D01*
G01X6019445Y-535360D01*
G01X6007176Y-516581D01*
G01X5991984Y-500078D01*
G01X5974283Y-486301D01*
G01X5954556Y-475625D01*
G01X5933340Y-468342D01*
G01X5911215Y-464650D01*
G01X5888784Y-464650D01*
G01X5866660Y-468342D01*
G01X5845444Y-475625D01*
G01X5825717Y-486301D01*
G01X5808016Y-500078D01*
G01X5792824Y-516581D01*
G01X5780555Y-535360D01*
G01X5771545Y-555901D01*
G01X5766038Y-577646D01*
G01X5764186Y-600000D01*
G01X5764186Y-600000D01*
G01X847014Y-600000D01*
G01X847014Y-471500D01*
G01X845261Y-460433D01*
G01X840174Y-450449D01*
G01X832251Y-442526D01*
G01X822267Y-437439D01*
G01X811200Y-435686D01*
G01X611200Y-435686D01*
G01X600133Y-437439D01*
G01X590149Y-442526D01*
G01X582226Y-450449D01*
G01X577139Y-460433D01*
G01X575386Y-471500D01*
G01X575386Y-504587D01*
G01X562863Y-486173D01*
G01X547499Y-470053D01*
G01X529707Y-456660D01*
G01X509966Y-446355D01*
G01X488806Y-439415D01*
G01X466796Y-436026D01*
G01X444529Y-436279D01*
G01X422602Y-440167D01*
G01X401605Y-447586D01*
G01X382103Y-458337D01*
G01X364620Y-472130D01*
G01X349626Y-488595D01*
G01X337524Y-507289D01*
G01X328640Y-527709D01*
G01X323212Y-549306D01*
G01X321386Y-571500D01*
G01X35814Y-571500D01*
G01X35814Y-339705D01*
G01X6064591Y-339705D01*
G01X6066518Y-355575D01*
G01X6072187Y-370523D01*
G01X6081268Y-383679D01*
G01X6093234Y-394280D01*
G01X6107390Y-401710D01*
G01X6122912Y-405535D01*
G01X6138898Y-405535D01*
G01X6154420Y-401710D01*
G01X6168576Y-394280D01*
G01X6180542Y-383679D01*
G01X6189623Y-370523D01*
G01X6195292Y-355575D01*
G01X6197219Y-339705D01*
G01X6195292Y-323835D01*
G01X6189623Y-308887D01*
G01X6180542Y-295731D01*
G01X6168576Y-285130D01*
G01X6154420Y-277700D01*
G01X6138898Y-273874D01*
G01X6122912Y-273874D01*
G01X6107390Y-277700D01*
G01X6093234Y-285130D01*
G01X6081268Y-295731D01*
G01X6072187Y-308887D01*
G01X6066518Y-323835D01*
G01X6064591Y-339705D01*
G01X6064591Y-339705D01*
G01X35814Y-339705D01*
G01X35814Y-268082D01*
G01X351404Y-268082D01*
G01X353331Y-283952D01*
G01X359000Y-298900D01*
G01X368081Y-312056D01*
G01X380047Y-322657D01*
G01X394203Y-330087D01*
G01X409725Y-333913D01*
G01X425711Y-333913D01*
G01X441233Y-330087D01*
G01X455389Y-322657D01*
G01X467355Y-312056D01*
G01X476436Y-298900D01*
G01X482105Y-283952D01*
G01X484032Y-268082D01*
G01X483864Y-266700D01*
G01X555986Y-266700D01*
G01X557913Y-282570D01*
G01X563582Y-297518D01*
G01X572663Y-310674D01*
G01X584629Y-321275D01*
G01X598785Y-328705D01*
G01X614307Y-332531D01*
G01X630293Y-332531D01*
G01X645815Y-328705D01*
G01X659971Y-321275D01*
G01X671937Y-310674D01*
G01X681018Y-297518D01*
G01X686687Y-282570D01*
G01X688614Y-266700D01*
G01X686687Y-250830D01*
G01X681018Y-235882D01*
G01X671937Y-222726D01*
G01X659971Y-212125D01*
G01X645815Y-204695D01*
G01X630293Y-200869D01*
G01X614307Y-200869D01*
G01X598785Y-204695D01*
G01X584629Y-212125D01*
G01X572663Y-222726D01*
G01X563582Y-235882D01*
G01X557913Y-250830D01*
G01X555986Y-266700D01*
G01X555986Y-266700D01*
G01X483864Y-266700D01*
G01X482105Y-252212D01*
G01X476436Y-237264D01*
G01X467355Y-224108D01*
G01X455389Y-213507D01*
G01X441233Y-206077D01*
G01X425711Y-202251D01*
G01X409725Y-202251D01*
G01X394203Y-206077D01*
G01X380047Y-213507D01*
G01X368081Y-224108D01*
G01X359000Y-237264D01*
G01X353331Y-252212D01*
G01X351404Y-268082D01*
G01X351404Y-268082D01*
G01X35814Y-268082D01*
G01X35814Y-200000D01*
G01X37835Y-174316D01*
G01X40048Y-165100D01*
G01X3083286Y-165100D01*
G01X3085213Y-180970D01*
G01X3090882Y-195918D01*
G01X3099963Y-209074D01*
G01X3111929Y-219675D01*
G01X3126085Y-227105D01*
G01X3141607Y-230931D01*
G01X3157593Y-230931D01*
G01X3173115Y-227105D01*
G01X3187271Y-219675D01*
G01X3199237Y-209074D01*
G01X3208318Y-195918D01*
G01X3213987Y-180970D01*
G01X3215914Y-165100D01*
G01X3214313Y-151916D01*
G01X3274270Y-151916D01*
G01X3276197Y-167786D01*
G01X3281866Y-182734D01*
G01X3290947Y-195890D01*
G01X3302913Y-206491D01*
G01X3317069Y-213921D01*
G01X3332591Y-217746D01*
G01X3348577Y-217746D01*
G01X3364099Y-213921D01*
G01X3367781Y-211988D01*
G01X6474186Y-211988D01*
G01X6476113Y-227858D01*
G01X6481782Y-242806D01*
G01X6490863Y-255963D01*
G01X6502829Y-266564D01*
G01X6516985Y-273993D01*
G01X6532507Y-277819D01*
G01X6548493Y-277819D01*
G01X6564015Y-273993D01*
G01X6578171Y-266564D01*
G01X6590137Y-255963D01*
G01X6599218Y-242806D01*
G01X6604887Y-227858D01*
G01X6606814Y-211988D01*
G01X6604887Y-196118D01*
G01X6599218Y-181171D01*
G01X6590137Y-168014D01*
G01X6578171Y-157413D01*
G01X6564015Y-149984D01*
G01X6548493Y-146158D01*
G01X6532507Y-146158D01*
G01X6516985Y-149984D01*
G01X6502829Y-157413D01*
G01X6490863Y-168014D01*
G01X6481782Y-181171D01*
G01X6476113Y-196118D01*
G01X6474186Y-211988D01*
G01X6474186Y-211988D01*
G01X3367781Y-211988D01*
G01X3378255Y-206491D01*
G01X3390221Y-195890D01*
G01X3399302Y-182734D01*
G01X3404971Y-167786D01*
G01X3406898Y-151916D01*
G01X3404971Y-136046D01*
G01X3399302Y-121098D01*
G01X3390221Y-107942D01*
G01X3378255Y-97340D01*
G01X3364099Y-89911D01*
G01X3348577Y-86085D01*
G01X3332591Y-86085D01*
G01X3317069Y-89911D01*
G01X3302913Y-97340D01*
G01X3290947Y-107942D01*
G01X3281866Y-121098D01*
G01X3276197Y-136046D01*
G01X3274270Y-151916D01*
G01X3274270Y-151916D01*
G01X3214313Y-151916D01*
G01X3213987Y-149230D01*
G01X3208318Y-134282D01*
G01X3199237Y-121126D01*
G01X3187271Y-110525D01*
G01X3173115Y-103095D01*
G01X3157593Y-99269D01*
G01X3141607Y-99269D01*
G01X3126085Y-103095D01*
G01X3111929Y-110525D01*
G01X3099963Y-121126D01*
G01X3090882Y-134282D01*
G01X3085213Y-149230D01*
G01X3083286Y-165100D01*
G01X3083286Y-165100D01*
G01X40048Y-165100D01*
G01X43850Y-149264D01*
G01X53709Y-125461D01*
G01X67171Y-103494D01*
G01X83903Y-83903D01*
G01X103494Y-67171D01*
G01X125461Y-53709D01*
G01X149264Y-43850D01*
G01X174316Y-37835D01*
G01X200000Y-35814D01*
G01X1750000Y-35814D01*
G01X1761067Y-34061D01*
G01X1771051Y-28974D01*
G01X1778974Y-21051D01*
G01X1784061Y-11067D01*
G01X1785814Y0D01*
G01X1785814Y250000D01*
G01X2214186Y250000D01*
G01X2215858Y228754D01*
G01X2220833Y208031D01*
G01X2228989Y188342D01*
G01X2240124Y170171D01*
G01X2253965Y153965D01*
G01X2270171Y140124D01*
G01X2288342Y128989D01*
G01X2308031Y120833D01*
G01X2328754Y115858D01*
G01X2350000Y114186D01*
G01X4650000Y114186D01*
G01X4671246Y115858D01*
G01X4691969Y120833D01*
G01X4711658Y128989D01*
G01X4729830Y140124D01*
G01X4746035Y153965D01*
G01X4759876Y170171D01*
G01X4771011Y188342D01*
G01X4779167Y208031D01*
G01X4784142Y228754D01*
G01X4785814Y250000D01*
G01X4784142Y271246D01*
G01X4779167Y291969D01*
G01X4771011Y311658D01*
G01X4759876Y329830D01*
G01X4746035Y346035D01*
G01X4729830Y359876D01*
G01X4711658Y371011D01*
G01X4691969Y379167D01*
G01X4671246Y384142D01*
G01X4650000Y385814D01*
G01X2350000Y385814D01*
G01X2328754Y384142D01*
G01X2308031Y379167D01*
G01X2288342Y371011D01*
G01X2270171Y359876D01*
G01X2253965Y346035D01*
G01X2240124Y329830D01*
G01X2228989Y311658D01*
G01X2220833Y291969D01*
G01X2215858Y271246D01*
G01X2214186Y250000D01*
G01X2214186Y250000D01*
G01X1785814Y250000D01*
G01X1785814Y500000D01*
G01X1787835Y525684D01*
G01X1793850Y550736D01*
G01X1803709Y574539D01*
G01X1817171Y596506D01*
G01X1833903Y616097D01*
G01X1853494Y632829D01*
G01X1875461Y646291D01*
G01X1899264Y656150D01*
G01X1924316Y662165D01*
G01X1950000Y664186D01*
G01X5049870Y664186D01*
G01X5052549Y664166D01*
G01X5077959Y661788D01*
G01X5102694Y655500D01*
G01X5126156Y645455D01*
G01X5147777Y631896D01*
G01X5167036Y615150D01*
G01X5183468Y595621D01*
G01X5196674Y573782D01*
G01X5206336Y550160D01*
G01X5212221Y525326D01*
G01X5214186Y499880D01*
G01X5214186Y0D01*
G01X5215939Y-11067D01*
G01X5221026Y-21051D01*
G01X5228949Y-28974D01*
G01X5238933Y-34061D01*
G01X5250000Y-35814D01*
G37*
G54D10*
G01X5250000Y-35814D02*
G01X6564102Y-35814D01*
G03X6616700Y-142514I52598J-40386D01*
G03X6669298Y-35814I0J66314D01*
G01X6800000Y-35814D01*
G02X6817093Y-36706I0J-164186D01*
G03X6827311Y-147685I40907J-52194D01*
G03X6924209Y-92627I30689J58785D01*
G02X6964186Y-200120I-124209J-107373D01*
G01X6964186Y-10800000D01*
G02X6800000Y-10964186I-164186J0D01*
G01X200000Y-10964186D01*
G02X35814Y-10800000I0J164186D01*
G01X35814Y-200000D01*
G02X200000Y-35814I164186J0D01*
G01X1750000Y-35814D01*
G03X1785814Y0I0J35814D01*
G01X1785814Y500000D01*
G02X1950000Y664186I164186J0D01*
G01X5049870Y664186D01*
G01X5052549Y664166D01*
G02X5214186Y499880I-2548J-164166D01*
G01X5214186Y0D01*
G03X5250000Y-35814I35814J0D01*
G01X190500Y-9235514D02*
G03X225092Y-9029700I0J105814D01*
G03X190500Y-8823886I-34592J100000D01*
G03X155908Y-9029700I0J-105814D01*
G03X190500Y-9235514I34592J-100000D01*
G01X84686Y-5918200D02*
G03X217314Y-5918200I66314J0D01*
G03X84686Y-5918200I-66314J0D01*
G01X1525500Y-10730714D02*
G03X1535914Y-10720300I0J10414D01*
G01X1535914Y-9320300D01*
G03X1525500Y-9309886I-10414J0D01*
G01X125500Y-9309886D01*
G03X115086Y-9320300I0J-10414D01*
G01X115086Y-10720300D01*
G03X125500Y-10730714I10414J0D01*
G01X344197Y-10730714D01*
G03X364290Y-10860225I20093J-63197D01*
G03X384383Y-10730714I0J66314D01*
G01X1525500Y-10730714D01*
G01X218801Y-7806703D02*
G01X298801Y-7806703D01*
G03X298801Y-7635075I0J85814D01*
G01X218801Y-7635075D01*
G03X218801Y-7806703I0J-85814D01*
G01X218801Y-8671725D02*
G01X298801Y-8671725D01*
G03X298801Y-8500097I0J85814D01*
G01X218801Y-8500097D01*
G03X218801Y-8671725I0J-85814D01*
G01X230886Y-1358900D02*
G03X937514Y-1358900I353314J0D01*
G03X230886Y-1358900I-353314J0D01*
G01X249786Y-5740440D02*
G03X382414Y-5740440I66314J0D01*
G03X249786Y-5740440I-66314J0D01*
G01X251186Y-6635902D02*
G03X383814Y-6635902I66314J0D01*
G03X251186Y-6635902I-66314J0D01*
G01X312028Y-8976815D02*
G03X365972Y-9078173I56272J-35085D01*
G03X435889Y-9124614I63367J19549D01*
G03X495313Y-9065336I-6550J65990D01*
G03X542000Y-8957488I-4866J66135D01*
G03X426784Y-8980640I-51552J-41712D01*
G03X312028Y-8976815I-58484J-31260D01*
G01X575386Y-671500D02*
G03X611200Y-707314I35814J0D01*
G01X811200Y-707314D01*
G03X847014Y-671500I0J35814D01*
G01X847014Y-471500D01*
G03X811200Y-435686I-35814J0D01*
G01X611200Y-435686D01*
G03X575386Y-471500I0J-35814D01*
G01X575386Y-504587D01*
G03X321386Y-571500I-118186J-66913D01*
G03X575386Y-638413I135814J0D01*
G01X575386Y-671500D01*
G01X351404Y-268082D02*
G03X484032Y-268082I66314J0D01*
G03X351404Y-268082I-66314J0D01*
G01X454386Y-6565900D02*
G03X587014Y-6565900I66314J0D01*
G03X454386Y-6565900I-66314J0D01*
G01X471175Y-6261100D02*
G03X603803Y-6261100I66314J0D01*
G03X471175Y-6261100I-66314J0D01*
G01X478580Y-9186809D02*
G03X611208Y-9186809I66314J0D01*
G03X478580Y-9186809I-66314J0D01*
G01X540091Y-6721495D02*
G03X672719Y-6721495I66314J0D01*
G03X540091Y-6721495I-66314J0D01*
G01X621483Y-7929998D02*
G03X658460Y-7806703I5312J65599D01*
G01X721783Y-7806703D01*
G03X721783Y-7635075I0J85814D01*
G01X631783Y-7635075D01*
G03X604828Y-7802359I0J-85814D01*
G03X621483Y-7929998I21968J-62039D01*
G01X631783Y-8671725D02*
G01X721783Y-8671725D01*
G03X721783Y-8500097I0J85814D01*
G01X658460Y-8500097D01*
G03X664180Y-8388235I-31664J57696D01*
G03X619479Y-8270565I-41880J51416D01*
G03X584943Y-8391609I2821J-66254D01*
G03X604828Y-8504441I41853J-50792D01*
G03X631783Y-8671725I26955J-81471D01*
G01X555986Y-266700D02*
G03X688614Y-266700I66314J0D01*
G03X555986Y-266700I-66314J0D01*
G01X581386Y-3175000D02*
G03X714014Y-3175000I66314J0D01*
G03X581386Y-3175000I-66314J0D01*
G01X670286Y-4864100D02*
G03X802914Y-4864100I66314J0D01*
G03X670286Y-4864100I-66314J0D01*
G01X746486Y-6617956D02*
G03X879114Y-6617956I66314J0D01*
G03X746486Y-6617956I-66314J0D01*
G01X771886Y-7962900D02*
G03X904514Y-7962900I66314J0D01*
G03X771886Y-7962900I-66314J0D01*
G01X797286Y-3200400D02*
G03X929914Y-3200400I66314J0D01*
G03X797286Y-3200400I-66314J0D01*
G01X833461Y-7327921D02*
G03X966089Y-7327921I66314J0D01*
G03X833461Y-7327921I-66314J0D01*
G01X835386Y-8674100D02*
G03X968014Y-8674100I66314J0D01*
G03X835386Y-8674100I-66314J0D01*
G01X911586Y-6019800D02*
G03X1044214Y-6019800I66314J0D01*
G03X911586Y-6019800I-66314J0D01*
G01X936986Y-7977200D02*
G03X1069614Y-7977200I66314J0D01*
G03X936986Y-7977200I-66314J0D01*
G01X1052865Y-4167286D02*
G03X1181507Y-4170605I64735J14386D01*
G03X1296635Y-4113114I50393J43105D01*
G03X1167993Y-4109795I-64735J-14386D01*
G03X1052865Y-4167286I-50393J-43105D01*
G01X1063986Y-9064241D02*
G03X1196614Y-9064241I66314J0D01*
G03X1063986Y-9064241I-66314J0D01*
G01X1076686Y-2870200D02*
G03X1209314Y-2870200I66314J0D01*
G03X1076686Y-2870200I-66314J0D01*
G01X1189456Y-8740272D02*
G03X1235088Y-8622207I4344J66172D01*
G03X1205281Y-8499191I-34150J56845D01*
G03X1159650Y-8617255I-4344J-66172D01*
G03X1189456Y-8740272I34150J-56845D01*
G01X1254486Y-7734300D02*
G03X1387114Y-7734300I66314J0D01*
G03X1254486Y-7734300I-66314J0D01*
G01X1323086Y-9127350D02*
G03X1455714Y-9127350I66314J0D01*
G03X1323086Y-9127350I-66314J0D01*
G01X1326907Y-3975100D02*
G03X1459535Y-3975100I66314J0D01*
G03X1326907Y-3975100I-66314J0D01*
G01X1384934Y-8039100D02*
G03X1517563Y-8039100I66314J0D01*
G03X1384934Y-8039100I-66314J0D01*
G01X1419586Y-7734300D02*
G03X1552214Y-7734300I66314J0D01*
G03X1419586Y-7734300I-66314J0D01*
G01X1542800Y-2252791D02*
G03X1622709Y-2348377I57400J-33209D01*
G03X1745404Y-2370009I65296J11577D01*
G03X1665496Y-2274423I-57400J33209D01*
G03X1542800Y-2252791I-65296J-11577D01*
G01X1533906Y-5484787D02*
G03X1641284Y-5538455I66294J-1613D01*
G03X1751144Y-5490072I43566J49996D01*
G03X1643766Y-5436404I-66294J1613D01*
G03X1533906Y-5484787I-43566J-49996D01*
G01X5435814Y-6950000D02*
G03X5300000Y-6814186I-135814J0D01*
G01X1700000Y-6814186D01*
G03X1564186Y-6950000I0J-135814D01*
G01X1564186Y-7250000D01*
G03X1700000Y-7385814I135814J0D01*
G01X5300000Y-7385814D01*
G03X5435814Y-7250000I0J135814D01*
G01X5435814Y-6950000D01*
G01X1724386Y-9880600D02*
G03X1857014Y-9880600I66314J0D01*
G03X1724386Y-9880600I-66314J0D01*
G01X1724386Y-10655300D02*
G03X1857014Y-10655300I66314J0D01*
G03X1724386Y-10655300I-66314J0D01*
G01X1740722Y-5101764D02*
G03X1873350Y-5101764I66314J0D01*
G03X1740722Y-5101764I-66314J0D01*
G01X1813286Y-4221797D02*
G03X1945914Y-4221797I66314J0D01*
G03X1813286Y-4221797I-66314J0D01*
G01X1838686Y-1841005D02*
G03X1971314Y-1841005I66314J0D01*
G03X1838686Y-1841005I-66314J0D01*
G01X1864086Y-4000500D02*
G03X1996714Y-4000500I66314J0D01*
G03X1864086Y-4000500I-66314J0D01*
G01X1876786Y-5981700D02*
G03X2009414Y-5981700I66314J0D01*
G03X1876786Y-5981700I-66314J0D01*
G01X1912060Y-5630743D02*
G03X1953278Y-5746881I43709J-49870D01*
G03X2009168Y-5818635I66022J-6219D01*
G03X2120884Y-5859573I65939J7043D01*
G03X2085239Y-5746057I-45777J47980D01*
G03X2066952Y-5706983I-65939J-7043D01*
G03X2149779Y-5603548I39230J53465D01*
G03X2058530Y-5699635I-43596J-49969D01*
G03X2021791Y-5686833I-39230J-53465D01*
G03X1912060Y-5630743I-66022J6219D01*
G01X1889998Y-9634825D02*
G03X2011828Y-9662074I65802J8225D01*
G03X2123202Y-9605675I45572J48174D01*
G03X2001372Y-9578426I-65802J-8225D01*
G03X1889998Y-9634825I-45572J-48174D01*
G01X1902852Y-9420078D02*
G03X2019851Y-9452659I65648J9378D01*
G03X2123048Y-9388622I37549J54659D01*
G03X2006049Y-9356041I-65648J-9378D01*
G03X1902852Y-9420078I-37549J-54659D01*
G01X1940286Y-1523505D02*
G03X2072914Y-1523505I66314J0D01*
G03X1940286Y-1523505I-66314J0D01*
G01X1952986Y-2285505D02*
G03X2085614Y-2285505I66314J0D01*
G03X1952986Y-2285505I-66314J0D01*
G01X1952986Y-4292600D02*
G03X2085614Y-4292600I66314J0D01*
G03X1952986Y-4292600I-66314J0D01*
G01X2029186Y-4648200D02*
G03X2161814Y-4648200I66314J0D01*
G03X2029186Y-4648200I-66314J0D01*
G01X2054586Y-3924300D02*
G03X2187214Y-3924300I66314J0D01*
G03X2054586Y-3924300I-66314J0D01*
G01X2214186Y250000D02*
G03X2350000Y114186I135814J0D01*
G01X4650000Y114186D01*
G03X4785814Y250000I0J135814D01*
G03X4650000Y385814I-135814J0D01*
G01X2350000Y385814D01*
G03X2214186Y250000I0J-135814D01*
G01X2257786Y-5892800D02*
G03X2368550Y-5942011I66314J0D01*
G03X2478033Y-5905771I44450J49211D01*
G03X2552143Y-5807062I17653J63921D01*
G03X2430653Y-5828879I-56457J-34788D01*
G03X2368550Y-5843589I-17653J-63921D01*
G03X2257786Y-5892800I-44450J-49211D01*
G01X2664186Y-10452100D02*
G03X2796814Y-10452100I66314J0D01*
G03X2664186Y-10452100I-66314J0D01*
G01X2791186Y-7848600D02*
G03X2923814Y-7848600I66314J0D01*
G03X2791186Y-7848600I-66314J0D01*
G01X2829286Y-9258300D02*
G03X2961914Y-9258300I66314J0D01*
G03X2829286Y-9258300I-66314J0D01*
G01X2829286Y-9474200D02*
G03X2961914Y-9474200I66314J0D01*
G03X2829286Y-9474200I-66314J0D01*
G01X2854686Y-8001000D02*
G03X2987314Y-8001000I66314J0D01*
G03X2854686Y-8001000I-66314J0D01*
G01X2971268Y-10352073D02*
G03X3103896Y-10352073I66314J0D01*
G03X2971268Y-10352073I-66314J0D01*
G01X3083286Y-165100D02*
G03X3215914Y-165100I66314J0D01*
G03X3083286Y-165100I-66314J0D01*
G01X3184886Y-10617200D02*
G03X3317514Y-10617200I66314J0D01*
G03X3184886Y-10617200I-66314J0D01*
G01X3274270Y-151916D02*
G03X3406898Y-151916I66314J0D01*
G03X3274270Y-151916I-66314J0D01*
G01X3362686Y-9652000D02*
G03X3495314Y-9652000I66314J0D01*
G03X3362686Y-9652000I-66314J0D01*
G01X3391281Y-10474305D02*
G03X3523909Y-10474305I66314J0D01*
G03X3391281Y-10474305I-66314J0D01*
G01X3464286Y-1574800D02*
G03X3596914Y-1574800I66314J0D01*
G03X3464286Y-1574800I-66314J0D01*
G01X3466797Y-8708115D02*
G03X3599425Y-8708115I66314J0D01*
G03X3466797Y-8708115I-66314J0D01*
G01X3527786Y-3111500D02*
G03X3660414Y-3111500I66314J0D01*
G03X3527786Y-3111500I-66314J0D01*
G01X3844191Y-1774091D02*
G03X3767782Y-1667818I-46891J46891D01*
G03X3661509Y-1591409I-59382J29518D01*
G03X3737918Y-1697682I46891J-46891D01*
G03X3844191Y-1774091I59382J-29518D01*
G01X3654786Y-10477500D02*
G03X3787414Y-10477500I66314J0D01*
G03X3654786Y-10477500I-66314J0D01*
G01X3667486Y-4610100D02*
G03X3800114Y-4610100I66314J0D01*
G03X3667486Y-4610100I-66314J0D01*
G01X3845286Y-4013200D02*
G03X3949700Y-4067477I66314J0D01*
G03X4054114Y-4013200I38100J54277D01*
G03X3949700Y-3958923I-66314J0D01*
G03X3845286Y-4013200I-38100J-54277D01*
G01X3870686Y-10287000D02*
G03X4003314Y-10287000I66314J0D01*
G03X3870686Y-10287000I-66314J0D01*
G01X3946886Y-10607201D02*
G03X4079514Y-10607201I66314J0D01*
G03X3946886Y-10607201I-66314J0D01*
G01X4010386Y-9893300D02*
G03X4143014Y-9893300I66314J0D01*
G03X4010386Y-9893300I-66314J0D01*
G01X4023086Y-10477500D02*
G03X4155714Y-10477500I66314J0D01*
G03X4023086Y-10477500I-66314J0D01*
G01X4035786Y-1397000D02*
G03X4168414Y-1397000I66314J0D01*
G03X4035786Y-1397000I-66314J0D01*
G01X4035786Y-1676400D02*
G03X4168414Y-1676400I66314J0D01*
G03X4035786Y-1676400I-66314J0D01*
G01X4086586Y-2349500D02*
G03X4219214Y-2349500I66314J0D01*
G03X4086586Y-2349500I-66314J0D01*
G01X4086586Y-8204200D02*
G03X4219214Y-8204200I66314J0D01*
G03X4086586Y-8204200I-66314J0D01*
G01X4197499Y-10281443D02*
G03X4215827Y-10407416I27578J-60308D01*
G03X4268241Y-10291408I9250J65666D01*
G03X4249913Y-10165434I-27578J60308D01*
G03X4197499Y-10281443I-9250J-65666D01*
G01X4225956Y-2514600D02*
G03X4358584Y-2514600I66314J0D01*
G03X4225956Y-2514600I-66314J0D01*
G01X4289786Y-1917700D02*
G03X4422414Y-1917700I66314J0D01*
G03X4289786Y-1917700I-66314J0D01*
G01X4365986Y-2044700D02*
G03X4498614Y-2044700I66314J0D01*
G03X4365986Y-2044700I-66314J0D01*
G01X4454886Y-1397000D02*
G03X4587514Y-1397000I66314J0D01*
G03X4454886Y-1397000I-66314J0D01*
G01X4480286Y-952500D02*
G03X4612914Y-952500I66314J0D01*
G03X4480286Y-952500I-66314J0D01*
G01X4531086Y-9867900D02*
G03X4663714Y-9867900I66314J0D01*
G03X4531086Y-9867900I-66314J0D01*
G01X4721586Y-9029700D02*
G03X4854214Y-9029700I66314J0D01*
G03X4721586Y-9029700I-66314J0D01*
G01X4734286Y-2159000D02*
G03X4866914Y-2159000I66314J0D01*
G03X4734286Y-2159000I-66314J0D01*
G01X4785086Y-2514600D02*
G03X4917714Y-2514600I66314J0D01*
G03X4785086Y-2514600I-66314J0D01*
G01X4982294Y-9530846D02*
G03X5037711Y-9412966I16411J64251D01*
G03X5094871Y-9337985I-8511J65766D01*
G03X5019282Y-9281632I-65671J-9215D01*
G03X4902056Y-9241247I-66282J-2068D01*
G03X4962918Y-9349268I50944J-42453D01*
G03X4990194Y-9400829I66282J2068D01*
G03X4982294Y-9530846I8511J-65766D01*
G01X4912086Y-2438400D02*
G03X5044714Y-2438400I66314J0D01*
G03X4912086Y-2438400I-66314J0D01*
G01X4961134Y-3760952D02*
G03X5093762Y-3760952I66314J0D01*
G03X4961134Y-3760952I-66314J0D01*
G01X4962886Y-3924300D02*
G03X5095514Y-3924300I66314J0D01*
G03X4962886Y-3924300I-66314J0D01*
G01X5144478Y-9338650D02*
G03X5241821Y-9255933I37122J54950D01*
G03X5282223Y-9134750I3280J66233D01*
G03X5184880Y-9217467I-37122J-54950D01*
G03X5144478Y-9338650I-3280J-66233D01*
G01X5204186Y-1435100D02*
G03X5336814Y-1435100I66314J0D01*
G03X5204186Y-1435100I-66314J0D01*
G01X5204186Y-4191000D02*
G03X5336814Y-4191000I66314J0D01*
G03X5204186Y-4191000I-66314J0D01*
G01X5216886Y-3098800D02*
G03X5349514Y-3098800I66314J0D01*
G03X5216886Y-3098800I-66314J0D01*
G01X5242286Y-10439400D02*
G03X5374914Y-10439400I66314J0D01*
G03X5242286Y-10439400I-66314J0D01*
G01X5293086Y-9283700D02*
G03X5425714Y-9283700I66314J0D01*
G03X5293086Y-9283700I-66314J0D01*
G01X5347792Y-10210800D02*
G03X5619420Y-10210800I135814J0D01*
G03X5347792Y-10210800I-135814J0D01*
G01X5347792Y-9702800D02*
G03X5619420Y-9702800I135814J0D01*
G03X5347792Y-9702800I-135814J0D01*
G01X5394686Y-3721100D02*
G03X5527314Y-3721100I66314J0D01*
G03X5394686Y-3721100I-66314J0D01*
G01X5407386Y-3886200D02*
G03X5540014Y-3886200I66314J0D01*
G03X5407386Y-3886200I-66314J0D01*
G01X5462098Y-4495800D02*
G03X5594726Y-4495800I66314J0D01*
G03X5462098Y-4495800I-66314J0D01*
G01X5605707Y-8772732D02*
G03X5488983Y-8755600I-62762J-21412D01*
G03X5543045Y-8860459I53962J-38544D01*
G03X5596257Y-8904669I62762J21412D01*
G03X5659863Y-8877458I9549J65623D01*
G03X5768061Y-8817950I42437J50958D01*
G03X5648243Y-8788089I-65761J-8550D01*
G03X5605707Y-8772732I-42437J-50958D01*
G01X5547086Y-3568700D02*
G03X5679714Y-3568700I66314J0D01*
G03X5547086Y-3568700I-66314J0D01*
G01X5559786Y-3708400D02*
G03X5692414Y-3708400I66314J0D01*
G03X5559786Y-3708400I-66314J0D01*
G01X5729381Y-9306401D02*
G03X5696878Y-9428025I3907J-66199D01*
G03X5795595Y-9349899I36410J55425D01*
G03X5840899Y-9239250I-3907J66199D01*
G03X5791688Y-9128486I-49211J44450D01*
G03X5742477Y-9239250I0J-66314D01*
G03X5729381Y-9306401I49211J-44450D01*
G01X5764186Y-600000D02*
G03X6035814Y-600000I135814J0D01*
G03X5764186Y-600000I-135814J0D01*
G01X5993320Y-3901602D02*
G03X5956197Y-3981167I26480J-60798D01*
G03X6030566Y-4027834I63603J18767D01*
G03X6142891Y-4085491I65434J-10766D01*
G03X6085234Y-3973166I-46891J46891D01*
G03X6058980Y-3908898I-65434J10766D01*
G03X6095896Y-3828646I-26480J60798D01*
G03X6120385Y-3728808I-28451J59901D01*
G03X6017660Y-3724938I-52939J-39937D01*
G03X5969732Y-3634850I-61360J25149D01*
G03X5889998Y-3698533I-13432J-64940D01*
G03X5846459Y-3812223I2802J-66255D01*
G03X5959102Y-3766044I46341J47435D01*
G03X6006085Y-3743596I-2802J66255D01*
G03X6004049Y-3788199I61360J-25149D01*
G03X5993320Y-3901602I28451J-59901D01*
G01X5864586Y-2819400D02*
G03X5997214Y-2819400I66314J0D01*
G03X5864586Y-2819400I-66314J0D01*
G01X5877286Y-2501900D02*
G03X6009914Y-2501900I66314J0D01*
G03X5877286Y-2501900I-66314J0D01*
G01X5907786Y-8733630D02*
G03X6040414Y-8733630I66314J0D01*
G03X5907786Y-8733630I-66314J0D01*
G01X5915386Y-3568700D02*
G03X6048014Y-3568700I66314J0D01*
G03X5915386Y-3568700I-66314J0D01*
G01X5928086Y-8229600D02*
G03X6060714Y-8229600I66314J0D01*
G03X5928086Y-8229600I-66314J0D01*
G01X6223017Y-8629655D02*
G03X6096445Y-8590065I-63517J19055D01*
G03X5968983Y-8553445I-63945J17565D01*
G03X6095555Y-8593035I63517J-19055D01*
G03X6223017Y-8629655I63945J-17565D01*
G01X5982886Y-10406888D02*
G03X6234514Y-10406888I125814J0D01*
G03X5982886Y-10406888I-125814J0D01*
G01X5982886Y-9506712D02*
G03X6234514Y-9506712I125814J0D01*
G03X5982886Y-9506712I-125814J0D01*
G01X6064591Y-339705D02*
G03X6197219Y-339705I66314J0D01*
G03X6064591Y-339705I-66314J0D01*
G01X6093186Y-8750300D02*
G03X6225814Y-8750300I66314J0D01*
G03X6093186Y-8750300I-66314J0D01*
G01X6284213Y-8516112D02*
G03X6226936Y-8405168I-48513J45212D01*
G03X6112238Y-8355838I-66186J4118D01*
G03X6169514Y-8466782I48513J-45212D01*
G03X6284213Y-8516112I66186J-4118D01*
G01X6194786Y-7721600D02*
G03X6327414Y-7721600I66314J0D01*
G03X6194786Y-7721600I-66314J0D01*
G01X6208172Y-1660516D02*
G03X6277245Y-1717225I65628J9516D01*
G03X6381134Y-1738860I60055J28125D01*
G03X6372774Y-1633072I-43834J49760D01*
G03X6349577Y-1526070I-48174J45572D01*
G03X6258293Y-1586524I-24977J-61430D01*
G03X6208172Y-1660516I15507J-64476D01*
G01X6229691Y-4486295D02*
G03X6362319Y-4486295I66314J0D01*
G03X6229691Y-4486295I-66314J0D01*
G01X6283686Y-3302000D02*
G03X6416314Y-3302000I66314J0D01*
G03X6283686Y-3302000I-66314J0D01*
G01X6321786Y-1854200D02*
G03X6454414Y-1854200I66314J0D01*
G03X6321786Y-1854200I-66314J0D01*
G01X6385286Y-7353300D02*
G03X6517914Y-7353300I66314J0D01*
G03X6385286Y-7353300I-66314J0D01*
G01X6410686Y-9245600D02*
G03X6518900Y-9297000I66314J0D01*
G03X6627114Y-9245600I41900J51400D01*
G03X6518900Y-9194200I-66314J0D01*
G03X6410686Y-9245600I-41900J-51400D01*
G01X6436086Y-2646319D02*
G03X6568714Y-2646319I66314J0D01*
G03X6436086Y-2646319I-66314J0D01*
G01X6474186Y-211988D02*
G03X6606814Y-211988I66314J0D01*
G03X6474186Y-211988I-66314J0D01*
G01X6474186Y-571500D02*
G03X6606814Y-571500I66314J0D01*
G03X6474186Y-571500I-66314J0D01*
G01X6597980Y-10210800D02*
G03X6869608Y-10210800I135814J0D01*
G03X6597980Y-10210800I-135814J0D01*
G01X6597980Y-9702800D02*
G03X6869608Y-9702800I135814J0D01*
G03X6597980Y-9702800I-135814J0D01*
G01X6728186Y-6921500D02*
G03X6860814Y-6921500I66314J0D01*
G03X6728186Y-6921500I-66314J0D01*
G01X6728186Y-5181600D02*
G03X6860814Y-5181600I66314J0D01*
G03X6728186Y-5181600I-66314J0D01*
G01X6730589Y-8193913D02*
G03X6892219Y-8193913I80815J0D01*
G03X6730589Y-8193913I-80815J0D01*
G01X6730589Y-8493912D02*
G03X6892219Y-8493912I80815J0D01*
G03X6730589Y-8493912I-80815J0D01*
G01X6778986Y-10452100D02*
G03X6911614Y-10452100I66314J0D01*
G03X6778986Y-10452100I-66314J0D01*
G01X6817086Y-9055100D02*
G03X6949714Y-9055100I66314J0D01*
G03X6817086Y-9055100I-66314J0D01*
G54D11*
G01X190500Y-9129700D02*
G01X190500Y-9225354D01*
G01X190500Y-9129700D02*
G01X94846Y-9129700D01*
G01X190500Y-9129700D02*
G01X286154Y-9129700D01*
G01X258801Y-7720889D02*
G01X258801Y-7796543D01*
G01X258801Y-7720889D02*
G01X258801Y-7645235D01*
G01X258801Y-7720889D02*
G01X143147Y-7720889D01*
G01X258801Y-7720889D02*
G01X374454Y-7720889D01*
G01X258801Y-8585911D02*
G01X258801Y-8661565D01*
G01X258801Y-8585911D02*
G01X258801Y-8510257D01*
G01X258801Y-8585911D02*
G01X143147Y-8585911D01*
G01X258801Y-8585911D02*
G01X374454Y-8585911D01*
G01X676783Y-8585911D02*
G01X676783Y-8661565D01*
G01X676783Y-8585911D02*
G01X676783Y-8510257D01*
G01X676783Y-8585911D02*
G01X556129Y-8585911D01*
G01X676783Y-8585911D02*
G01X797437Y-8585911D01*
G01X676783Y-7720889D02*
G01X676783Y-7796543D01*
G01X676783Y-7720889D02*
G01X676783Y-7645235D01*
G01X676783Y-7720889D02*
G01X556129Y-7720889D01*
G01X676783Y-7720889D02*
G01X797437Y-7720889D01*
G04 Copper End*

G04 Pad Start*
G54D12*
G01X5483606Y-9702800D03*
G01X6733794Y-9702800D03*
G01X5483606Y-10210800D03*
G01X6733794Y-10210800D03*
G54D13*
G01X190500Y-8929700D03*
G01X190500Y-9129700D03*
G54D14*
G01X711200Y-571500D03*
G54D12*
G01X457200Y-571500D03*
G54D15*
G01X676783Y-7720889D03*
G54D16*
G01X258801Y-7720889D03*
G01X258801Y-8585911D03*
G54D15*
G01X676783Y-8585911D03*
G54D12*
G01X5900000Y-600000D03*
G01X800000Y-10000000D03*
G04 Pad End*

G04 Via Start*
G54D18*
G01X2921000Y-8001000D03*
G01X2857500Y-7848600D03*
G01X5181600Y-9283700D03*
G01X4998705Y-9466595D03*
G01X4597400Y-9867900D03*
G01X4152900Y-8204200D03*
G01X3533111Y-8708115D03*
G01X5605807Y-8839046D03*
G01X5542945Y-8794145D03*
G01X1485900Y-7734300D03*
G01X5702300Y-8826500D03*
G01X1389400Y-9127350D03*
G01X5029200Y-9347200D03*
G01X5733288Y-9372600D03*
G01X5308600Y-10439400D03*
G01X4953000Y-9283700D03*
G01X5359400Y-9283700D03*
G01X5791688Y-9194800D03*
G01X5245101Y-9189700D03*
G01X5791688Y-9283700D03*
G01X609600Y-3505200D03*
G01X1930400Y-4000500D03*
G01X5027448Y-3760952D03*
G01X2006600Y-1523505D03*
G01X1231900Y-4127500D03*
G01X1905000Y-1841005D03*
G01X1393221Y-3975100D03*
G01X4102100Y-1397000D03*
G01X4521200Y-1397000D03*
G01X4800600Y-2159000D03*
G01X6032500Y-3848100D03*
G01X6019800Y-3962400D03*
G01X4152900Y-2349500D03*
G01X5473700Y-3886200D03*
G01X4292270Y-2514600D03*
G01X5461000Y-3721100D03*
G01X3652097Y-1376700D03*
G01X6647035Y-3238500D03*
G01X6388100Y-2463800D03*
G01X5295900Y-1187298D03*
G01X6007100Y-1507388D03*
G01X5211521Y-2387600D03*
G01X5528412Y-4495800D03*
G01X6350000Y-3302000D03*
G01X6360305Y-4104495D03*
G01X6096000Y-4038600D03*
G01X5981700Y-3568700D03*
G01X4546600Y-952500D03*
G01X1460500Y-9189400D03*
G01X990600Y-8864600D03*
G01X1333500Y-8343900D03*
G01X863600Y-8039100D03*
G01X1320800Y-7734300D03*
G01X606405Y-6721495D03*
G01X812800Y-6617956D03*
G01X1807036Y-5101764D03*
G01X3708400Y-1638300D03*
G01X1945094Y-4927600D03*
G01X2019300Y-2285505D03*
G01X2019300Y-4292600D03*
G01X1879600Y-4221797D03*
G01X1143000Y-2870200D03*
G01X647700Y-3175000D03*
G01X863600Y-3200400D03*
G01X736600Y-4864100D03*
G01X537489Y-6261100D03*
G01X977900Y-6019800D03*
G01X5270500Y-4191000D03*
G01X2120900Y-3924300D03*
G01X5029200Y-3924300D03*
G01X2095500Y-4648200D03*
G01X2106183Y-5653517D03*
G01X1684849Y-5488459D03*
G01X1688004Y-2336800D03*
G01X1600200Y-5486400D03*
G01X1600200Y-2286000D03*
G01X6477000Y-8118907D03*
G01X5740400Y-7035800D03*
G01X6578600Y-7086600D03*
G01X5867400Y-8229600D03*
G01X838200Y-7720889D03*
G01X1003300Y-7977200D03*
G01X901700Y-8674100D03*
G01X838200Y-7962900D03*
G01X622300Y-8336819D03*
G01X1066190Y-8407400D03*
G01X1200938Y-8565362D03*
G01X3987800Y-4013200D03*
G01X1193800Y-8674100D03*
G01X3911600Y-4013200D03*
G01X6032500Y-8572500D03*
G01X6324600Y-8839200D03*
G01X6160750Y-8401050D03*
G01X6261100Y-7721600D03*
G01X6451600Y-7353300D03*
G01X3733800Y-4610100D03*
G01X4432300Y-2044700D03*
G01X3594100Y-3111500D03*
G01X5270500Y-1435100D03*
G01X2075107Y-5811593D03*
G01X1943100Y-5981700D03*
G01X6324600Y-1587500D03*
G01X4787900Y-9029700D03*
G01X5067300Y-4024808D03*
G01X317500Y-6635902D03*
G01X277455Y-5843945D03*
G01X596900Y-10845800D03*
G01X2681300Y-10617200D03*
G01X3175000Y-10528300D03*
G01X3457595Y-10474305D03*
G01X4013200Y-10607201D03*
G01X3924300Y-10744200D03*
G01X4589501Y-10718800D03*
G01X6159500Y-8610600D03*
G01X5974100Y-8733630D03*
G01X5994400Y-8229600D03*
G01X6159500Y-8750300D03*
G01X6235700Y-8470900D03*
G01X5626100Y-3708400D03*
G01X5499100Y-8597900D03*
G01X4076700Y-9893300D03*
G01X368300Y-9011900D03*
G01X682993Y-6556703D03*
G01X899775Y-7327921D03*
G01X490447Y-8999200D03*
G01X2413000Y-10121900D03*
G01X544894Y-9186809D03*
G01X3530600Y-1574800D03*
G01X429340Y-9058624D03*
G01X3797300Y-1727200D03*
G01X1117600Y-4152900D03*
G01X520700Y-6565900D03*
G01X6560800Y-9245600D03*
G01X5892800Y-3764788D03*
G01X6477000Y-9245600D03*
G01X6296005Y-4486295D03*
G01X5956300Y-3699789D03*
G01X6067445Y-3768745D03*
G01X4089400Y-10477500D03*
G01X4225077Y-10341750D03*
G01X3937000Y-10287000D03*
G01X4240663Y-10231100D03*
G01X3721100Y-10477500D03*
G01X3200400Y-10147300D03*
G01X3037582Y-10352073D03*
G01X2730500Y-10452100D03*
G01X3429000Y-9652000D03*
G01X2895600Y-9474200D03*
G01X2895600Y-9258300D03*
G01X6375400Y-296012D03*
G01X6500800Y-381000D03*
G01X6130905Y-339705D03*
G01X6540500Y-211988D03*
G01X6714388Y-5232400D03*
G01X5613400Y-3568700D03*
G01X4102100Y-1676400D03*
G01X4356100Y-1917700D03*
G01X5943600Y-2501900D03*
G01X6794500Y-5181600D03*
G01X5930900Y-2819400D03*
G01X4978400Y-2438400D03*
G01X6502400Y-2646319D03*
G01X1498600Y-763600D03*
G01X6744233Y-851433D03*
G01X165100Y-889000D03*
G01X3251200Y-10617200D03*
G01X364290Y-10793911D03*
G01X151000Y-5918200D03*
G01X316100Y-5740440D03*
G01X6540500Y-571500D03*
G01X6794500Y-6921500D03*
G01X6692900Y-10566400D03*
G01X6883400Y-9055100D03*
G01X6845300Y-10452100D03*
G01X3708400Y-10579100D03*
G01X622300Y-266700D03*
G01X417718Y-268082D03*
G01X3149600Y-165100D03*
G01X6616700Y-76200D03*
G01X6388100Y-1854200D03*
G01X6705600Y-3893800D03*
G01X3340584Y-151916D03*
G01X3086100Y-88900D03*
G01X330200Y-6883400D03*
G01X1451249Y-8039100D03*
G01X5511800Y-4089400D03*
G01X2324100Y-6303493D03*
G01X1524000Y-3736810D03*
G01X6858000Y-88900D03*
G01X1130300Y-9064241D03*
G01X2057400Y-9398000D03*
G01X2057400Y-9613900D03*
G01X1968500Y-9410700D03*
G01X1955800Y-9626600D03*
G01X1790700Y-9880600D03*
G01X1790700Y-10655300D03*
G01X1066800Y-9474200D03*
G01X1066800Y-9753600D03*
G01X6337300Y-1689100D03*
G01X6273800Y-1651000D03*
G01X2324100Y-5892800D03*
G01X2413000Y-5892800D03*
G01X2495687Y-5841850D03*
G01X2019300Y-5753100D03*
G01X1955769Y-5680614D03*
G01X4851400Y-2514600D03*
G01X5283200Y-3098800D03*
G04 Via End*

M02*

