G04 Layer: BottomLayer*
G04 EasyEDA Pro v3.2.148, 2026-07-02 18:00:28*
G04 Gerber Generator version 0.3*
G04 Scale: 100 percent, Rotated: No, Reflected: No*
G04 Dimensions in millimeters*
G04 Leading zeros omitted, absolute positions, 4 integers and 5 decimals*
G04 Generated by one-click*
G04 Object Configs: Pad,Via,Track,Text,Image,Dimension,BoardOutline,BoardCutout,CopperFilled,SolidRegion,FPCStiffener,Line,PlaneZone,ComponentProperty,ComponentSilkscreen,TearDrop*
G04 Layer Configs: 1,15,16,2,3,4,5,6,7,8,9,10,11,13,14,56*
G04 Copper Areas: 0*
%FSLAX45Y45*%
%MOMM*%
%ADD10R,4.49999X2.99999*%
%ADD11R,0.8X0.9*%
%ADD12R,0.9X0.8*%
%ADD13R,0.54X0.5*%
%ADD14R,1.72799X1.48501*%
%ADD15R,0.5093X0.54*%
%ADD16R,0.5X0.54*%
%ADD17R,1.48501X1.72799*%
%ADD18R,1.2X1.0*%
%ADD19R,1.9X1.3*%
%ADD20R,2.79999X1.0*%
%ADD21R,0.8X1.0*%
%ADD22R,1.2X0.7*%
%ADD23R,0.3X1.3*%
%ADD24R,1.8X2.2*%
%ADD25R,1.07201X0.532*%
%ADD26R,1.51999X1.68001*%
%ADD27R,1.68001X1.51999*%
%ADD28R,1.1X1.0*%
%ADD29R,0.8X0.3*%
%ADD30R,0.8X0.4*%
%ADD31R,1.2X2.2*%
%ADD32R,1.0X1.72001*%
%ADD33R,0.8X0.8*%
%ADD34R,0.80648X0.86401*%
%ADD35R,0.86401X0.80648*%
%ADD36R,0.56566X0.54*%
%ADD37R,0.30312X0.324*%
%ADD38R,1.37701X1.13254*%
%ADD39R,1.13254X1.37701*%
%ADD40R,1.20752X1.70101*%
%ADD41R,1.524X0.6*%
%ADD42R,0.7X1.2*%
%ADD43R,1.58001X0.8*%
%ADD44C,2.0*%
%ADD45C,1.4*%
%ADD46R,1.58001X2.35001*%
%ADD47R,0.65001X0.28999*%
%ADD48O,1.73149X0.343*%
%ADD49R,1.1X0.55001*%
%ADD50R,1.5X0.9*%
%ADD51R,0.9X1.5*%
%ADD52R,0.9X0.9*%
%ADD53R,0.532X1.07201*%
%ADD54O,0.36401X1.692*%
%ADD55R,1.1X0.6*%
%ADD56R,1.03749X0.532*%
%ADD57R,3.49999X1.6*%
%ADD58R,2.0X2.0*%
%ADD59R,1.15001X0.6*%
%ADD60R,1.15001X0.3*%
%ADD61O,1.9X1.0*%
%ADD62O,1.8X1.0*%
%ADD63R,1.0X1.5*%
%ADD64C,0.61*%
%ADD65C,0.254*%
%ADD66C,1.0*%
%ADD67C,0.5*%
%ADD68C,0.1*%
%ADD69C,0.4*%
%ADD70C,0.8*%
%ADD71C,0.3*%
%ADD72C,0.75*%
G75*


G04 Pad Start*
G54D10*
G01X1102208Y-5165478D03*
G01X1102208Y-6265476D03*
G54D11*
G01X869798Y-7823200D03*
G01X1009802Y-7823200D03*
G54D12*
G01X901700Y-8807298D03*
G01X901700Y-8947302D03*
G01X4241800Y-1136498D03*
G01X4241800Y-1276502D03*
G54D13*
G01X4432300Y-1177188D03*
G01X4432300Y-1261212D03*
G54D12*
G01X4483100Y-844702D03*
G01X4483100Y-704698D03*
G54D11*
G01X3524098Y-10833100D03*
G01X3664102Y-10833100D03*
G01X3930498Y-10833100D03*
G01X4070502Y-10833100D03*
G54D14*
G01X5905500Y-7740142D03*
G01X5905500Y-8058658D03*
G54D16*
G01X6574688Y-7429500D03*
G01X6658712Y-7429500D03*
G54D12*
G01X6217545Y-7221353D03*
G01X6217545Y-7081349D03*
G54D11*
G01X5416398Y-4191000D03*
G01X5556402Y-4191000D03*
G54D14*
G01X5912745Y-7042893D03*
G01X5912745Y-7361409D03*
G54D16*
G01X5444388Y-4368800D03*
G01X5528412Y-4368800D03*
G54D17*
G01X5797042Y-2578100D03*
G01X6115558Y-2578100D03*
G54D14*
G01X6731000Y-2356358D03*
G01X6731000Y-2037842D03*
G54D12*
G01X203200Y-6495898D03*
G01X203200Y-6635902D03*
G01X939800Y-7448398D03*
G01X939800Y-7588402D03*
G01X5168900Y-1187298D03*
G01X5168900Y-1327302D03*
G01X204749Y-5605408D03*
G01X204749Y-5745412D03*
G54D16*
G01X981812Y-6489700D03*
G01X897788Y-6489700D03*
G54D13*
G01X444500Y-6866788D03*
G01X444500Y-6950812D03*
G54D12*
G01X203200Y-6064098D03*
G01X203200Y-6204102D03*
G01X6705600Y-1428598D03*
G01X6705600Y-1568602D03*
G54D13*
G01X6121400Y-1507388D03*
G01X6121400Y-1591412D03*
G01X5168900Y-1507388D03*
G01X5168900Y-1591412D03*
G54D18*
G01X1661498Y-3736810D03*
G54D19*
G01X151493Y-3501809D03*
G54D20*
G01X196502Y-4851794D03*
G54D21*
G01X611487Y-4851794D03*
G54D18*
G01X1231501Y-4851794D03*
G54D22*
G01X1661498Y-4756798D03*
G01X1661498Y-4661802D03*
G01X1661498Y-4551794D03*
G01X1661498Y-4441812D03*
G01X1661498Y-4331805D03*
G01X1661498Y-4221797D03*
G01X1661498Y-4111790D03*
G01X1661498Y-4001808D03*
G01X1661498Y-3891801D03*
G54D23*
G01X4474992Y-10027500D03*
G01X4425005Y-10027500D03*
G01X4375017Y-10027500D03*
G01X4325005Y-10027500D03*
G01X2525008Y-10027500D03*
G01X2625008Y-10027500D03*
G01X2674995Y-10027500D03*
G01X2725008Y-10027500D03*
G01X2774995Y-10027500D03*
G01X2825008Y-10027500D03*
G01X2874995Y-10027500D03*
G01X2925008Y-10027500D03*
G01X2974995Y-10027500D03*
G01X3025007Y-10027500D03*
G01X3074995Y-10027500D03*
G01X3125007Y-10027500D03*
G01X3174994Y-10027500D03*
G01X3225007Y-10027500D03*
G01X3274994Y-10027500D03*
G01X3325007Y-10027500D03*
G01X3374994Y-10027500D03*
G01X3425007Y-10027500D03*
G01X3474994Y-10027500D03*
G01X3525006Y-10027500D03*
G01X3574994Y-10027500D03*
G01X3625006Y-10027500D03*
G01X3674993Y-10027500D03*
G01X3725006Y-10027500D03*
G01X3774993Y-10027500D03*
G01X3825006Y-10027500D03*
G01X3874993Y-10027500D03*
G01X3925006Y-10027500D03*
G01X3975018Y-10027500D03*
G01X4025005Y-10027500D03*
G01X4075018Y-10027500D03*
G01X4125005Y-10027500D03*
G01X4175018Y-10027500D03*
G01X4225005Y-10027500D03*
G01X4275018Y-10027500D03*
G01X2574996Y-10027500D03*
G54D24*
G01X2331003Y-9492500D03*
G01X4668997Y-9492500D03*
G54D25*
G01X1066190Y-8705596D03*
G01X1066190Y-8610600D03*
G01X1066190Y-8515604D03*
G01X1296010Y-8515604D03*
G01X1296010Y-8610600D03*
G01X1296010Y-8705596D03*
G54D26*
G01X3575406Y-10477500D03*
G01X3968394Y-10477500D03*
G54D27*
G01X5689600Y-2266594D03*
G01X5689600Y-1873606D03*
G54D28*
G01X1824495Y-7518400D03*
G01X1477505Y-7518400D03*
G01X2973495Y-7520000D03*
G01X2626505Y-7520000D03*
G01X4173995Y-7543800D03*
G01X3827005Y-7543800D03*
G01X2823705Y-8280400D03*
G01X3170695Y-8280400D03*
G01X3814305Y-8369300D03*
G01X4161295Y-8369300D03*
G01X2865895Y-8585200D03*
G01X2518905Y-8585200D03*
G01X4157205Y-8597900D03*
G01X4504195Y-8597900D03*
G01X2684005Y-9055100D03*
G01X3030995Y-9055100D03*
G54D29*
G01X2195106Y-6315405D03*
G01X2195106Y-6265393D03*
G01X2195106Y-6215405D03*
G01X2195106Y-6165393D03*
G54D30*
G01X1945094Y-5065395D03*
G01X1945094Y-6415405D03*
G54D29*
G01X2195106Y-6115406D03*
G01X2195106Y-6065393D03*
G01X2195106Y-6015406D03*
G01X2195106Y-5965393D03*
G01X2195106Y-5915406D03*
G01X2195106Y-5865393D03*
G01X2195106Y-5815406D03*
G01X2195106Y-5765394D03*
G01X2195106Y-5715406D03*
G01X2195106Y-5665394D03*
G01X2195106Y-5615407D03*
G01X2195106Y-5565394D03*
G01X2195106Y-5515407D03*
G01X2195106Y-5465394D03*
G01X2195106Y-5415407D03*
G01X2195106Y-5365394D03*
G01X2195106Y-5315407D03*
G01X2195106Y-5265395D03*
G01X2195106Y-5215407D03*
G01X2195106Y-5165395D03*
G54D31*
G01X3277819Y-10820400D03*
G01X3072181Y-10820400D03*
G54D32*
G01X5987796Y-1981200D03*
G01X6153404Y-1981200D03*
G54D33*
G01X1155705Y-7671999D03*
G01X1155705Y-7822011D03*
G01X1612895Y-8177601D03*
G01X1612895Y-8027589D03*
G54D21*
G01X6623304Y-7798498D03*
G01X6718300Y-7568501D03*
G01X6813296Y-7798498D03*
G54D34*
G01X1461364Y-8432800D03*
G01X1612036Y-8432800D03*
G54D35*
G01X1320800Y-7568336D03*
G01X1320800Y-7417664D03*
G54D36*
G01X1008482Y-8178800D03*
G01X921918Y-8178800D03*
G54D37*
G01X941045Y-8077200D03*
G01X989355Y-8077200D03*
G54D34*
G01X597764Y-7454900D03*
G01X748436Y-7454900D03*
G01X597764Y-7569200D03*
G01X748436Y-7569200D03*
G54D35*
G01X6337300Y-8116164D03*
G01X6337300Y-8266836D03*
G54D38*
G01X4699000Y-1382700D03*
G01X4699000Y-1182700D03*
G01X1257300Y-2363800D03*
G01X1257300Y-2563800D03*
G54D39*
G01X5170500Y-1866900D03*
G01X5370500Y-1866900D03*
G54D34*
G01X4560164Y-2273300D03*
G01X4710836Y-2273300D03*
G01X4560164Y-2438400D03*
G01X4710836Y-2438400D03*
G54D39*
G01X6148400Y-3479800D03*
G01X6348400Y-3479800D03*
G01X2906700Y-10312400D03*
G01X2706700Y-10312400D03*
G01X2681300Y-10744200D03*
G01X2881300Y-10744200D03*
G54D40*
G01X5211521Y-2540000D03*
G01X5507279Y-2540000D03*
G54D39*
G01X4281500Y-1549400D03*
G01X4481500Y-1549400D03*
G54D38*
G01X647700Y-2846400D03*
G01X647700Y-3046400D03*
G01X977900Y-2655900D03*
G01X977900Y-2855900D03*
G54D41*
G01X6586411Y-8118907D03*
G01X6586411Y-8418906D03*
G01X6586411Y-8568919D03*
G54D42*
G01X6696393Y-7983906D03*
G01X6926390Y-7983906D03*
G01X6926390Y-8703894D03*
G01X6696393Y-8703894D03*
G54D43*
G01X4691101Y-870788D03*
G01X5291099Y-870788D03*
G01X4691101Y-500812D03*
G01X5291099Y-500812D03*
G01X373101Y-2407488D03*
G01X973099Y-2407488D03*
G01X373101Y-2037512D03*
G01X973099Y-2037512D03*
G54D44*
G01X5483606Y-9702800D03*
G01X6733794Y-9702800D03*
G01X5483606Y-10210800D03*
G01X6733794Y-10210800D03*
G54D45*
G01X190500Y-8929700D03*
G01X190500Y-9129700D03*
G54D46*
G01X1231900Y-8077200D03*
G54D47*
G01X1090752Y-7977200D03*
G01X1090752Y-8027213D03*
G01X1090752Y-8077200D03*
G01X1090752Y-8127213D03*
G01X1090752Y-8177200D03*
G01X1373048Y-8177200D03*
G01X1373048Y-8127213D03*
G01X1373048Y-8077200D03*
G01X1373048Y-8027213D03*
G01X1373048Y-7977200D03*
G54D48*
G01X5199825Y-4024808D03*
G01X5199825Y-3959809D03*
G01X5199825Y-3894811D03*
G01X5199825Y-3829787D03*
G01X5199825Y-3764788D03*
G01X5199825Y-3699789D03*
G01X5199825Y-3634791D03*
G01X5199825Y-3569792D03*
G01X5772976Y-4024808D03*
G01X5772976Y-3959809D03*
G01X5772976Y-3894811D03*
G01X5772976Y-3829787D03*
G01X5772976Y-3764788D03*
G01X5772976Y-3699789D03*
G01X5772976Y-3634791D03*
G01X5772976Y-3569792D03*
G54D49*
G01X6685890Y-7270496D03*
G01X6685890Y-7175500D03*
G01X6685890Y-7080504D03*
G01X6445910Y-7080504D03*
G01X6445910Y-7175500D03*
G01X6445910Y-7270496D03*
G54D50*
G01X3945005Y-1140505D03*
G01X3945005Y-1267505D03*
G01X3945005Y-1394505D03*
G01X3945005Y-1521505D03*
G01X3945005Y-1648505D03*
G01X3945005Y-1775505D03*
G01X3945005Y-1902505D03*
G01X3945005Y-2029505D03*
G01X3945005Y-2156505D03*
G01X3945005Y-2283505D03*
G01X3945005Y-2410505D03*
G01X3945005Y-2537505D03*
G01X3945005Y-2664505D03*
G01X3945005Y-2791505D03*
G54D51*
G01X3768500Y-2919495D03*
G01X3641500Y-2919495D03*
G01X3514500Y-2919495D03*
G01X3387500Y-2919495D03*
G01X3260500Y-2919495D03*
G01X3133500Y-2919495D03*
G01X3006500Y-2919495D03*
G01X2879500Y-2919495D03*
G01X2752500Y-2919495D03*
G01X2625500Y-2919495D03*
G01X2498500Y-2919495D03*
G01X2371500Y-2916498D03*
G54D50*
G01X2194995Y-2791505D03*
G01X2194995Y-2664505D03*
G01X2194995Y-2537505D03*
G01X2194995Y-2410505D03*
G01X2194995Y-2283505D03*
G01X2194995Y-2156505D03*
G01X2194995Y-2029505D03*
G01X2194995Y-1902505D03*
G01X2194995Y-1775505D03*
G01X2194995Y-1648505D03*
G01X2194995Y-1521505D03*
G01X2194995Y-1394505D03*
G01X2194995Y-1267505D03*
G01X2194995Y-1140505D03*
G54D52*
G01X3080008Y-2052517D03*
G01X3220012Y-2052517D03*
G01X3360017Y-2052517D03*
G01X3360017Y-1772508D03*
G01X3220012Y-1772508D03*
G01X3080008Y-1772508D03*
G01X3080008Y-1912512D03*
G01X3360017Y-1912512D03*
G01X3220012Y-1912512D03*
G54D53*
G01X6483096Y-2286610D03*
G01X6388100Y-2286610D03*
G01X6293104Y-2286610D03*
G01X6293104Y-2056790D03*
G01X6388100Y-2056790D03*
G01X6483096Y-2056790D03*
G54D54*
G01X732511Y-6856705D03*
G01X667487Y-6856705D03*
G01X602488Y-6856705D03*
G01X537489Y-6856705D03*
G01X732511Y-6427495D03*
G01X667487Y-6427495D03*
G01X602488Y-6427495D03*
G01X537489Y-6427495D03*
G54D55*
G01X3078099Y-10433304D03*
G01X3078099Y-10528300D03*
G01X3078099Y-10623296D03*
G01X3348101Y-10623296D03*
G01X3348101Y-10528300D03*
G01X3348101Y-10433304D03*
G54D56*
G01X6303378Y-1498600D03*
G01X6523622Y-1598600D03*
G01X6523622Y-1398600D03*
G54D57*
G01X6260426Y-7843307D03*
G01X6260426Y-7523317D03*
G54D55*
G01X5394490Y-1403604D03*
G01X5394490Y-1593596D03*
G01X5654510Y-1593596D03*
G01X5654510Y-1498600D03*
G01X5654510Y-1403604D03*
G54D58*
G01X711200Y-571500D03*
G54D44*
G01X457200Y-571500D03*
G54D59*
G01X731799Y-8473415D03*
G01X731799Y-8393405D03*
G54D60*
G01X731799Y-8328406D03*
G01X731799Y-8278419D03*
G01X731799Y-8228406D03*
G01X731799Y-8178419D03*
G01X731799Y-8128406D03*
G01X731799Y-8078419D03*
G01X731799Y-8028407D03*
G01X731799Y-7978419D03*
G54D59*
G01X731799Y-7913421D03*
G01X731799Y-7833411D03*
G54D61*
G01X676783Y-7720889D03*
G54D62*
G01X258801Y-7720889D03*
G01X258801Y-8585911D03*
G54D61*
G01X676783Y-8585911D03*
G54D13*
G01X6273800Y-296012D03*
G01X6273800Y-211988D03*
G54D63*
G01X6764998Y-644996D03*
G01X6435002Y-644996D03*
G01X6435002Y-155004D03*
G01X6764998Y-155004D03*
G54D44*
G01X5900000Y-600000D03*
G01X800000Y-10000000D03*
G04 Pad End*

G04 Via Start*
G54D64*
G01X2921000Y-8001000D03*
G01X2857500Y-7848600D03*
G01X5181600Y-9283700D03*
G01X4998705Y-9466595D03*
G01X4597400Y-9867900D03*
G01X4152900Y-8204200D03*
G01X3533111Y-8708115D03*
G01X5605807Y-8839046D03*
G01X5542945Y-8794145D03*
G01X1485900Y-7734300D03*
G01X5702300Y-8826500D03*
G01X1389400Y-9127350D03*
G01X5029200Y-9347200D03*
G01X5733288Y-9372600D03*
G01X5308600Y-10439400D03*
G01X4953000Y-9283700D03*
G01X5359400Y-9283700D03*
G01X5791688Y-9194800D03*
G01X5245101Y-9189700D03*
G01X5791688Y-9283700D03*
G01X609600Y-3505200D03*
G01X1930400Y-4000500D03*
G01X5027448Y-3760952D03*
G01X2006600Y-1523505D03*
G01X1231900Y-4127500D03*
G01X1905000Y-1841005D03*
G01X1393221Y-3975100D03*
G01X4102100Y-1397000D03*
G01X4521200Y-1397000D03*
G01X4800600Y-2159000D03*
G01X6032500Y-3848100D03*
G01X6019800Y-3962400D03*
G01X4152900Y-2349500D03*
G01X5473700Y-3886200D03*
G01X4292270Y-2514600D03*
G01X5461000Y-3721100D03*
G01X3652097Y-1376700D03*
G01X6647035Y-3238500D03*
G01X6388100Y-2463800D03*
G01X5295900Y-1187298D03*
G01X6007100Y-1507388D03*
G01X5211521Y-2387600D03*
G01X5528412Y-4495800D03*
G01X6350000Y-3302000D03*
G01X6360305Y-4104495D03*
G01X6096000Y-4038600D03*
G01X5981700Y-3568700D03*
G01X4546600Y-952500D03*
G01X1460500Y-9189400D03*
G01X990600Y-8864600D03*
G01X1333500Y-8343900D03*
G01X863600Y-8039100D03*
G01X1320800Y-7734300D03*
G01X606405Y-6721495D03*
G01X812800Y-6617956D03*
G01X1807036Y-5101764D03*
G01X3708400Y-1638300D03*
G01X1945094Y-4927600D03*
G01X2019300Y-2285505D03*
G01X2019300Y-4292600D03*
G01X1879600Y-4221797D03*
G01X1143000Y-2870200D03*
G01X647700Y-3175000D03*
G01X863600Y-3200400D03*
G01X736600Y-4864100D03*
G01X537489Y-6261100D03*
G01X977900Y-6019800D03*
G01X5270500Y-4191000D03*
G01X2120900Y-3924300D03*
G01X5029200Y-3924300D03*
G01X2095500Y-4648200D03*
G01X2106183Y-5653517D03*
G01X1684849Y-5488459D03*
G01X1688004Y-2336800D03*
G01X1600200Y-5486400D03*
G01X1600200Y-2286000D03*
G01X6477000Y-8118907D03*
G01X5740400Y-7035800D03*
G01X6578600Y-7086600D03*
G01X5867400Y-8229600D03*
G01X838200Y-7720889D03*
G01X1003300Y-7977200D03*
G01X901700Y-8674100D03*
G01X838200Y-7962900D03*
G01X622300Y-8336819D03*
G01X1066190Y-8407400D03*
G01X1200938Y-8565362D03*
G01X3987800Y-4013200D03*
G01X1193800Y-8674100D03*
G01X3911600Y-4013200D03*
G01X6032500Y-8572500D03*
G01X6324600Y-8839200D03*
G01X6160750Y-8401050D03*
G01X6261100Y-7721600D03*
G01X6451600Y-7353300D03*
G01X3733800Y-4610100D03*
G01X4432300Y-2044700D03*
G01X3594100Y-3111500D03*
G01X5270500Y-1435100D03*
G01X2075107Y-5811593D03*
G01X1943100Y-5981700D03*
G01X6324600Y-1587500D03*
G01X4787900Y-9029700D03*
G01X5067300Y-4024808D03*
G01X317500Y-6635902D03*
G01X277455Y-5843945D03*
G01X596900Y-10845800D03*
G01X2681300Y-10617200D03*
G01X3175000Y-10528300D03*
G01X3457595Y-10474305D03*
G01X4013200Y-10607201D03*
G01X3924300Y-10744200D03*
G01X4589501Y-10718800D03*
G01X6159500Y-8610600D03*
G01X5974100Y-8733630D03*
G01X5994400Y-8229600D03*
G01X6159500Y-8750300D03*
G01X6235700Y-8470900D03*
G01X5626100Y-3708400D03*
G01X5499100Y-8597900D03*
G01X4076700Y-9893300D03*
G01X368300Y-9011900D03*
G01X682993Y-6556703D03*
G01X899775Y-7327921D03*
G01X490447Y-8999200D03*
G01X2413000Y-10121900D03*
G01X544894Y-9186809D03*
G01X3530600Y-1574800D03*
G01X429340Y-9058624D03*
G01X3797300Y-1727200D03*
G01X1117600Y-4152900D03*
G01X520700Y-6565900D03*
G01X6560800Y-9245600D03*
G01X5892800Y-3764788D03*
G01X6477000Y-9245600D03*
G01X6296005Y-4486295D03*
G01X5956300Y-3699789D03*
G01X6067445Y-3768745D03*
G01X4089400Y-10477500D03*
G01X4225077Y-10341750D03*
G01X3937000Y-10287000D03*
G01X4240663Y-10231100D03*
G01X3721100Y-10477500D03*
G01X3200400Y-10147300D03*
G01X3037582Y-10352073D03*
G01X2730500Y-10452100D03*
G01X3429000Y-9652000D03*
G01X2895600Y-9474200D03*
G01X2895600Y-9258300D03*
G01X6375400Y-296012D03*
G01X6500800Y-381000D03*
G01X6130905Y-339705D03*
G01X6540500Y-211988D03*
G01X6714388Y-5232400D03*
G01X5613400Y-3568700D03*
G01X4102100Y-1676400D03*
G01X4356100Y-1917700D03*
G01X5943600Y-2501900D03*
G01X6794500Y-5181600D03*
G01X5930900Y-2819400D03*
G01X4978400Y-2438400D03*
G01X6502400Y-2646319D03*
G01X1498600Y-763600D03*
G01X6744233Y-851433D03*
G01X165100Y-889000D03*
G01X3251200Y-10617200D03*
G01X364290Y-10793911D03*
G01X151000Y-5918200D03*
G01X316100Y-5740440D03*
G01X6540500Y-571500D03*
G01X6794500Y-6921500D03*
G01X6692900Y-10566400D03*
G01X6883400Y-9055100D03*
G01X6845300Y-10452100D03*
G01X3708400Y-10579100D03*
G01X622300Y-266700D03*
G01X417718Y-268082D03*
G01X3149600Y-165100D03*
G01X6616700Y-76200D03*
G01X6388100Y-1854200D03*
G01X6705600Y-3893800D03*
G01X3340584Y-151916D03*
G01X3086100Y-88900D03*
G01X330200Y-6883400D03*
G01X1451249Y-8039100D03*
G01X5511800Y-4089400D03*
G01X2324100Y-6303493D03*
G01X1524000Y-3736810D03*
G01X6858000Y-88900D03*
G01X1130300Y-9064241D03*
G01X2057400Y-9398000D03*
G01X2057400Y-9613900D03*
G01X1968500Y-9410700D03*
G01X1955800Y-9626600D03*
G01X1790700Y-9880600D03*
G01X1790700Y-10655300D03*
G01X1066800Y-9474200D03*
G01X1066800Y-9753600D03*
G01X6337300Y-1689100D03*
G01X6273800Y-1651000D03*
G01X2324100Y-5892800D03*
G01X2413000Y-5892800D03*
G01X2495687Y-5841850D03*
G01X2019300Y-5753100D03*
G01X1955769Y-5680614D03*
G01X4851400Y-2514600D03*
G01X5283200Y-3098800D03*
G04 Via End*

G04 Track Start*
G54D65*
G01X2865895Y-8585200D02*
G01X3170695Y-8280400D01*
G01X2857500Y-7848600D02*
G01X2620505Y-7611605D01*
G01X2620505Y-7493000D01*
G01X3826505Y-7520000D02*
G01X3826505Y-8357100D01*
G01X3814305Y-8369300D01*
G01X4161295Y-8369300D02*
G01X4161295Y-8555711D01*
G01X4119105Y-8597900D01*
G01X4504195Y-8597900D02*
G01X5181600Y-9275305D01*
G01X5181600Y-9283700D01*
G01X4998705Y-9466595D02*
G01X4597400Y-9867900D01*
G01X4152900Y-8204200D02*
G01X3979405Y-8204200D01*
G01X3826505Y-8357100D01*
G01X3533111Y-8708115D02*
G01X3170695Y-8345699D01*
G01X3170695Y-8280400D01*
G01X2823705Y-8280400D02*
G01X2819400Y-8276095D01*
G01X2819400Y-8102600D01*
G01X2921000Y-8001000D01*
G01X2973495Y-7520000D02*
G01X3063995Y-7429500D01*
G01X5359400Y-7429500D01*
G01X1485900Y-7734300D02*
G01X1485900Y-7526795D01*
G01X1477505Y-7518400D01*
G01X5359400Y-7429500D02*
G01X5651500Y-7721600D01*
G01X4209995Y-7556500D02*
G01X4260795Y-7505700D01*
G01X5346700Y-7505700D01*
G01X5651500Y-7721600D02*
G01X5651500Y-8793353D01*
G01X5605807Y-8839046D01*
G01X5702300Y-7683500D02*
G01X5702300Y-8826500D01*
G01X5346700Y-7505700D02*
G01X5600700Y-7759700D01*
G01X5600700Y-8736389D01*
G01X5542945Y-8794145D01*
G01X5473700Y-10439400D02*
G01X5308600Y-10439400D01*
G01X2518905Y-8585200D02*
G01X2722105Y-8788400D01*
G01X2722105Y-8928100D01*
G01X5470906Y-9702800D02*
G01X4899406Y-9131300D01*
G01X5733288Y-9372600D02*
G01X5733288Y-10179812D01*
G01X5473700Y-10439400D01*
G01X5245101Y-9189700D02*
G01X5786588Y-9189700D01*
G01X5791688Y-9194800D01*
G01X5359400Y-9283700D02*
G01X5791688Y-9283700D01*
G01X1661498Y-4756798D02*
G01X1326497Y-4756798D01*
G01X1231501Y-4851794D01*
G01X4235793Y-1142505D02*
G01X4241800Y-1136498D01*
G01X4432300Y-1177188D02*
G01X4282491Y-1177188D01*
G01X4241800Y-1136498D01*
G01X3948405Y-1269505D02*
G01X4241800Y-1269505D01*
G01X4241800Y-1276502D01*
G01X4261002Y-1257300D01*
G01X4428388Y-1257300D01*
G01X4432300Y-1261212D01*
G01X4699000Y-1182700D02*
G01X4620489Y-1261212D01*
G01X4432300Y-1261212D01*
G01X4699000Y-1382700D02*
G01X4838700Y-1243000D01*
G01X4838700Y-1016000D01*
G01X4693488Y-870788D01*
G01X4483100Y-844702D02*
G01X4665015Y-844702D01*
G01X4691101Y-870788D01*
G01X4483100Y-704698D02*
G01X4686986Y-500812D01*
G01X4691101Y-500812D01*
G01X4483100Y-704698D02*
G01X4241800Y-945998D01*
G01X4241800Y-1136498D01*
G01X1257300Y-2363800D02*
G01X1213612Y-2407488D01*
G01X973099Y-2407488D01*
G01X1257300Y-2363800D02*
G01X1614500Y-2363800D01*
G01X2044700Y-2794000D01*
G01X2197900Y-2794000D01*
G01X2198395Y-2793505D01*
G01X373101Y-2407488D02*
G01X973099Y-2407488D01*
G01X373101Y-2037512D02*
G01X973099Y-2037512D01*
G01X1868107Y-1142505D02*
G01X973099Y-2037512D01*
G01X5645722Y-1507388D02*
G01X5654510Y-1498600D01*
G01X5168900Y-1591412D02*
G01X5253888Y-1676400D01*
G01X5600700Y-1676400D01*
G01X5654510Y-1622590D01*
G01X6303378Y-1498600D02*
G01X6210567Y-1591412D01*
G01X6121400Y-1591412D01*
G01X5654510Y-1615910D02*
G01X5654510Y-1593596D01*
G01X5654510Y-1622590D02*
G01X5654510Y-1615910D01*
G01X5168900Y-1507388D02*
G01X5029200Y-1367688D01*
G01X5029200Y-1257300D01*
G01X5099202Y-1187298D01*
G01X5168900Y-1187298D01*
G54D66*
G01X5168900Y-1327302D02*
G01X5318189Y-1327302D01*
G54D65*
G01X6121400Y-1591412D02*
G01X6036412Y-1676400D01*
G01X5715000Y-1676400D02*
G01X5654510Y-1615910D01*
G01X5793739Y-1676400D02*
G01X5791200Y-1673861D01*
G01X6036412Y-1676400D02*
G01X5793739Y-1676400D01*
G01X5715000Y-1676400D01*
G01X5791200Y-1371600D02*
G01X5765800Y-1346200D01*
G01X5715000Y-1346200D01*
G01X5654510Y-1403604D01*
G01X6523622Y-1398600D02*
G01X6675603Y-1398600D01*
G01X6705600Y-1428598D01*
G01X3948405Y-1523505D02*
G01X4255605Y-1523505D01*
G01X4281500Y-1549400D01*
G01X4481500Y-1549400D02*
G01X5119455Y-1549400D01*
G01X5130343Y-1560288D01*
G01X5137777Y-1560288D01*
G01X5168900Y-1591412D01*
G01X5772976Y-4024808D02*
G01X5606783Y-4191000D01*
G01X5556402Y-4191000D01*
G01X5416398Y-4191000D02*
G01X5444388Y-4218991D01*
G01X5444388Y-4368800D01*
G01X5528412Y-4368800D02*
G01X5556402Y-4340809D01*
G01X5556402Y-4191000D01*
G01X5772976Y-3829787D02*
G01X5671287Y-3829787D01*
G01X609600Y-7048500D02*
G01X732511Y-6925589D01*
G01X215900Y-6635902D02*
G01X215900Y-6883400D01*
G01X381000Y-7048500D01*
G01X609600Y-7048500D01*
G01X203200Y-5605408D02*
G01X204749Y-5605408D01*
G01X203200Y-6064098D02*
G01X114300Y-6152998D01*
G01X114300Y-6426200D01*
G01X183998Y-6495898D01*
G01X215900Y-6495898D01*
G01X203200Y-6064098D02*
G01X463398Y-6064098D01*
G01X660400Y-6261100D01*
G01X660400Y-6420409D01*
G01X667487Y-6427495D01*
G01X299098Y-4895202D02*
G01X203200Y-4991100D01*
G01X203200Y-5605408D01*
G01X151493Y-3501809D02*
G01X151493Y-4806785D01*
G01X196502Y-4851794D01*
G01X291706Y-4851794D01*
G01X393700Y-4749800D01*
G01X1129508Y-4749800D01*
G01X1231501Y-4851794D01*
G01X977900Y-2855900D02*
G01X1257300Y-2576500D01*
G01X1257300Y-2563800D01*
G01X647700Y-2846400D02*
G01X582600Y-2846400D01*
G01X508000Y-2921000D01*
G01X977900Y-2655900D02*
G01X620700Y-2655900D01*
G01X457200Y-2819400D01*
G01X151493Y-3501809D02*
G01X606209Y-3501809D01*
G01X609600Y-3505200D01*
G01X5027448Y-3760952D02*
G01X5195988Y-3760952D01*
G01X5199825Y-3764788D01*
G01X2198395Y-1523505D02*
G01X2006600Y-1523505D01*
G01X2451405Y-1142505D02*
G01X3083408Y-1774507D01*
G01X3223412Y-1914512D02*
G01X3083408Y-1914512D01*
G01X3083408Y-2054517D01*
G01X3223412Y-2054517D01*
G01X3083408Y-1914512D02*
G01X3083408Y-1774507D01*
G01X3223412Y-2054517D02*
G01X3363417Y-2054517D01*
G01X3363417Y-1914512D01*
G01X3352800Y-1763890D02*
G01X3363417Y-1774507D01*
G01X4432300Y-1261212D02*
G01X4432300Y-1435100D01*
G01X4481500Y-1484300D01*
G01X4481500Y-1549400D01*
G01X3948405Y-1396505D02*
G01X4101605Y-1396505D01*
G01X4102100Y-1397000D01*
G01X4521200Y-1397000D02*
G01X4684700Y-1397000D01*
G01X4699000Y-1382700D01*
G01X5054600Y-3213100D02*
G01X5054600Y-2324100D01*
G01X4281500Y-1551000D01*
G01X4281500Y-1549400D01*
G01X5772976Y-3894811D02*
G01X5985789Y-3894811D01*
G01X6032500Y-3848100D01*
G01X5772976Y-3959809D02*
G01X6017209Y-3959809D01*
G01X6019800Y-3962400D01*
G01X4547959Y-2285505D02*
G01X4560164Y-2273300D01*
G01X4534268Y-2412505D02*
G01X4560164Y-2438400D01*
G01X4710836Y-2438400D02*
G01X4710836Y-2273300D01*
G01X4145018Y-2285505D02*
G01X4152900Y-2293386D01*
G01X4152900Y-2349500D01*
G01X4547959Y-2285505D02*
G01X4145018Y-2285505D01*
G01X3948405Y-2285505D01*
G01X4292270Y-2412505D02*
G01X4292270Y-2514600D01*
G01X4534268Y-2412505D02*
G01X4292270Y-2412505D01*
G01X3948405Y-2412505D01*
G54D67*
G01X6115558Y-2578100D02*
G01X6172200Y-2578100D01*
G01X6286500Y-2463800D01*
G01X6388100Y-2463800D01*
G54D65*
G01X6731000Y-2356358D02*
G01X6623558Y-2463800D01*
G01X6388100Y-2463800D01*
G01X6388100Y-2286610D02*
G01X6388100Y-2463800D01*
G01X6523622Y-1398600D02*
G01X6230188Y-1398600D01*
G01X6121400Y-1507388D01*
G01X5791200Y-1673861D02*
G01X5791200Y-1371600D01*
G01X5645722Y-1507388D02*
G01X5168900Y-1507388D01*
G01X5168900Y-1187298D02*
G01X5295900Y-1187298D01*
G01X6121400Y-1507388D02*
G01X6007100Y-1507388D01*
G01X5211521Y-2540000D02*
G01X5211521Y-2387600D01*
G01X5528412Y-4368800D02*
G01X5528412Y-4495800D01*
G01X6348400Y-3479800D02*
G01X6350000Y-3478200D01*
G01X6350000Y-3302000D01*
G01X6293104Y-2056790D02*
G01X6217514Y-1981200D01*
G01X6153404Y-1981200D01*
G01X6293104Y-2056790D02*
G01X6388100Y-2056790D01*
G01X6388100Y-1955800D01*
G01X6464300Y-1879600D01*
G01X6608679Y-1879600D01*
G01X6731000Y-2001921D01*
G01X6731000Y-2037842D01*
G01X6483096Y-2286610D02*
G01X6483096Y-2241296D01*
G01X6413500Y-2171700D01*
G01X6096000Y-2171700D01*
G01X5987796Y-2063496D01*
G01X5987796Y-1981200D01*
G01X5507279Y-2481021D02*
G01X5507279Y-2540000D01*
G01X5600700Y-2387600D02*
G01X5507279Y-2481021D01*
G01X6192114Y-2387600D02*
G01X5600700Y-2387600D01*
G01X6192114Y-2387600D02*
G01X6293104Y-2286610D01*
G01X5987796Y-1981200D02*
G01X5702402Y-2266594D01*
G01X5689600Y-2266594D01*
G01X5170500Y-1866900D02*
G01X5507279Y-2203679D01*
G01X5507279Y-2481021D01*
G01X1373048Y-8177200D02*
G01X1307227Y-8243020D01*
G01X1231900Y-8077200D02*
G01X1231900Y-8243020D01*
G01X1373048Y-7977200D02*
G01X1373048Y-8027213D01*
G01X1155705Y-7822011D02*
G01X1217859Y-7822011D01*
G01X1373048Y-7977200D01*
G01X1320800Y-7417664D02*
G01X1155705Y-7582759D01*
G01X1155705Y-7671999D01*
G01X1373048Y-7977200D02*
G01X1549806Y-7977200D01*
G01X1574795Y-8002189D01*
G01X1612895Y-8177601D02*
G01X1612895Y-8419241D01*
G01X1599336Y-8432800D01*
G01X1448664Y-8432800D02*
G01X1448664Y-8166359D01*
G01X1417105Y-8134800D01*
G01X1380635Y-8134800D01*
G01X1373048Y-8127213D01*
G01X444500Y-8178800D02*
G01X544119Y-8278419D01*
G01X731799Y-8278419D01*
G01X667487Y-6856705D02*
G01X667487Y-6699987D01*
G01X602488Y-6856705D02*
G01X602488Y-6725412D01*
G01X606405Y-6721495D01*
G01X667487Y-6699987D02*
G01X622300Y-6654800D01*
G01X508000Y-6654800D01*
G01X203200Y-6350000D01*
G01X203200Y-6204102D01*
G01X981812Y-6489700D02*
G01X977900Y-6493612D01*
G01X977900Y-6565900D01*
G01X925844Y-6617956D01*
G01X812800Y-6617956D01*
G01X897788Y-6489700D02*
G01X825500Y-6417412D01*
G01X825500Y-6083300D01*
G01X1807036Y-5101764D01*
G01X3708400Y-1638300D02*
G01X3936200Y-1638300D01*
G01X3948405Y-1650505D01*
G01X1945094Y-5065395D02*
G01X1945094Y-4927600D01*
G01X1573598Y-4505238D02*
G01X1573598Y-4509697D01*
G01X1326497Y-4756798D01*
G01X1661498Y-4441812D02*
G01X1637023Y-4441812D01*
G01X1573598Y-4505238D01*
G01X2198395Y-2285505D02*
G01X2019300Y-2285505D01*
G01X2019300Y-4292600D02*
G01X1760106Y-4551794D01*
G01X1661498Y-4551794D01*
G01X1661498Y-4221797D02*
G01X1879600Y-4221797D01*
G01X977900Y-2855900D02*
G01X992200Y-2870200D01*
G01X1143000Y-2870200D01*
G01X736600Y-4864100D02*
G01X623794Y-4864100D01*
G01X611487Y-4851794D01*
G01X647700Y-2846400D02*
G01X863600Y-3062300D01*
G01X863600Y-3200400D01*
G01X732511Y-6856705D02*
G01X736600Y-6852615D01*
G01X602488Y-6427495D02*
G01X602488Y-6558788D01*
G01X736600Y-6692900D01*
G01X736600Y-6852615D01*
G01X537489Y-6427495D02*
G01X537489Y-6261100D01*
G01X1102208Y-6265476D02*
G01X1102208Y-6144108D01*
G01X977900Y-6019800D01*
G01X1945094Y-6415405D02*
G01X2095106Y-6265393D01*
G01X2195106Y-6265393D01*
G01X1661498Y-4001808D02*
G01X1929092Y-4001808D01*
G01X1930400Y-4000500D01*
G01X5029200Y-3924300D02*
G01X5123713Y-3829787D01*
G01X5199825Y-3829787D01*
G01X5199825Y-3894811D02*
G01X5199825Y-3959809D01*
G01X5199825Y-4024808D01*
G01X5199825Y-3569792D02*
G01X5284292Y-3569792D01*
G01X5346700Y-3632200D01*
G01X5346700Y-3835400D01*
G01X5287289Y-3894811D01*
G01X5199825Y-3894811D01*
G01X1828800Y-3632200D02*
G01X2120900Y-3924300D01*
G01X647700Y-3046400D02*
G01X647700Y-3175000D01*
G01X457200Y-2819400D02*
G01X457200Y-3200400D01*
G01X1148601Y-3891801D01*
G01X1661498Y-3891801D01*
G01X508000Y-2921000D02*
G01X508000Y-3187700D01*
G01X952500Y-3632200D01*
G01X1828800Y-3632200D01*
G01X1945094Y-5065395D02*
G01X1945094Y-5409838D01*
G01X2202193Y-5758306D02*
G01X2195106Y-5765394D01*
G01X2202193Y-5658307D02*
G01X2195106Y-5665394D01*
G01X2202193Y-5558307D02*
G01X2195106Y-5565394D01*
G01X2202219Y-5472507D02*
G01X2195106Y-5465394D01*
G01X2195106Y-5365394D02*
G01X2202193Y-5358307D01*
G01X3009900Y-2921495D02*
G01X3009900Y-4838700D01*
G01X2195106Y-5415407D02*
G01X2433193Y-5415407D01*
G01X3009900Y-4838700D01*
G01X3517900Y-2921495D02*
G01X3517900Y-4635500D01*
G01X2395094Y-5758306D01*
G01X2202193Y-5758306D01*
G01X3390900Y-2921495D02*
G01X3390900Y-4660900D01*
G01X2393493Y-5658307D01*
G01X2202193Y-5658307D01*
G01X3263900Y-2921495D02*
G01X3263900Y-4724400D01*
G01X2429993Y-5558307D01*
G01X2202193Y-5558307D01*
G01X3136900Y-2921495D02*
G01X3136900Y-4762500D01*
G01X2426893Y-5472507D01*
G01X2202219Y-5472507D01*
G01X2202193Y-5358307D02*
G01X2426793Y-5358307D01*
G01X2882900Y-4902200D02*
G01X2882900Y-2921495D01*
G01X2882900Y-4902200D02*
G01X2426793Y-5358307D01*
G01X2755900Y-2921495D02*
G01X2755900Y-4965700D01*
G01X2195106Y-5315407D02*
G01X2406193Y-5315407D01*
G01X2755900Y-4965700D01*
G01X2628900Y-2921495D02*
G01X2628900Y-5029200D01*
G01X2387600Y-5270500D01*
G01X2200212Y-5270500D01*
G01X2195106Y-5265395D01*
G01X2501900Y-2921495D02*
G01X2501900Y-4241800D01*
G01X2095500Y-4648200D01*
G01X2133600Y-5715000D02*
G01X2194700Y-5715000D01*
G01X2195106Y-5715406D01*
G01X2374900Y-2918498D02*
G01X2374900Y-4279900D01*
G01X2032000Y-4622800D01*
G01X2032000Y-5410200D02*
G01X2137207Y-5515407D01*
G01X2195106Y-5515407D01*
G01X2032000Y-4622800D02*
G01X2032000Y-5410200D01*
G01X2198713Y-5969000D02*
G01X2195106Y-5965393D01*
G01X2006600Y-1397000D02*
G01X2197900Y-1397000D01*
G01X2198395Y-1396505D01*
G01X1689100Y-1714500D02*
G01X2006600Y-1397000D01*
G01X1955800Y-1270000D02*
G01X2197900Y-1270000D01*
G01X2198395Y-1269505D01*
G01X5912745Y-7042893D02*
G01X6091206Y-7221353D01*
G01X6217545Y-7221353D01*
G01X5880100Y-8058658D02*
G01X6045075Y-8058658D01*
G01X6260426Y-7843307D01*
G01X5912745Y-7361409D02*
G01X5912745Y-7732897D01*
G01X5905500Y-7740142D01*
G01X6217545Y-7081349D02*
G01X6445066Y-7081349D01*
G01X6445910Y-7080504D01*
G01X6445910Y-7175500D01*
G01X6445910Y-7080504D02*
G01X6470396Y-7080504D01*
G01X6540500Y-7010400D01*
G01X6781800Y-7010400D01*
G01X6883400Y-7112000D01*
G01X6883400Y-7403401D01*
G01X6718300Y-7568501D01*
G01X6260426Y-7523317D02*
G01X6354243Y-7429500D01*
G01X6574688Y-7429500D01*
G01X6685890Y-7175500D02*
G01X6616700Y-7175500D01*
G01X6578600Y-7213600D01*
G01X6578600Y-7425588D01*
G01X6574688Y-7429500D01*
G01X6658712Y-7429500D02*
G01X6685890Y-7402322D01*
G01X6685890Y-7270496D01*
G01X6611811Y-8118907D02*
G01X6477000Y-8118907D01*
G01X5912745Y-7042893D02*
G01X5905652Y-7035800D01*
G01X5740400Y-7035800D01*
G01X6685890Y-7080504D02*
G01X6679794Y-7086600D01*
G01X6578600Y-7086600D01*
G01X6337300Y-8116164D02*
G01X6623304Y-7830160D01*
G01X6623304Y-7798498D01*
G01X6337300Y-8266836D02*
G01X6459741Y-8266836D01*
G01X6611811Y-8418906D01*
G01X793744Y-8228406D02*
G01X731799Y-8228406D01*
G01X889000Y-8458071D02*
G01X889000Y-8323662D01*
G01X793744Y-8228406D01*
G01X1066190Y-8610600D02*
G01X1041529Y-8610600D01*
G01X889000Y-8458071D01*
G01X731799Y-8128406D02*
G01X669855Y-8128406D01*
G01X659206Y-8228406D02*
G01X731799Y-8228406D01*
G01X647700Y-8216900D02*
G01X659206Y-8228406D01*
G01X669855Y-8128406D02*
G01X646399Y-8151863D01*
G01X646399Y-8204975D01*
G01X647700Y-8206277D01*
G01X647700Y-8216900D01*
G01X817200Y-8101850D02*
G01X817200Y-8154963D01*
G01X793363Y-8178800D01*
G01X732180Y-8178800D01*
G01X731799Y-8178419D01*
G01X731799Y-8078419D02*
G01X733019Y-8077200D01*
G01X792550Y-8077200D01*
G01X817200Y-8101850D01*
G01X793363Y-8178800D02*
G01X800069Y-8185506D01*
G01X801190Y-8185506D01*
G01X908784Y-8293100D01*
G01X1073506Y-8293100D01*
G01X1296010Y-8515604D01*
G01X990600Y-8077200D02*
G01X1090752Y-8077200D01*
G01X1090752Y-8027213D02*
G01X1090752Y-7977200D01*
G01X731799Y-7978419D02*
G01X599719Y-7978419D01*
G01X508000Y-7886700D01*
G01X508000Y-7645400D01*
G01X571500Y-7581900D01*
G01X748436Y-7569200D02*
G01X748436Y-7649235D01*
G01X676783Y-7720889D01*
G01X731799Y-7775905D01*
G01X731799Y-7833411D01*
G01X676783Y-7720889D02*
G01X838200Y-7720889D01*
G01X749300Y-7568336D02*
G01X748436Y-7569200D01*
G01X444500Y-7543800D02*
G01X444500Y-8178800D01*
G01X597764Y-7454900D02*
G01X533400Y-7454900D01*
G01X444500Y-7543800D01*
G01X1008482Y-8178800D02*
G01X1089152Y-8178800D01*
G01X1090752Y-8177200D01*
G01X901700Y-8807298D02*
G01X274803Y-8807298D01*
G01X152400Y-8929700D01*
G01X676783Y-8585911D02*
G01X731799Y-8530895D01*
G01X731799Y-8473415D01*
G01X1043991Y-8705596D02*
G01X1066190Y-8705596D01*
G01X838200Y-8499805D02*
G01X984690Y-8646295D01*
G01X984690Y-8648757D01*
G01X1001034Y-8665100D01*
G01X1003495Y-8665100D01*
G01X1043991Y-8705596D01*
G01X731799Y-8393405D02*
G01X778746Y-8393405D01*
G01X838200Y-8452858D01*
G01X838200Y-8499805D01*
G01X863600Y-8039100D02*
G01X902945Y-8039100D01*
G01X941045Y-8077200D01*
G01X941045Y-8159674D01*
G01X921918Y-8178800D01*
G01X1090752Y-7977200D02*
G01X1003300Y-7977200D01*
G01X901700Y-8674100D02*
G01X901700Y-8807298D01*
G01X258801Y-8585911D02*
G01X676783Y-8585911D01*
G01X258801Y-7720889D02*
G01X258801Y-8585911D01*
G01X731799Y-7833411D02*
G01X859587Y-7833411D01*
G01X869798Y-7823200D01*
G01X1009802Y-7823200D02*
G01X1154516Y-7823200D01*
G01X1155705Y-7822011D01*
G01X1064296Y-7913421D02*
G01X1154516Y-7823200D01*
G01X731799Y-7913421D02*
G01X788721Y-7913421D01*
G01X838200Y-7962900D01*
G01X788721Y-7913421D02*
G01X1064296Y-7913421D01*
G01X731799Y-8393405D02*
G01X680612Y-8393405D01*
G01X624027Y-8336819D02*
G01X622300Y-8336819D01*
G01X624027Y-8336819D02*
G01X680612Y-8393405D01*
G01X1066190Y-8515604D02*
G01X1066190Y-8407400D01*
G01X1296010Y-8610600D02*
G01X1246175Y-8610600D01*
G01X1200938Y-8565362D01*
G01X1296010Y-8705596D02*
G01X1225296Y-8705596D01*
G01X1193800Y-8674100D01*
G01X3911600Y-4013200D02*
G01X3911600Y-3073400D01*
G01X4089400Y-2895600D01*
G01X4089400Y-2844800D01*
G01X4038105Y-2793505D01*
G01X3948405Y-2793505D01*
G01X4140200Y-2908300D02*
G01X4140200Y-2781300D01*
G01X4025405Y-2666505D01*
G01X3948405Y-2666505D01*
G01X3987800Y-4013200D02*
G01X3987800Y-3060700D01*
G01X4140200Y-2908300D01*
G01X5770385Y-3962400D02*
G01X5772976Y-3959809D01*
G01X6260426Y-7843307D02*
G01X6261100Y-7842633D01*
G01X6261100Y-7721600D01*
G01X6445910Y-7270496D02*
G01X6451600Y-7276186D01*
G01X6451600Y-7353300D01*
G01X1232620Y-8243020D02*
G01X1333500Y-8343900D01*
G01X1307227Y-8243020D02*
G01X1232620Y-8243020D01*
G01X1231900Y-8243020D01*
G01X3948405Y-2031505D02*
G01X4419105Y-2031505D01*
G01X4432300Y-2044700D01*
G01X1945094Y-5409838D02*
G01X2157749Y-5622494D01*
G01X2188019Y-5622494D01*
G01X2195106Y-5615407D01*
G01X5199825Y-3699789D02*
G01X5197063Y-3702551D01*
G01X5199825Y-3634791D02*
G01X4791700Y-3634791D01*
G01X2457490Y-5969000D01*
G01X2198713Y-5969000D01*
G01X5197063Y-3702551D02*
G01X4793749Y-3702551D01*
G01X2430907Y-6065393D01*
G01X2195106Y-6065393D01*
G01X2195106Y-5815406D02*
G01X2414194Y-5815406D01*
G01X3594100Y-4635500D01*
G01X3594100Y-3111500D01*
G01X1661498Y-3891801D02*
G01X1948701Y-3891801D01*
G01X2159000Y-4102100D01*
G01X2159000Y-4406900D01*
G01X1904098Y-4661802D01*
G01X1661498Y-4661802D01*
G01X4787900Y-9029700D02*
G01X4584700Y-9029700D01*
G01X4157205Y-8602205D01*
G01X4157205Y-8597900D01*
G01X3474994Y-10067500D02*
G01X3525006Y-10067500D01*
G01X3574994Y-10067500D01*
G01X3625006Y-10067500D01*
G01X3674993Y-10067500D01*
G01X3725006Y-10067500D01*
G01X3774993Y-10067500D01*
G01X3825006Y-10067500D01*
G01X3874993Y-10067500D01*
G01X3925006Y-10067500D01*
G01X4225005Y-10067500D02*
G01X4175018Y-10067500D01*
G01X5461000Y-3721100D02*
G01X5634711Y-3894811D01*
G01X5772976Y-3894811D01*
G01X5473700Y-3886200D02*
G01X5549900Y-3962400D01*
G01X5770385Y-3962400D01*
G01X5199825Y-4024808D02*
G01X5067300Y-4024808D01*
G01X2195106Y-6215405D02*
G01X3246095Y-6215405D01*
G01X5270500Y-4191000D01*
G01X5461000Y-3721100D02*
G01X5461000Y-3816310D01*
G01X5397500Y-3879810D01*
G01X732511Y-6427495D02*
G01X732511Y-5535176D01*
G01X1102208Y-5165478D01*
G01X203200Y-6635902D02*
G01X215900Y-6635902D01*
G01X317500Y-6635902D01*
G01X2681300Y-10744200D02*
G01X2681300Y-10617200D01*
G01X3078099Y-10433304D02*
G01X3041003Y-10470400D01*
G01X3011543Y-10470400D01*
G01X2881300Y-10600643D01*
G01X2881300Y-10744200D01*
G01X3078099Y-10528300D02*
G01X3175000Y-10528300D01*
G01X3078099Y-10623296D02*
G01X3078099Y-10839882D01*
G01X3072181Y-10845800D01*
G01X3348101Y-10623296D02*
G01X3277819Y-10693578D01*
G01X3277819Y-10820400D01*
G01X3348101Y-10528300D02*
G01X3416300Y-10528300D01*
G01X3664102Y-10776102D01*
G01X3524098Y-10833100D02*
G01X3612998Y-10922000D01*
G01X3886200Y-10922000D01*
G01X3930498Y-10877702D01*
G01X3930498Y-10833100D01*
G01X3924300Y-10826902D01*
G01X3924300Y-10744200D01*
G01X6705600Y-8325117D02*
G01X6611811Y-8418906D01*
G01X6721793Y-7983906D02*
G01X6705600Y-7983906D01*
G01X6705600Y-8325117D01*
G01X6813296Y-7798498D02*
G01X6813296Y-7855204D01*
G01X6705600Y-7962900D01*
G01X6705600Y-7967713D01*
G01X6721793Y-7983906D01*
G01X6926390Y-7983906D01*
G01X6611811Y-8418906D02*
G01X6692900Y-8499996D01*
G01X6692900Y-8703894D01*
G01X6926390Y-8703894D01*
G01X6032500Y-8572500D02*
G01X6160750Y-8444250D01*
G01X6160750Y-8401050D01*
G01X6159500Y-8610600D02*
G01X6096000Y-8610600D01*
G01X5974100Y-8732500D01*
G01X5974100Y-8733630D01*
G01X6159500Y-8610600D02*
G01X6159500Y-8547100D01*
G01X6235700Y-8470900D01*
G01X5626100Y-3708400D02*
G01X5572743Y-3655043D01*
G01X5496543Y-3655043D01*
G01X5671287Y-3829787D02*
G01X5496543Y-3655043D01*
G01X5054600Y-3213100D01*
G01X2825008Y-10067500D02*
G01X2874995Y-10067500D01*
G01X4075018Y-10067500D02*
G01X4125005Y-10067500D01*
G01X4075018Y-10029400D02*
G01X4076700Y-10027718D01*
G01X4076700Y-9893300D01*
G01X2825008Y-10067500D02*
G01X2825008Y-10219492D01*
G01X2719400Y-10325100D01*
G01X3025007Y-10067500D02*
G01X3017895Y-10060388D01*
G01X667487Y-6427495D02*
G01X682993Y-6443002D01*
G01X682993Y-6556703D01*
G01X939800Y-7588402D02*
G01X1009802Y-7658405D01*
G01X1009802Y-7823200D01*
G01X939800Y-7448398D02*
G01X754939Y-7448398D01*
G01X749300Y-7454900D02*
G01X749300Y-7568336D01*
G01X754939Y-7448398D02*
G01X748436Y-7454900D01*
G01X732511Y-6856705D02*
G01X732511Y-6925589D01*
G01X732511Y-7037543D01*
G01X901700Y-7206732D01*
G01X899775Y-7327921D01*
G01X3017895Y-10060388D02*
G01X3017895Y-9901295D01*
G01X2525008Y-10067500D02*
G01X2470608Y-10121900D01*
G01X2413000Y-10121900D01*
G01X1688004Y-2336800D02*
G01X1689100Y-2335704D01*
G01X1689100Y-1714500D01*
G01X1600200Y-2286000D02*
G01X1600200Y-1625600D01*
G01X1955800Y-1270000D01*
G01X3948405Y-1904505D02*
G01X3860305Y-1904505D01*
G01X3530600Y-1574800D01*
G01X3074995Y-10067500D02*
G01X3074995Y-9894895D01*
G01X1231900Y-4127500D02*
G01X1436205Y-4331805D01*
G01X1661498Y-4331805D01*
G01X2198395Y-1650505D02*
G01X2121395Y-1650505D01*
G01X1930895Y-1841005D01*
G01X1905000Y-1841005D01*
G01X3947909Y-1778000D02*
G01X3948405Y-1777505D01*
G01X3797300Y-1727200D02*
G01X3848100Y-1778000D01*
G01X3947909Y-1778000D01*
G01X1393221Y-3975100D02*
G01X1507521Y-4089400D01*
G01X1639108Y-4089400D01*
G01X1661498Y-4111790D01*
G01X520700Y-6565900D02*
G01X595376Y-6565900D01*
G01X602488Y-6558788D01*
G01X3348101Y-10433304D02*
G01X3416006Y-10433304D01*
G01X3925006Y-10029400D02*
G01X3932118Y-10022288D01*
G01X4017918Y-10022313D02*
G01X4025005Y-10029400D01*
G01X6148400Y-3479800D02*
G01X6148400Y-3605200D01*
G01X5923813Y-3829787D01*
G01X5772976Y-3829787D01*
G01X5772976Y-3764788D02*
G01X5892800Y-3764788D01*
G01X5772976Y-3699789D02*
G01X5956300Y-3699789D01*
G01X6296005Y-4486295D02*
G01X6296005Y-3997305D01*
G01X6064581Y-3765881D01*
G01X6451600Y-10541000D02*
G01X6477000Y-10515600D01*
G01X6477000Y-9245600D01*
G01X6527800Y-10515146D02*
G01X6527800Y-9278600D01*
G01X6560800Y-9245600D01*
G01X6451146Y-10591800D02*
G01X6527800Y-10515146D01*
G01X4325005Y-10067500D02*
G01X4275018Y-10067500D01*
G01X3078099Y-10433304D02*
G01X3224403Y-10287000D01*
G01X3937000Y-10287000D01*
G01X3975018Y-10067500D02*
G01X3975018Y-10242428D01*
G01X3416006Y-10433304D02*
G01X3483710Y-10365600D01*
G01X4098150Y-10365560D02*
G01X4324390Y-10591800D01*
G01X6451146Y-10591800D01*
G01X3483710Y-10365600D02*
G01X4098150Y-10365560D01*
G01X3975018Y-10242428D02*
G01X4062552Y-10329962D01*
G01X4112898Y-10329962D01*
G01X4323936Y-10541000D01*
G01X6451600Y-10541000D01*
G01X4240663Y-10231100D02*
G01X4275018Y-10196746D01*
G01X4275018Y-10067500D01*
G01X3721100Y-10477500D02*
G01X3575406Y-10477500D01*
G01X3125007Y-10067500D02*
G01X3125007Y-10136944D01*
G01X3037582Y-10224370D01*
G01X3037582Y-10352073D01*
G01X3575406Y-10477500D02*
G01X3572211Y-10474305D01*
G01X3457595Y-10474305D01*
G01X2974883Y-10409151D02*
G01X3031961Y-10352073D01*
G01X3037582Y-10352073D01*
G01X2803451Y-10409151D02*
G01X2974883Y-10409151D01*
G01X2730500Y-10336200D02*
G01X2730500Y-10452100D01*
G01X2730500Y-10336200D02*
G01X2803451Y-10409151D01*
G01X2722105Y-8928100D02*
G01X2895600Y-9101595D01*
G01X2895600Y-9245600D01*
G01X3937000Y-10477500D02*
G01X3664102Y-10750398D01*
G01X3664102Y-10776102D01*
G01X3664102Y-10833100D01*
G01X3937000Y-10477500D02*
G01X4089400Y-10477500D01*
G01X3429000Y-9652000D02*
G01X3073400Y-9652000D01*
G01X2895600Y-9474200D01*
G01X6273800Y-211988D02*
G01X6378017Y-211988D01*
G01X6435002Y-155004D01*
G01X6273800Y-296012D02*
G01X6375400Y-296012D01*
G01X6540500Y-211988D02*
G01X6491986Y-211988D01*
G01X6435002Y-155004D01*
G01X4356100Y-1917700D02*
G01X4343400Y-1917700D01*
G01X4102100Y-1676400D01*
G54D67*
G01X5867400Y-2578100D02*
G01X5943600Y-2501900D01*
G54D65*
G01X5772976Y-3634791D02*
G01X5792924Y-3614842D01*
G01X5861060Y-3614842D01*
G01X5887450Y-3588453D01*
G01X5887450Y-3520316D01*
G01X6153404Y-1981200D02*
G01X6159500Y-1975104D01*
G01X6159500Y-1816100D01*
G01X5613400Y-3568700D02*
G01X5614492Y-3569792D01*
G01X5772976Y-3569792D01*
G01X3948405Y-2526805D02*
G01X4221885Y-2526805D01*
G01X3948405Y-2158505D02*
G01X4800105Y-2158505D01*
G01X4800600Y-2159000D01*
G01X5887450Y-3520316D02*
G01X5930900Y-3476866D01*
G01X5930900Y-2819400D01*
G01X2198395Y-1129805D02*
G01X1832191Y-763600D01*
G01X1498600Y-763600D01*
G01X4691101Y-870788D02*
G01X4693488Y-870788D01*
G01X5291099Y-870788D01*
G01X5291099Y-500812D02*
G01X4691101Y-500812D01*
G01X6273800Y-211988D02*
G01X6258621Y-211988D01*
G01X6130905Y-339705D01*
G54D67*
G01X711200Y-571500D02*
G01X965200Y-317500D01*
G01X6130905Y-339705D02*
G01X6108700Y-317500D01*
G54D65*
G01X3348101Y-10623296D02*
G01X3342005Y-10617200D01*
G01X3251200Y-10617200D01*
G01X6764998Y-644996D02*
G01X6764998Y-155004D01*
G01X6540500Y-571500D02*
G01X6691503Y-571500D01*
G01X6764998Y-644996D01*
G54D67*
G01X6794500Y-5181600D02*
G01X6794500Y-6921500D01*
G01X6883400Y-9055100D02*
G01X6883400Y-10414000D01*
G01X6845300Y-10452100D01*
G54D65*
G01X622300Y-266700D02*
G01X419100Y-266700D01*
G01X417718Y-268082D01*
G01X2451405Y-1142505D02*
G01X2198395Y-1142505D01*
G01X1868107Y-1142505D01*
G54D67*
G01X6108700Y-317500D02*
G01X3086182Y-317500D01*
G01X965200Y-317500D02*
G01X3086182Y-317500D01*
G54D65*
G01X6616700Y-76200D02*
G01X6686194Y-76200D01*
G01X6764998Y-155004D01*
G01X6121400Y-1591412D02*
G01X6121400Y-1778000D01*
G01X6159500Y-1816100D01*
G01X6388100Y-1955800D02*
G01X6388100Y-1854200D01*
G01X6516310Y-270389D02*
G01X6564690Y-270389D01*
G01X6598900Y-236179D01*
G01X6266461Y-159088D02*
G01X6235243Y-159088D01*
G01X6218900Y-175432D01*
G01X6435002Y-644996D02*
G01X6435002Y-351697D01*
G01X6516310Y-270389D01*
G01X6598900Y-236179D02*
G01X6598900Y-154446D01*
G01X6218900Y-175432D02*
G01X6212588Y-175432D01*
G01X444500Y-6950812D02*
G01X342900Y-6950812D01*
G01X330200Y-6938112D01*
G01X330200Y-6883400D01*
G01X537489Y-6856705D02*
G01X454584Y-6856705D01*
G01X444500Y-6866788D01*
G01X1373048Y-8077200D02*
G01X1413149Y-8077200D01*
G01X1451249Y-8039100D01*
G01X1320800Y-7568336D02*
G01X1320800Y-7734300D01*
G01X5416398Y-4191000D02*
G01X5511800Y-4095598D01*
G01X5511800Y-4089400D01*
G01X5370500Y-1866900D02*
G01X5682894Y-1866900D01*
G01X5689600Y-1873606D01*
G01X4175018Y-10067500D02*
G01X4167905Y-10074613D01*
G01X4167905Y-10144056D01*
G01X4151562Y-10160400D01*
G01X4048462Y-10160400D01*
G01X4032118Y-10144056D01*
G01X4032118Y-10074613D01*
G01X4025005Y-10067500D01*
G01X2195106Y-6265393D02*
G01X2286000Y-6265393D01*
G01X2324100Y-6303493D01*
G01X1661498Y-3736810D02*
G01X1524000Y-3736810D01*
G01X6764998Y-118402D02*
G01X6764998Y-155004D01*
G01X6858000Y-88900D02*
G01X6845300Y-76200D01*
G01X6807200Y-76200D01*
G01X6764998Y-118402D01*
G01X6598900Y-154446D02*
G01X6496558Y-52104D01*
G01X6373445Y-52104D01*
G01X6266461Y-159088D01*
G01X3017895Y-9901295D02*
G01X2898200Y-9781600D01*
G01X2057400Y-9398000D02*
G01X2057400Y-9613900D01*
G01X1968500Y-9410700D02*
G01X1968500Y-9613900D01*
G01X1955800Y-9626600D01*
G01X5397500Y-3879810D02*
G01X5397500Y-3960267D01*
G01X3242362Y-6115406D01*
G01X2195106Y-6115406D01*
G01X1130300Y-9064241D02*
G01X1164841Y-9029700D01*
G01X901700Y-8947302D02*
G01X984402Y-8864600D01*
G01X990600Y-8864600D01*
G01X3074995Y-9894895D02*
G01X2926100Y-9746000D01*
G01X1923254Y-9746000D01*
G01X549624Y-9058624D02*
G01X429340Y-9058624D01*
G01X2898200Y-9781600D02*
G01X1908508Y-9781600D01*
G01X405149Y-9117024D02*
G01X370939Y-9082814D01*
G01X370939Y-9034434D01*
G01X380886Y-9024487D01*
G01X368300Y-9011900D01*
G01X557679Y-9117024D02*
G01X405149Y-9117024D01*
G01X1790700Y-9880600D02*
G01X1790700Y-10655300D01*
G01X1923254Y-9746000D02*
G01X1460954Y-9283700D01*
G01X774700Y-9283700D01*
G01X549624Y-9058624D01*
G01X1908508Y-9781600D02*
G01X1446208Y-9319300D01*
G01X759954Y-9319300D01*
G01X557679Y-9117024D01*
G01X1893762Y-9817200D02*
G01X1436462Y-9359900D01*
G01X717985Y-9359900D01*
G01X544894Y-9186809D01*
G01X3030995Y-9055100D02*
G01X3107195Y-9131300D01*
G01X4899406Y-9131300D01*
G01X2684005Y-9055100D02*
G01X2887205Y-9258300D01*
G01X2895600Y-9258300D01*
G54D68*
G01X1066800Y-9474200D02*
G01X1066800Y-9753600D01*
G54D65*
G01X4425005Y-10029400D02*
G01X4417918Y-10022313D01*
G01X4417918Y-9917018D02*
G01X4211300Y-9710400D01*
G01X4417918Y-10022313D02*
G01X4417918Y-9917018D01*
G01X4417918Y-10022313D02*
G01X4417918Y-10060413D01*
G01X2967908Y-9927508D02*
G01X2857600Y-9817200D01*
G01X1893762Y-9817200D01*
G01X2919400Y-10325100D02*
G01X2967908Y-10276592D01*
G01X2967908Y-9927508D01*
G01X4375017Y-10191809D02*
G01X4225077Y-10341750D01*
G01X4375017Y-10067500D02*
G01X4375017Y-10191809D01*
G01X5029200Y-9347200D02*
G01X5024100Y-9352300D01*
G01X4953000Y-9283700D02*
G01X4920000Y-9316700D01*
G01X2496800Y-9316700D01*
G01X2209800Y-9029700D01*
G01X1164841Y-9029700D01*
G01X5024100Y-9352300D02*
G01X2456200Y-9352300D01*
G01X2231250Y-9127350D02*
G01X1389400Y-9127350D01*
G01X2231250Y-9127350D02*
G01X2456200Y-9352300D01*
G01X1824495Y-7518400D02*
G01X1950195Y-7392700D01*
G01X5411500Y-7392700D01*
G01X5702300Y-7683500D01*
G54D67*
G01X3149600Y-165100D02*
G01X3086182Y-228518D01*
G01X3086182Y-317500D01*
G54D65*
G01X6212588Y-175432D02*
G01X6189071Y-151916D01*
G01X3340584Y-151916D01*
G01X204749Y-5745412D02*
G01X209721Y-5740440D01*
G01X316100Y-5740440D01*
G01X1938000Y-9710400D02*
G01X1475700Y-9248100D01*
G01X1463000Y-9248100D01*
G01X1462700Y-9247800D01*
G01X1436310Y-9247800D01*
G01X1402100Y-9213590D01*
G01X1402100Y-9209700D01*
G01X789600Y-9209700D01*
G01X1938000Y-9710400D02*
G01X4211300Y-9710400D01*
G01X3966262Y-9918700D02*
G01X3983775Y-9918700D01*
G01X3932118Y-9950944D02*
G01X3948462Y-9934600D01*
G01X3950362Y-9934600D01*
G01X3966262Y-9918700D01*
G01X3983775Y-9918700D02*
G01X3999675Y-9934600D01*
G01X4001575Y-9934600D01*
G01X4017918Y-9950944D01*
G01X3932118Y-9950944D02*
G01X3932118Y-10022288D01*
G01X4017918Y-9950944D02*
G01X4017918Y-10022313D01*
G01X3200400Y-10147300D02*
G01X3200400Y-10067500D01*
G01X3174994Y-10027500D02*
G01X3200400Y-10052906D01*
G01X3200400Y-10067500D01*
G01X3474994Y-10067500D01*
G01X152400Y-9129700D02*
G01X366700Y-8915400D01*
G01X869798Y-8915400D01*
G01X901700Y-8947302D01*
G01X789600Y-9209700D02*
G01X584200Y-9004300D01*
G01X495547Y-9004300D01*
G01X490447Y-8999200D01*
G01X3733800Y-4610100D02*
G01X3810000Y-4533900D01*
G01X3810000Y-2959595D01*
G01X3771900Y-2921495D01*
G54D67*
G01X5270500Y-1435100D02*
G01X5308600Y-1397000D01*
G01X5387886Y-1397000D01*
G54D66*
G01X5318189Y-1327302D02*
G01X5387886Y-1397000D01*
G54D65*
G01X2195106Y-5865393D02*
G01X2245893Y-5865393D01*
G54D44*
G01X6335385Y-1640400D02*
G01X6481821Y-1640400D01*
G01X6523622Y-1598600D01*
G54D66*
G01X6523622Y-1598600D02*
G01X6560122Y-1562100D01*
G01X6699098Y-1562100D01*
G01X6705600Y-1568602D01*
G54D65*
G01X6273800Y-1651000D02*
G01X6324600Y-1600200D01*
G01X6324600Y-1587500D01*
G54D69*
G01X2245893Y-5865393D02*
G01X2298700Y-5865393D01*
G54D65*
G01X2106183Y-5653517D02*
G01X2106183Y-5687583D01*
G01X2133600Y-5715000D01*
G01X2195106Y-6015406D02*
G01X2097496Y-6015406D01*
G01X1600200Y-5518110D01*
G01X1600200Y-5486400D01*
G01X2195106Y-5915406D02*
G01X2047842Y-5915406D01*
G01X1684849Y-5552413D01*
G01X1684849Y-5488459D01*
G54D70*
G01X2413000Y-5892800D02*
G01X2444737Y-5892800D01*
G01X2511418Y-5826118D01*
G01X2324100Y-5892800D02*
G01X2413000Y-5892800D01*
G01X2290306Y-5892800D02*
G01X2324100Y-5892800D01*
G54D65*
G01X3352800Y-1763890D02*
G01X3352800Y-1675997D01*
G01X3652097Y-1376700D02*
G01X3886292Y-1142505D01*
G01X3352800Y-1675997D02*
G01X3472200Y-1556597D01*
G01X3472200Y-1550610D01*
G01X3646110Y-1376700D01*
G01X3652097Y-1376700D01*
G01X3886292Y-1142505D02*
G01X4235793Y-1142505D01*
G01X3363417Y-1774507D02*
G01X3083408Y-1774507D01*
G01X2195106Y-5815406D02*
G01X2193912Y-5816600D01*
G01X2133600Y-5816600D01*
G54D67*
G01X2111805Y-5807505D02*
G01X2082800Y-5807505D01*
G01X2079195Y-5807505D02*
G01X2075107Y-5811593D01*
G54D66*
G01X1939355Y-5664200D02*
G01X2082660Y-5807505D01*
G54D65*
G01X1943100Y-5981700D02*
G01X1945279Y-5981700D01*
G54D71*
G01X2025193Y-6165393D02*
G01X2195106Y-6165393D01*
G54D72*
G01X1945279Y-5981700D02*
G01X1945279Y-6085479D01*
G01X2025193Y-6165393D01*
G54D67*
G01X5842000Y-2578100D02*
G01X6794500Y-3530600D01*
G01X6794500Y-5181600D01*
G01X5797042Y-2578100D02*
G01X5842000Y-2578100D01*
G01X5867400Y-2578100D01*
G54D65*
G01X4070502Y-10833100D02*
G01X4070502Y-10664503D01*
G01X4013200Y-10607201D01*
G54D67*
G01X351590Y-10793911D02*
G01X63500Y-10505821D01*
G01X63500Y-5993000D01*
G01X138300Y-5918200D01*
G01X364289Y-10793910D02*
G01X351590Y-10793911D01*
G01X138300Y-5918200D02*
G01X151000Y-5918200D01*
G54D65*
G01X4699000Y-1182700D02*
G01X4699000Y-1104900D01*
G01X4546600Y-952500D01*
G01X4978400Y-2527300D02*
G01X4978400Y-2438400D01*
G01X4221885Y-2526805D02*
G01X4311280Y-2616200D01*
G01X4889500Y-2616200D01*
G01X4978400Y-2527300D01*
G01X4710836Y-2438400D02*
G01X4787036Y-2514600D01*
G01X4851400Y-2514600D01*
G04 Track End*

M02*

