G04 Layer: TopSolderMaskLayer*
G04 EasyEDA Pro v3.2.148, 2026-07-02 18:00:28*
G04 Gerber Generator version 0.3*
G04 Scale: 100 percent, Rotated: No, Reflected: No*
G04 Dimensions in millimeters*
G04 Leading zeros omitted, absolute positions, 4 integers and 5 decimals*
G04 Generated by one-click*
G04 Object Configs: Pad,Via,Track,Text,Image,Dimension,BoardOutline,BoardCutout,CopperFilled,SolidRegion,FPCStiffener,Line,PlaneZone,ComponentProperty,ComponentSilkscreen,TearDrop*
G04 Layer Configs: 1,15,16,2,3,4,5,6,7,8,9,10,11,13,14,56*
G04 Copper Areas: 0*
%FSLAX45Y45*%
%MOMM*%
%AMRoundRect*1,1,$1,$2,$3*1,1,$1,$4,$5*1,1,$1,0-$2,0-$3*1,1,$1,0-$4,0-$5*20,1,$1,$2,$3,$4,$5,0*20,1,$1,$4,$5,0-$2,0-$3,0*20,1,$1,0-$2,0-$3,0-$4,0-$5,0*20,1,$1,0-$4,0-$5,$2,$3,0*4,1,4,$2,$3,$4,$5,0-$2,0-$3,0-$4,0-$5,$2,$3,0*%
%ADD10RoundRect,0.1016X-0.4X0.45X0.4X0.45*%
%ADD11RoundRect,0.1016X-0.25X0.27X0.25X0.27*%
%ADD12RoundRect,0.1016X-0.27X-0.25X-0.27X0.25*%
%ADD13RoundRect,0.1016X-0.5X-0.55X-0.5X0.55*%
%ADD14RoundRect,0.1X-0.42501X0.32501X0.42501X0.32501*%
%ADD15RoundRect,0.1X-0.32501X-0.42501X-0.32501X0.42501*%
%ADD16RoundRect,0.1016X-0.32501X-0.5X-0.32501X0.5*%
%ADD17RoundRect,0.1016X-0.68851X-0.56627X-0.68851X0.56627*%
%ADD18RoundRect,0.1016X-0.56627X0.68851X0.56627X0.68851*%
%ADD19RoundRect,0.1029X-0.27X-0.28283X-0.27X0.28283*%
%ADD20RoundRect,0.1016X-0.27X-0.28283X-0.27X0.28283*%
%ADD21RoundRect,0.1016X-0.79X0.4X0.79X0.4*%
%ADD22C,2.1016*%
%ADD23C,1.5016*%
%ADD24O,0.4446X1.83309*%
%ADD25RoundRect,0.10003X-0.2X0.15X0.2X0.15*%
%ADD26RoundRect,0.10003X-0.15X-0.2X-0.15X0.2*%
%ADD27O,0.9016X0.38161*%
%ADD28O,0.38161X0.9016*%
%ADD29RoundRect,0.1016X-0.4X-0.4X-0.4X0.4*%
%ADD30RoundRect,0.1016X-1.0X1.0X1.0X1.0*%
%ADD31O,2.00002X1.10002*%
%ADD32O,1.90002X1.10002*%
%ADD33RoundRect,0.1016X-0.5X0.32501X0.5X0.32501*%
%ADD34RoundRect,0.1016X-0.5785X-0.245X-0.5785X0.245*%
%ADD35RoundRect,0.1016X-0.5875X-0.245X-0.5875X0.245*%
%ADD36RoundRect,0.1016X-0.95X0.65X0.95X0.65*%
%ADD37RoundRect,0.1016X0.21213X-1.13137X-1.13137X0.21213*%
%ADD38RoundRect,0.1016X-1.13137X-0.21213X0.21213X1.13137*%
G75*


G04 Pad Start*
G54D10*
G01X6699402Y-3975100D03*
G01X6559398Y-3975100D03*
G54D11*
G01X6252312Y-4102100D03*
G01X6168288Y-4102100D03*
G54D12*
G01X6604000Y-296012D03*
G01X6604000Y-211988D03*
G54D11*
G01X6714388Y-5321300D03*
G01X6798412Y-5321300D03*
G01X6765188Y-10566400D03*
G01X6849212Y-10566400D03*
G54D12*
G01X3593799Y-10509594D03*
G01X3593799Y-10593617D03*
G54D11*
G01X511912Y-10845800D03*
G01X427888Y-10845800D03*
G54D12*
G01X190500Y-5757012D03*
G01X190500Y-5672988D03*
G01X177800Y-486512D03*
G01X177800Y-402488D03*
G01X3251200Y-59588D03*
G01X3251200Y-143612D03*
G01X990600Y-8974988D03*
G01X990600Y-9059012D03*
G54D10*
G01X6267602Y-9004300D03*
G01X6127598Y-9004300D03*
G54D11*
G01X6239612Y-8839200D03*
G01X6155588Y-8839200D03*
G54D13*
G01X1511300Y-7891005D03*
G01X1511300Y-8237995D03*
G01X1485900Y-8437105D03*
G01X1485900Y-8784095D03*
G01X1714500Y-8970505D03*
G01X1714500Y-9317495D03*
G54D14*
G01X6707499Y-290001D03*
G01X6707499Y-160004D03*
G01X6842500Y-160004D03*
G01X6842500Y-290001D03*
G01X6842500Y-5434999D03*
G01X6842500Y-5564996D03*
G01X6707499Y-5564996D03*
G01X6707499Y-5434999D03*
G01X6842500Y-10709999D03*
G01X6842500Y-10839996D03*
G01X6707499Y-10839996D03*
G01X6707499Y-10709999D03*
G01X3590499Y-10720404D03*
G01X3590499Y-10850401D03*
G01X3455498Y-10850401D03*
G01X3455498Y-10720404D03*
G54D15*
G01X290001Y-10842501D03*
G01X160004Y-10842501D03*
G01X160004Y-10707500D03*
G01X290001Y-10707500D03*
G54D14*
G01X195200Y-5565001D03*
G01X195200Y-5435004D03*
G01X330201Y-5435004D03*
G01X330201Y-5565001D03*
G54D15*
G01X290001Y-292501D03*
G01X160004Y-292501D03*
G01X160004Y-157500D03*
G01X290001Y-157500D03*
G01X3427499Y-46799D03*
G01X3557496Y-46799D03*
G01X3557496Y-181800D03*
G01X3427499Y-181800D03*
G54D16*
G01X348996Y-789000D03*
G01X159004Y-789000D03*
G01X254000Y-989000D03*
G01X6457043Y-3122138D03*
G01X6647035Y-3122138D03*
G01X6552039Y-2922138D03*
G54D17*
G01X6299200Y-827100D03*
G01X6299200Y-1027100D03*
G54D18*
G01X6716700Y-4165600D03*
G01X6516700Y-4165600D03*
G01X6716700Y-4470400D03*
G01X6516700Y-4470400D03*
G54D20*
G01X6615539Y-2559756D03*
G01X6615539Y-2646319D03*
G01X6234539Y-3103519D03*
G01X6234539Y-3016956D03*
G54D17*
G01X6477000Y-8790000D03*
G01X6477000Y-8990000D03*
G54D18*
G01X1157300Y-8902700D03*
G01X1357300Y-8902700D03*
G54D20*
G01X1193800Y-960018D03*
G01X1193800Y-1046582D03*
G54D17*
G01X990600Y-763600D03*
G01X990600Y-963600D03*
G01X6667500Y-509600D03*
G01X6667500Y-709600D03*
G54D21*
G01X4589501Y-10432212D03*
G01X5189499Y-10432212D03*
G01X4589501Y-10802188D03*
G01X5189499Y-10802188D03*
G54D22*
G01X5483606Y-9702800D03*
G01X6733794Y-9702800D03*
G01X5483606Y-10210800D03*
G01X6733794Y-10210800D03*
G54D23*
G01X190500Y-8929700D03*
G01X190500Y-9129700D03*
G54D24*
G01X5993308Y-8425624D03*
G01X5928309Y-8425624D03*
G01X5863311Y-8425624D03*
G01X5798287Y-8425624D03*
G01X5733288Y-8425624D03*
G01X5668289Y-8425624D03*
G01X5603291Y-8425624D03*
G01X5538292Y-8425624D03*
G01X5993308Y-8998775D03*
G01X5928309Y-8998775D03*
G01X5863311Y-8998775D03*
G01X5798287Y-8998775D03*
G01X5733288Y-8998775D03*
G01X5668289Y-8998775D03*
G01X5603291Y-8998775D03*
G01X5538292Y-8998775D03*
G54D25*
G01X1170965Y-9135763D03*
G01X1170965Y-9185750D03*
G01X1170965Y-9235763D03*
G54D26*
G01X1225956Y-9245745D03*
G54D25*
G01X1280973Y-9235763D03*
G01X1280973Y-9185750D03*
G01X1280973Y-9135763D03*
G54D26*
G01X1225956Y-9125755D03*
G54D27*
G01X6159195Y-3697287D03*
G01X6159195Y-3747300D03*
G01X6159195Y-3797287D03*
G01X6159195Y-3847300D03*
G01X6159195Y-3897287D03*
G54D28*
G01X6249213Y-3937292D03*
G01X6299200Y-3937292D03*
G01X6349213Y-3937292D03*
G54D27*
G01X6439205Y-3897287D03*
G01X6439205Y-3847300D03*
G01X6439205Y-3797287D03*
G01X6439205Y-3747300D03*
G01X6439205Y-3697287D03*
G54D28*
G01X6349213Y-3657308D03*
G01X6299200Y-3657308D03*
G01X6249213Y-3657308D03*
G54D29*
G01X6336144Y-2779639D03*
G01X6336144Y-2629626D03*
G54D30*
G01X711200Y-571500D03*
G54D22*
G01X457200Y-571500D03*
G54D31*
G01X676783Y-7720889D03*
G54D32*
G01X258801Y-7720889D03*
G01X258801Y-8585911D03*
G54D31*
G01X676783Y-8585911D03*
G54D33*
G01X6500800Y-666496D03*
G01X6500800Y-476504D03*
G01X6300800Y-571500D03*
G54D34*
G01X6719367Y-1149096D03*
G01X6719367Y-1054100D03*
G01X6719367Y-959104D03*
G54D35*
G01X6488633Y-959104D03*
G01X6488633Y-1149096D03*
G54D36*
G01X1780011Y-9555007D03*
G01X2619989Y-9555007D03*
G01X1780011Y-10004993D03*
G01X2619989Y-10004993D03*
G01X1780011Y-7745007D03*
G01X2619989Y-7745007D03*
G01X1780011Y-8194993D03*
G01X2619989Y-8194993D03*
G54D37*
G01X3362117Y-7513929D03*
G01X3956071Y-8107883D03*
G01X3043929Y-7832117D03*
G01X3637883Y-8426071D03*
G54D36*
G01X4380011Y-7745007D03*
G01X5219989Y-7745007D03*
G01X4380011Y-8194993D03*
G01X5219989Y-8194993D03*
G54D38*
G01X3043929Y-9917883D03*
G01X3637883Y-9323929D03*
G01X3362117Y-10236071D03*
G01X3956071Y-9642117D03*
G54D36*
G01X4380011Y-9555007D03*
G01X5219989Y-9555007D03*
G01X4380011Y-10004993D03*
G01X5219989Y-10004993D03*
G01X1780011Y-10328707D03*
G01X2619989Y-10328707D03*
G01X1780011Y-10778693D03*
G01X2619989Y-10778693D03*
G54D37*
G01X2062117Y-8413929D03*
G01X2656071Y-9007883D03*
G01X1743929Y-8732117D03*
G01X2337883Y-9326071D03*
G54D36*
G01X3080011Y-8645007D03*
G01X3919989Y-8645007D03*
G01X3080011Y-9094993D03*
G01X3919989Y-9094993D03*
G54D38*
G01X4343929Y-9007883D03*
G01X4937883Y-8413929D03*
G01X4662117Y-9326071D03*
G01X5256071Y-8732117D03*
G54D22*
G01X5900000Y-600000D03*
G01X800000Y-10000000D03*
G04 Pad End*

M02*

